<?xml version="1.0" encoding="UTF-8"?> <svg xmlns="http://www.w3.org/2000/svg" width="69" height="70" viewBox="0 0 69 70" fill="none"> <g clip-path="url(#clip0)"> <path d="M13.4252 62.8112H55.5748C63.7401 56.5018 69 46.6144 69 35.4971C69 16.4432 53.5538 0.99707 34.5 0.99707C15.4462 0.99707 0 16.4432 0 35.4971C0 46.6144 5.2599 56.5018 13.4252 62.8112Z" fill="#FF5767"></path> <path d="M34.4996 69.9974C42.4361 69.9974 49.7452 67.3157 55.5744 62.8115H13.4248C19.254 67.3158 26.5631 69.9974 34.4996 69.9974Z" fill="#A87B69"></path> <path d="M32.9359 62.8115H13.4248C18.7949 66.9611 25.4219 69.5618 32.6377 69.946C28.1085 69.6291 28.3395 62.8115 32.9359 62.8115Z" fill="#8D6451"></path> <path d="M53.9773 12.3584C52.3839 12.3584 24.0615 12.3584 8.91057 12.3584C3.37318 18.4785 0 26.5936 0 35.497C0 44.1473 3.18397 52.0536 8.44347 58.1092C23.4103 58.1092 52.1389 58.1092 53.9773 58.1092C55.9961 58.1092 55 58.1092 57.6386 58.1092V16.0197C57.6386 14.0009 55.9961 12.3584 53.9773 12.3584Z" fill="#4D454E"></path> <path d="M52.8669 16.1621C51.1779 16.1621 18.8272 16.1621 5.92362 16.1621C2.18469 21.6774 0 28.3319 0 35.4969C0 42.4359 2.05019 48.8951 5.57552 54.3054C18.1881 54.3054 51.0426 54.3054 52.8669 54.3054C53.4016 54.3054 53.8348 53.872 53.8348 53.3375V17.13C53.8348 16.5955 53.4016 16.1621 52.8669 16.1621Z" fill="#EDEDED"></path> <path d="M64.5457 59.4212C64.5457 58.6908 63.9562 58.0986 63.229 58.0986H8.43457C11.1222 61.1954 14.3528 63.8081 17.9779 65.7896H58.2061C61.7074 65.7896 64.5457 62.9383 64.5457 59.4212Z" fill="#E8E6E9"></path> <path d="M13.9922 58.0986V60.2622C13.9922 61.1872 14.7457 61.944 15.6665 61.944H38.0837C39.0046 61.944 39.758 61.1872 39.758 60.2622V58.0986H13.9922Z" fill="#BDB9BE"></path> <path d="M21.7221 58.0986H13.9922V60.2622C13.9922 61.1872 14.7457 61.944 15.6665 61.944H20.9236C20.5908 61.1703 20.4055 60.3177 20.4055 59.4212C20.4054 58.6908 20.9949 58.0986 21.7221 58.0986Z" fill="#BDB9BE"></path> <path fill-rule="evenodd" clip-rule="evenodd" d="M1.96477 47H15C15.5523 47 16 46.5523 16 46V23C16 22.4477 15.5523 22 15 22H2.74007C0.97604 26.1457 0 30.7074 0 35.4971C0 39.5307 0.692407 43.4024 1.96477 47ZM21 22.9971C21 22.4448 21.4477 21.9971 22 21.9971H46C46.5523 21.9971 47 22.4448 47 22.9971V24.9971C47 25.5494 46.5523 25.9971 46 25.9971H22C21.4477 25.9971 21 25.5494 21 24.9971V22.9971ZM21 29.9971C21 29.4448 21.4477 28.9971 22 28.9971H46C46.5523 28.9971 47 29.4448 47 29.9971V31.9971C47 32.5494 46.5523 32.9971 46 32.9971H22C21.4477 32.9971 21 32.5494 21 31.9971V29.9971ZM21 36.9971C21 36.4448 21.4477 35.9971 22 35.9971H46C46.5523 35.9971 47 36.4448 47 36.9971V38.9971C47 39.5494 46.5523 39.9971 46 39.9971H22C21.4477 39.9971 21 39.5494 21 38.9971V36.9971ZM21 43.9971C21 43.4448 21.4477 42.9971 22 42.9971H46C46.5523 42.9971 47 43.4448 47 43.9971V45.9971C47 46.5494 46.5523 46.9971 46 46.9971H22C21.4477 46.9971 21 46.5494 21 45.9971V43.9971Z" fill="#BDB9BE"></path> <path fill-rule="evenodd" clip-rule="evenodd" d="M39.6953 8C38.5907 8 37.6953 8.89543 37.6953 10V29.4783C37.6953 30.5828 38.5907 31.4783 39.6953 31.4783H41.6087V38L49.2174 31.4783H66.9997C68.1042 31.4783 68.9997 30.5828 68.9997 29.4783V10C68.9997 8.89543 68.1042 8 66.9997 8H39.6953Z" fill="#4FD5FF"></path> <path fill-rule="evenodd" clip-rule="evenodd" d="M43.0463 15.0203C42.5224 15.0203 42.0977 14.5956 42.0977 14.0717C42.0977 13.5478 42.5224 13.123 43.0463 13.123H61.6761C62.2 13.123 62.6247 13.5478 62.6247 14.0717C62.6247 14.5956 62.2 15.0203 61.6761 15.0203H43.0463ZM42.0978 19.4343C42.0978 19.9583 42.5225 20.383 43.0464 20.383H61.6763C62.2002 20.383 62.6249 19.9583 62.6249 19.4343C62.6249 18.9104 62.2002 18.4857 61.6763 18.4857H43.0464C42.5225 18.4857 42.0978 18.9104 42.0978 19.4343ZM42.0978 24.7014C42.0978 25.2253 42.5225 25.65 43.0464 25.65H52.3965C52.9204 25.65 53.3451 25.2253 53.3451 24.7014C53.3451 24.1775 52.9204 23.7528 52.3965 23.7528H49.998H43.0464C42.5225 23.7528 42.0978 24.1775 42.0978 24.7014Z" fill="white"></path> </g> <defs> <clipPath id="clip0"> <rect width="69" height="69" fill="white" transform="translate(0 0.99707)"></rect> </clipPath> </defs> </svg> 