<?xml version="1.0" encoding="UTF-8"?> <svg xmlns="http://www.w3.org/2000/svg" width="1440" height="680" viewBox="0 0 1440 680" fill="none"> <g clip-path="url(#clip0)"> <rect width="1440" height="680" fill="white"></rect> <rect y="200" width="1440" height="480" fill="#E1F9FF"></rect> <path d="M1264.59 637.811C1277.25 628.951 1284.5 614.451 1283.13 599.901C1281.37 581.191 1265.64 565.231 1244.95 562.541C1244.5 558.351 1241.77 536.681 1223.13 522.661C1205.22 509.191 1179.77 508.181 1158.52 520.141C1143.23 483.071 1107.79 458.061 1067.81 456.121C1027.56 454.171 989.665 475.941 970.995 511.741C945.645 500.861 916.395 506.011 897.155 524.611C875.815 545.251 870.785 578.611 885.405 605.761C883.615 606.681 861.065 618.781 858.275 644.521C856.035 665.201 868.175 679.701 870.305 682.161C1001.73 667.381 1133.16 652.591 1264.59 637.811Z" fill="#B9F0F9"></path> <path d="M1637.59 614.811C1650.25 605.951 1657.5 591.451 1656.13 576.901C1654.37 558.191 1638.64 542.231 1617.95 539.541C1617.5 535.351 1614.77 513.681 1596.13 499.661C1578.22 486.191 1552.77 485.181 1531.52 497.141C1516.23 460.071 1480.79 435.061 1440.81 433.121C1400.56 431.171 1362.66 452.941 1343.99 488.741C1318.64 477.861 1289.39 483.011 1270.15 501.611C1248.81 522.251 1243.78 555.611 1258.4 582.761C1256.61 583.681 1234.06 595.781 1231.27 621.521C1229.03 642.201 1241.17 656.701 1243.3 659.161C1374.73 644.381 1506.16 629.591 1637.59 614.811Z" fill="#B9F0F9"></path> <path d="M-36 291C13.4208 291 56.143 262.32 76.4303 220.695C84.7322 225.347 94.3064 228 104.5 228C106.799 228 109.066 227.865 111.294 227.603C111.099 230.543 111 233.51 111 236.5C111 309.678 170.322 369 243.5 369C310.336 369 365.614 319.514 374.693 255.183C388.911 284.661 419.081 305 454 305C495.378 305 530.087 276.441 539.489 237.959C540.156 237.986 540.826 238 541.5 238C552.563 238 562.761 234.296 570.922 228.06C585.866 262.73 620.349 287 660.5 287C671.833 287 682.715 285.066 692.833 281.511C710.2 327.385 754.541 360 806.5 360C856.708 360 899.804 329.545 918.321 286.101C935.705 302.176 958.955 312 984.5 312C1015.8 312 1043.66 297.248 1061.5 274.317C1079.34 297.248 1107.2 312 1138.5 312C1169.8 312 1197.66 297.248 1215.5 274.317C1233.34 297.248 1261.2 312 1292.5 312C1301.14 312 1309.52 310.876 1317.5 308.765C1325.48 310.876 1333.86 312 1342.5 312C1396.35 312 1440 268.348 1440 214.5C1440 213.998 1440 213.498 1439.99 212.998C1469.31 212.735 1493 188.884 1493 159.5C1493 129.953 1469.05 106 1439.5 106C1420.18 106 1403.25 116.244 1393.84 131.598C1378.93 122.344 1361.34 117 1342.5 117C1333.86 117 1325.48 118.124 1317.5 120.235C1309.52 118.124 1301.14 117 1292.5 117C1261.2 117 1233.34 131.752 1215.5 154.683C1197.66 131.752 1169.8 117 1138.5 117C1107.2 117 1079.34 131.752 1061.5 154.683C1043.66 131.752 1015.8 117 984.5 117C949.56 117 918.912 135.379 901.698 162.996C879.44 134.971 845.069 117 806.5 117C782.715 117 760.526 123.835 741.79 135.647C724.329 109.341 694.44 92 660.5 92C620.349 92 585.866 116.27 570.922 150.94C562.761 144.704 552.563 141 541.5 141C530.452 141 520.266 144.694 512.112 150.915C496.611 137.274 476.272 129 454 129C430.724 129 409.559 138.037 393.821 152.793C387.587 143.851 377.227 138 365.5 138C356.268 138 347.882 141.627 341.69 147.533C317.448 120.794 282.435 104 243.5 104C208.532 104 176.728 117.546 153.049 139.676C142.845 123.639 124.915 113 104.5 113C95.6204 113 87.2108 115.013 79.7028 118.607C61.0314 73.0717 16.2611 41 -36 41C-105.036 41 -161 96.9644 -161 166C-161 235.036 -105.036 291 -36 291Z" fill="#E1F9FF"></path> <path d="M967.63 551.809C964.35 547.739 958.52 546.799 954.12 549.629L901.77 587.099C899.06 588.849 895.55 588.699 893 586.729C891.49 585.559 890.75 585.019 887.92 582.629C884.54 579.769 879.79 580.579 876.06 583.049L793 636.949L954.64 700.179L1079.48 681.149L967.63 551.809Z" fill="#89DAE8"></path> <path d="M0 629.516C66.375 629.446 164.813 629.307 267.609 629.098C327.516 628.959 527.344 620.406 770.203 625.761C1037.53 631.671 1307.81 655.592 1440 667.9V680H0V629.516Z" fill="#69CC91"></path> <path d="M979.673 648.391C977.573 642.371 972.553 638.121 966.683 636.791C966.643 635.421 966.423 634.031 966.013 632.661C963.453 624.011 954.373 619.071 945.723 621.631C943.943 622.161 942.313 622.971 940.883 623.991C940.853 623.281 940.743 622.561 940.533 621.841C939.133 617.121 934.183 614.431 929.463 615.821C926.503 616.701 924.343 618.981 923.483 621.721C919.023 612.971 909.323 608.381 900.253 610.441C890.143 612.741 883.023 622.811 884.333 633.761C877.553 632.421 870.823 635.331 867.663 640.831C864.003 647.201 866.913 653.941 867.233 654.651C858.263 656.651 851.453 664.031 850.203 673.061C848.923 682.351 853.773 691.521 862.233 695.731C873.513 689.111 885.953 682.501 899.543 676.221C928.623 662.791 955.933 654.101 979.673 648.391Z" fill="#24A35B"></path> <path d="M888.293 652.611C893.153 653.751 898.163 650.101 898.163 650.101C898.163 650.101 895.303 644.601 890.443 643.461C885.583 642.321 880.573 645.971 880.573 645.971C880.573 645.971 883.443 651.471 888.293 652.611Z" fill="#1D9352"></path> <path d="M897.413 639.441C898.483 642.591 902.323 644.141 902.323 644.141C902.323 644.141 904.423 640.571 903.353 637.421C902.283 634.271 898.443 632.721 898.443 632.721C898.443 632.721 896.343 636.291 897.413 639.441Z" fill="#1D9352"></path> <path d="M1313.34 519.74C1310.06 515.67 1304.23 514.73 1299.83 517.56L1247.48 555.03C1244.77 556.78 1241.26 556.63 1238.71 554.66C1237.2 553.49 1236.46 552.95 1233.63 550.56C1230.25 547.7 1225.5 548.51 1221.77 550.98L1138.71 604.88L1300.35 668.11L1425.19 649.08L1313.34 519.74Z" fill="#89DAE8"></path> <path d="M1455.08 669.63C1454.37 662.06 1449.3 655.39 1442 652.22C1446.14 645.64 1446.29 637.34 1442.39 630.83C1436.99 621.82 1426.76 621.12 1425.92 621.07C1427.54 616.74 1426.81 611.93 1423.95 608.61C1420.33 604.42 1413.87 603.26 1408.48 606.1C1408.16 593.66 1399.47 582.54 1386.78 579.68C1375.29 577.09 1363.86 582.03 1357.63 591.23C1356.31 587.8 1353.35 585.06 1349.49 584.19C1343.34 582.8 1337.24 586.67 1335.85 592.82C1335.64 593.75 1335.56 594.68 1335.58 595.59C1333.82 594.51 1329.04 591.91 1322.7 592.43C1314.05 593.14 1308.83 599.13 1306.94 601.76C1304.56 600.22 1301.72 599.31 1298.67 599.31C1290.25 599.31 1283.43 606.14 1283.43 614.56C1283.43 619.41 1285.7 623.73 1289.23 626.52C1286.46 632.02 1286.77 638.89 1290.19 644.62C1308.7 641.9 1349.26 638.65 1392.81 658.86C1414.21 668.79 1429.95 681.42 1440.59 691.64C1450.08 688.12 1455.95 678.95 1455.08 669.63Z" fill="#24A35B"></path> <path d="M1408.36 625.019C1404.51 628.199 1398.4 627.149 1398.4 627.149C1398.4 627.149 1398.52 620.949 1402.37 617.769C1406.22 614.589 1412.33 615.639 1412.33 615.639C1412.33 615.639 1412.2 621.839 1408.36 625.019Z" fill="#1D9352"></path> <path d="M1394.34 617.259C1394.78 620.559 1392.02 623.649 1392.02 623.649C1392.02 623.649 1388.56 621.389 1388.12 618.079C1387.68 614.779 1390.44 611.689 1390.44 611.689C1390.44 611.689 1393.91 613.959 1394.34 617.259Z" fill="#1D9352"></path> <path d="M1409.59 637.089C1406.38 636.219 1404.59 632.489 1404.59 632.489C1404.59 632.489 1408.01 630.159 1411.23 631.029C1414.45 631.899 1416.23 635.629 1416.23 635.629C1416.23 635.629 1412.81 637.959 1409.59 637.089Z" fill="#1D9352"></path> <path d="M1460.62 699.08C1425.73 661.47 1312.18 597.75 1186.5 597.75C1080.68 597.75 983.754 635.85 908.674 699.08H1460.62Z" fill="#4DBC7A"></path> <path d="M1250.61 699.08C1255.7 693.85 1270.38 676.7 1267.91 653.44C1265.86 634.2 1253.68 621.92 1247.47 616.85C1237.27 608.5 1223.87 601.83 1208.77 598.41C1201.4 597.98 1193.98 597.75 1186.51 597.75C1182.94 597.75 1179.37 597.8 1175.82 597.88C1212.69 606.5 1236.28 626.37 1233.2 650.28C1230.57 670.66 1210.01 689.11 1184.69 687.6C1181.86 688.2 1179.88 690.73 1179.98 693.48C1180.09 696.48 1182.64 699.02 1185.83 699.07H1250.61V699.08Z" fill="#69CC91"></path> <path d="M854.623 699.081C866.823 690.541 884.993 679.081 908.503 668.751C931.803 658.511 996.253 631.201 1078.37 644.891C1137.46 654.741 1180.04 681.541 1203.3 699.081H854.623Z" fill="#FFE885"></path> <path d="M942.464 680.82C941.734 675.52 937.194 671.43 931.694 671.43C926.194 671.43 921.654 675.52 920.924 680.82H942.464Z" fill="#F4C660"></path> <path d="M1365.14 554.42C1364.52 548.74 1359.7 544.32 1353.86 544.32C1352.33 544.32 1350.87 544.63 1349.53 545.18C1348.32 540.21 1343.84 536.52 1338.5 536.52C1333.16 536.52 1328.68 540.21 1327.47 545.18C1326.14 544.63 1324.68 544.32 1323.14 544.32C1317.29 544.32 1312.48 548.74 1311.86 554.42H1365.14Z" fill="white"></path> <path d="M846.28 578.9C845.66 573.22 840.84 568.8 835 568.8C833.47 568.8 832.01 569.11 830.67 569.66C829.46 564.69 824.98 561 819.64 561C814.3 561 809.82 564.69 808.61 569.66C807.28 569.11 805.82 568.8 804.28 568.8C798.43 568.8 793.62 573.22 793 578.9H846.28Z" fill="white"></path> <path d="M1060.61 499.891C1059.5 500.281 1057.86 501.031 1056.38 502.531C1052.75 506.191 1053.08 511.191 1053.15 512.071C1051.75 511.301 1049.75 510.391 1047.21 509.901C1042.99 509.081 1039.49 509.801 1037.59 510.351C1038.34 509.511 1040.56 507.241 1044.24 506.491C1046.84 505.961 1048.98 506.431 1050.08 506.751C1050.19 506.171 1050.8 503.151 1053.67 501.171C1056.77 499.031 1060.09 499.761 1060.61 499.891Z" fill="#89DAE8"></path> <path d="M1067.64 515.891C1066.26 516.831 1064.29 518.481 1062.8 521.091C1059.16 527.461 1061.46 534.231 1061.89 535.411C1059.68 534.861 1056.59 534.371 1052.92 534.631C1046.81 535.061 1042.27 537.361 1039.85 538.821C1040.57 537.391 1042.79 533.441 1047.57 531.051C1050.95 529.361 1054.07 529.211 1055.71 529.241C1055.64 528.401 1055.36 524.031 1058.58 520.241C1062.05 516.131 1066.88 515.911 1067.64 515.891Z" fill="#89DAE8"></path> <path d="M1310.06 699.08H1332.18C1332.87 696.35 1333.93 693.08 1335.64 689.57C1338.09 684.53 1341.02 680.74 1343.39 678.11C1341.89 677.89 1337.36 677.45 1332.63 680.05C1328.71 682.21 1326.72 685.33 1325.94 686.72C1325.03 684.03 1324.15 680.68 1323.65 676.79C1322.97 671.48 1323.24 666.89 1323.71 663.42C1321.84 665.07 1318.34 668.64 1316.31 674.35C1314.83 678.52 1314.72 682.19 1314.84 684.48C1314.19 683.26 1312.83 681.11 1310.34 679.25C1307.77 677.34 1305.24 676.67 1303.88 676.41C1305.46 679.9 1307.08 684.18 1308.32 689.18C1309.21 692.78 1309.74 696.11 1310.06 699.08Z" fill="#24A35B"></path> </g> <defs> <clipPath id="clip0"> <rect width="1440" height="680" fill="white"></rect> </clipPath> </defs> </svg> 