<?xml version="1.0" encoding="UTF-8"?> <svg xmlns="http://www.w3.org/2000/svg" width="465" height="122" viewBox="0 0 465 122" fill="none"> <path d="M120 60.9962C120 69.3872 118.274 77.3709 115.171 84.6214C112.245 91.4498 108.09 97.619 102.98 102.862C102.054 103.81 101.099 104.729 100.106 105.618C100.106 105.618 100.099 105.625 100.091 105.625C100.069 105.647 100.054 105.662 100.04 105.669C99.8766 105.817 99.7136 105.966 99.5507 106.106C99.4396 106.203 99.3211 106.306 99.21 106.403C94.3587 110.594 88.8335 114.023 82.812 116.497C81.2566 117.134 79.6716 117.712 78.057 118.223C77.3016 118.46 76.5387 118.682 75.7684 118.897C75.5388 118.956 75.3018 119.022 75.0722 119.082C72.9688 119.63 70.8209 120.059 68.636 120.378C68.3619 120.415 68.0879 120.452 67.8064 120.489C65.4512 120.792 63.0441 120.963 60.6147 120.985C60.4074 120.992 60.2 120.992 59.9926 120.992C59.6667 120.992 59.3408 120.992 59.0149 120.985C56.5782 120.948 54.1785 120.763 51.8232 120.437C51.5492 120.4 51.2751 120.363 50.9937 120.326C48.9643 120.022 46.972 119.615 45.0167 119.104C44.6315 119.008 44.2464 118.904 43.8613 118.8C43.1132 118.593 42.3651 118.371 41.6245 118.134C40.0321 117.623 38.4693 117.045 36.9362 116.408C30.9443 113.912 25.4487 110.476 20.6271 106.284C20.4493 106.129 20.2716 105.973 20.0938 105.817C19.9383 105.677 19.7827 105.536 19.6272 105.403C19.6124 105.388 19.605 105.381 19.5902 105.366C19.5457 105.329 19.4939 105.284 19.4569 105.24C18.6273 104.477 17.8126 103.692 17.0275 102.885C11.8578 97.582 7.65831 91.3239 4.72534 84.4067C1.68868 77.208 0 69.2984 0 60.9962C0 27.8617 26.8633 1 60 1C93.1367 1 120 27.8617 120 60.9962Z" fill="#72D4EA"></path> <path d="M26.7894 94.723C26.7894 99.5295 24.3452 103.781 20.642 106.276C20.4642 106.121 20.2865 105.965 20.1087 105.81C19.9532 105.669 19.7976 105.528 19.6421 105.395C19.6273 105.38 19.6199 105.373 19.6051 105.358C19.5606 105.321 19.5088 105.277 19.4717 105.232C18.6422 104.469 17.8275 103.684 17.0424 102.877C11.8727 97.5743 7.67321 91.3162 4.74023 84.399C7.02884 82.4957 10.0433 81.3848 13.4503 81.3848C15.2426 81.3848 18.0645 81.6884 20.2717 82.2587C20.6864 82.3698 21.079 82.4809 21.4419 82.6142C21.9085 82.7771 22.3158 82.9548 22.6491 83.14C23.6638 83.7177 24.4267 84.4138 24.997 85.2285C26.6116 87.4947 26.782 90.6201 26.7894 94.2194C26.7894 94.3897 26.7894 94.5527 26.7894 94.723Z" fill="#EEB28A"></path> <path d="M115.171 84.6218C112.245 91.4501 108.09 97.6193 102.98 102.863C102.054 103.811 101.098 104.729 100.106 105.618C100.106 105.618 100.098 105.625 100.091 105.625C100.069 105.647 100.054 105.662 100.039 105.67C99.8763 105.818 99.7133 105.966 99.5504 106.107C99.4393 106.203 99.3208 106.307 99.2097 106.403C95.3879 103.922 92.8623 99.619 92.8623 94.7162C92.8623 94.5458 92.8623 94.3755 92.8623 94.2052C92.8697 90.6058 93.0327 87.4879 94.6473 85.2217C95.2176 84.4144 95.9804 83.7182 96.9729 83.148C97.321 82.948 97.7432 82.7703 98.232 82.5999C98.5579 82.4888 98.9134 82.3777 99.2837 82.2815C101.506 81.6964 104.379 81.3779 106.201 81.3779C109.742 81.3853 112.845 82.5851 115.171 84.6218Z" fill="#EEB28A"></path> <path d="M19.4713 105.232C18.6418 104.469 17.8271 103.684 17.042 102.877L18.9603 103.344C19.1602 103.973 19.3306 104.603 19.4713 105.232Z" fill="#EEB28A"></path> <path d="M42.4764 116.066C42.4098 116.763 41.9802 117.474 41.6395 118.133C40.0471 117.622 38.4843 117.044 36.9512 116.407C37.003 116.355 37.0475 116.303 37.0993 116.252C37.0993 116.252 37.1067 116.244 37.1141 116.229C37.1289 116.207 37.1437 116.192 37.1586 116.17C37.2178 116.089 37.2993 115.97 37.3363 115.904C37.3956 115.807 37.5289 115.504 37.5289 115.504C37.7955 114.881 37.951 114.185 38.2769 113.704C38.6695 113.119 39.3064 112.845 40.6544 113.363C41.595 113.726 42.1061 114.171 42.3357 114.756C42.4912 115.126 42.5209 115.555 42.4764 116.066Z" fill="#EEB28A"></path> <path d="M59.0222 120.985C56.5854 120.948 54.1857 120.762 51.8305 120.436C51.5564 120.399 51.2824 120.362 51.0009 120.325C48.9716 120.022 46.9792 119.614 45.0239 119.103C44.6388 119.007 44.2536 118.903 43.8685 118.8C43.8537 118.57 43.8611 118.326 43.8981 118.074C44.0685 116.741 44.4166 115.637 44.8758 114.749C46.5126 111.571 49.527 111.083 50.7195 112.253C51.7046 113.208 52.7859 114.015 53.8376 114.749C54.6227 115.304 55.393 115.815 56.0818 116.326C57.6149 117.459 58.7778 118.585 58.9851 120.103C59.0148 120.385 59.0296 120.681 59.0222 120.985Z" fill="#EEB28A"></path> <path d="M51.8302 120.436C51.5561 120.399 51.2821 120.362 51.0007 120.325C50.9932 120.037 50.9266 119.74 50.8007 119.444C50.6451 119.059 50.4229 118.681 50.1711 118.311C50.0008 118.059 49.8156 117.815 49.623 117.57C49.9786 117.741 50.3119 117.948 50.6081 118.207C50.9118 118.474 51.1784 118.777 51.4006 119.133C51.6228 119.488 51.7783 119.903 51.8228 120.355C51.8302 120.385 51.8302 120.414 51.8302 120.436Z" fill="#D89C82"></path> <path d="M37.5282 115.505C37.7134 115.653 37.9726 115.749 38.2466 115.83C38.5207 115.919 38.8169 115.956 39.1132 115.927C39.4169 115.897 39.7205 115.816 40.002 115.682C40.276 115.542 40.5427 115.342 40.713 115.053C40.6167 115.371 40.3945 115.645 40.1279 115.867C39.8613 116.09 39.5428 116.253 39.2095 116.364C38.8688 116.475 38.4911 116.512 38.1281 116.482C37.7578 116.445 37.4764 116.43 37.0986 116.253C37.0986 116.253 37.2764 116.008 37.3356 115.904C37.3875 115.808 37.5282 115.505 37.5282 115.505Z" fill="#D89C82"></path> <path d="M75.7763 118.896C75.5467 118.955 75.3097 119.022 75.0801 119.081C72.9767 119.629 70.8288 120.059 68.6439 120.377C68.3698 120.414 68.0958 120.451 67.8143 120.488C65.4591 120.792 63.0519 120.962 60.6226 120.985C60.6152 120.681 60.6226 120.385 60.6671 120.103C60.8744 118.585 62.0521 117.452 63.5926 116.311C64.274 115.808 65.0369 115.297 65.8146 114.749C66.8589 114.016 67.9402 113.208 68.9327 112.253C70.1326 111.09 73.147 111.579 74.7838 114.749C75.243 115.637 75.5911 116.741 75.7615 118.074C75.7837 118.363 75.7911 118.637 75.7763 118.896Z" fill="#EEB28A"></path> <path d="M82.8125 116.505C81.2571 117.142 79.6722 117.719 78.0575 118.23C77.7094 117.549 77.2428 116.801 77.1762 116.068C77.1317 115.557 77.1613 115.127 77.3095 114.749C77.5391 114.164 78.0575 113.72 78.9908 113.357C80.3387 112.831 80.9757 113.113 81.3682 113.69C81.7015 114.179 81.8571 114.875 82.1163 115.497C82.1163 115.497 82.257 115.801 82.3163 115.897C82.3755 116.001 82.5533 116.238 82.5533 116.238C82.6273 116.327 82.7162 116.408 82.8051 116.482L82.8125 116.505Z" fill="#EEB28A"></path> <path d="M102.979 102.862C102.054 103.81 101.098 104.729 100.106 105.617C100.106 105.617 100.098 105.625 100.091 105.625C100.091 105.603 100.098 105.588 100.098 105.573C100.246 104.832 100.439 104.084 100.683 103.336L102.979 102.862Z" fill="#EEB28A"></path> <path d="M70.0216 117.563C69.8438 117.793 69.6661 118.023 69.5105 118.252C69.2439 118.645 69.0069 119.037 68.844 119.437C68.718 119.756 68.644 120.074 68.644 120.37C68.3699 120.407 68.0959 120.444 67.8145 120.481C67.8145 120.437 67.8145 120.393 67.8219 120.348C67.8663 119.896 68.0144 119.474 68.244 119.126C68.481 118.748 68.7699 118.423 69.0958 118.156C69.3772 117.919 69.6883 117.719 70.0216 117.563Z" fill="#D89C82"></path> <path d="M82.1233 115.505C81.9381 115.653 81.6789 115.749 81.4048 115.83C81.1308 115.919 80.8345 115.956 80.5383 115.927C80.2346 115.897 79.9309 115.816 79.6495 115.682C79.3755 115.542 79.1088 115.342 78.9385 115.053C79.0348 115.371 79.257 115.645 79.5236 115.867C79.7902 116.09 80.1087 116.253 80.442 116.364C80.7827 116.475 81.1604 116.512 81.5233 116.482C81.8937 116.445 82.1751 116.43 82.5528 116.253C82.5528 116.253 82.3751 116.008 82.3158 115.904C82.2566 115.808 82.1233 115.505 82.1233 115.505Z" fill="#D89C82"></path> <path d="M81.8197 29.7283C81.8197 23.485 78.783 21.6039 78.783 21.6039C78.4719 24.6329 76.4574 25.1513 76.4574 25.1513C78.0942 17.3676 71.7246 15.1236 71.7246 15.1236C71.7246 15.1236 72.7541 17.1158 71.5247 18.8118C71.5247 18.8118 67.3252 7.91752 52.4603 9.88011C52.4603 9.88011 55.7562 11.5391 54.1046 15.1014C54.1046 15.1014 52.0456 11.6205 45.3723 13.124C45.3723 13.124 47.098 17.0862 44.4169 20.9892C44.4169 20.9892 43.4615 20.3522 43.2985 17.5676C43.2985 17.5676 38.2103 21.4113 37.5437 29.0025C37.0845 34.2682 39.736 46.7177 39.736 46.7177L79.694 45.3105C79.6866 45.3105 81.8197 36.6677 81.8197 29.7283Z" fill="#FFD880"></path> <path d="M72.4647 72.8525H59.8218H47.179L20.2119 83.0729L38.8985 114.748H40.6612H59.8218H80.7452L99.4318 83.0654L72.4647 72.8525Z" fill="#EEB28A"></path> <path d="M100.039 105.677C99.8762 105.825 99.7133 105.973 99.5503 106.113C99.4392 106.21 99.3207 106.313 99.2096 106.41C94.3584 110.602 88.8331 114.031 82.8117 116.504C81.2563 117.141 79.6713 117.719 78.0567 118.23C77.3012 118.467 76.5384 118.689 75.7681 118.904C75.5385 118.963 75.3015 119.03 75.0719 119.089C72.9684 119.637 70.8206 120.066 68.6356 120.385C68.3616 120.422 68.0876 120.459 67.8061 120.496C65.4509 120.8 63.0437 120.97 60.6144 120.992C60.407 121 60.1996 121 59.9923 121C59.6664 121 59.3405 121 59.0146 120.992C56.5779 120.955 54.1782 120.77 51.8229 120.444C51.5489 120.407 51.2748 120.37 50.9934 120.333C48.964 120.029 46.9716 119.622 45.0163 119.111C44.6312 119.015 44.2461 118.911 43.8609 118.807C43.1129 118.6 42.3648 118.378 41.6242 118.141C40.0318 117.63 38.469 117.052 36.9358 116.415C30.944 113.919 25.4484 110.483 20.6268 106.291C20.449 106.136 20.2712 105.98 20.0935 105.825C19.9379 105.684 19.7824 105.543 19.6269 105.41C19.6121 105.395 19.6047 105.388 19.5898 105.373C19.5973 102.699 19.7158 99.8184 19.8417 96.6856C20.012 92.6345 20.1972 88.1465 20.1972 83.0882L21.4192 82.6216L25.2632 81.1626L30.2922 79.2593L32.2698 78.5113L32.4549 78.4372L33.0548 78.2076C33.0548 78.2076 32.5586 97.7669 52.7931 101.448C52.9709 101.485 53.1561 101.514 53.3412 101.544C53.6893 101.603 54.0374 101.655 54.393 101.7C56.0594 101.922 57.8592 102.04 59.7997 102.04H59.9034C61.8069 102.04 63.577 101.914 65.2138 101.7C65.5619 101.655 65.9026 101.603 66.2359 101.544C66.2433 101.544 66.2507 101.544 66.2507 101.544C66.4285 101.514 66.6063 101.485 66.784 101.448C87.0408 97.7743 86.5519 78.2002 86.5519 78.2002L89.0553 79.1482L94.5954 81.2441L98.195 82.6068L99.4022 83.066C99.4318 92.3531 100.069 99.5518 100.039 105.677Z" fill="#9DDEED"></path> <path d="M100.106 105.618C100.106 105.618 100.099 105.625 100.091 105.625C100.069 105.647 100.054 105.662 100.04 105.669C99.8766 105.818 99.7137 105.966 99.5508 106.106C97.277 100.774 95.9882 94.8419 95.2698 90.1242C94.981 88.2653 94.781 86.5916 94.6477 85.2215C94.4181 82.8663 94.3662 81.3999 94.3662 81.3999C94.3662 81.3999 94.4625 81.3333 94.6328 81.237C95.1365 80.963 96.3215 80.489 97.6769 81.0296C98.662 81.4222 99.099 81.9332 99.2841 82.2887C99.4323 82.5627 99.4322 82.7478 99.4322 82.7478L100.099 105.573L100.106 105.618Z" fill="#5EBAD3"></path> <path d="M25.2859 81.1557C25.2859 81.2446 25.2341 82.7925 24.9971 85.2291C24.8637 86.614 24.6638 88.2803 24.3749 90.1318C23.6565 94.7902 22.3752 100.574 20.1014 105.81C19.9458 105.67 19.7903 105.529 19.6348 105.396L19.857 96.6788L20.2125 82.5036C20.2125 82.5036 20.2125 82.4148 20.2643 82.2667C20.3828 81.926 20.7531 81.2742 21.9752 80.7854C23.7824 80.0597 25.2859 81.1557 25.2859 81.1557Z" fill="#5EBAD3"></path> <path d="M76.6053 79.8148L73.7908 60.9961H59.8222H53.1934H45.8535L43.0391 79.8148L59.8222 86.7839L76.6053 79.8148Z" fill="#EEB28A"></path> <path d="M44.498 70.0386C44.498 70.0386 47.3347 75.3413 59.8221 75.3413C72.3094 75.3413 75.1461 70.0386 75.1461 70.0386L74.2129 63.8027H45.4683L44.498 70.0386Z" fill="#DD9F7C"></path> <path d="M42.2016 41.2521C35.1728 39.4228 32.2028 46.8881 36.2764 51.7835C40.0241 56.2863 45.4382 54.8792 45.4382 54.8792L44.8975 38.6748L42.2016 41.2521Z" fill="#DD9F7C"></path> <path d="M77.4495 41.2521C84.4783 39.4228 87.4483 46.8881 83.3747 51.7835C79.627 56.2863 74.2129 54.8792 74.2129 54.8792L74.7536 38.6748L77.4495 41.2521Z" fill="#DD9F7C"></path> <path d="M74.5464 25.6329C77.4646 31.2688 77.8053 44.3405 78.8718 50.6356C80.4716 60.0857 76.7609 73.9053 59.9334 71.2317C43.1058 73.9127 39.3878 60.0857 40.995 50.6356C41.4986 47.6584 41.8393 43.1703 42.3726 38.6749C42.9651 33.6536 43.7872 28.6101 45.3204 25.6403C47.1054 22.1891 51.6678 19.2637 59.9334 19.2637C68.199 19.2637 72.754 22.1816 74.5464 25.6329Z" fill="#EEB28A"></path> <path d="M54.305 45.3174C54.305 45.3174 52.6386 46.806 49.8908 46.4431C47.617 46.1469 46.906 44.8878 46.906 44.8878C45.2987 42.4216 46.9874 40.1035 49.6538 39.9554C51.7498 39.8295 54.2088 41.1404 54.305 45.3174Z" fill="white"></path> <path d="M54.001 42.2812C53.7566 41.1258 52.5715 40.3852 51.3569 40.6296C51.3495 40.6296 51.3495 40.6296 51.3421 40.637C51.4976 40.7926 51.6087 40.9851 51.6605 41.2147C51.7939 41.8516 51.3791 42.4737 50.7199 42.5996C50.3052 42.6811 49.8978 42.5478 49.6163 42.2812C49.5497 42.5626 49.5423 42.8663 49.6089 43.1625C49.8534 44.3178 51.0384 45.0584 52.2531 44.814C53.4677 44.5696 54.2528 43.4365 54.001 42.2812Z" fill="#633624"></path> <path d="M64.999 45.3174C64.999 45.3174 66.6655 46.806 69.4133 46.4431C71.6871 46.1469 72.3981 44.8878 72.3981 44.8878C74.0053 42.4216 72.3166 40.1035 69.6503 39.9554C67.5469 39.8295 65.0953 41.1404 64.999 45.3174Z" fill="white"></path> <path d="M70.5767 40.6294C70.2656 40.5701 69.9546 40.5701 69.6583 40.6294C69.8138 40.7849 69.9323 40.9849 69.9768 41.2071C70.1101 41.844 69.6953 42.4661 69.0362 42.592C68.6214 42.6735 68.2066 42.5402 67.9326 42.2661C67.9326 42.2735 67.9326 42.2735 67.9326 42.2735C67.6882 43.4289 68.4659 44.562 69.6805 44.8064C70.8952 45.0508 72.0802 44.3102 72.3246 43.1549C72.5765 42.0069 71.7914 40.8738 70.5767 40.6294Z" fill="#633624"></path> <path d="M50.5053 51.9677C53.7573 51.9677 56.3935 50.2866 56.3935 48.2129C56.3935 46.1391 53.7573 44.458 50.5053 44.458C47.2534 44.458 44.6172 46.1391 44.6172 48.2129C44.6172 50.2866 47.2534 51.9677 50.5053 51.9677Z" fill="#EEB28A"></path> <path d="M68.7993 51.9677C72.0512 51.9677 74.6875 50.2866 74.6875 48.2129C74.6875 46.1391 72.0512 44.458 68.7993 44.458C65.5474 44.458 62.9111 46.1391 62.9111 48.2129C62.9111 50.2866 65.5474 51.9677 68.7993 51.9677Z" fill="#EEB28A"></path> <path d="M45.9062 38.6524C45.9062 38.6524 48.2689 34.9272 52.2684 35.8308C54.9274 36.4306 55.2384 39.3338 55.2384 39.3338C51.3426 36.8528 45.9062 38.6524 45.9062 38.6524Z" fill="#FFD880"></path> <path d="M73.9543 38.6524C73.9543 38.6524 71.5916 34.9272 67.5921 35.8308C64.9331 36.4306 64.6221 39.3338 64.6221 39.3338C68.5179 36.8528 73.9543 38.6524 73.9543 38.6524Z" fill="#FFD880"></path> <path d="M59.7699 45.6211C59.7699 45.6211 59.7551 46.4209 59.1552 47.3985C58.2368 48.8872 57.0517 49.3167 56.7925 50.8349C56.5111 52.4494 58.2516 53.8714 60.7994 53.9973C59.7403 53.5826 58.1405 52.4124 58.296 51.2793C58.4886 49.9018 59.3403 48.9834 59.7181 48.0651C60.2217 46.8209 59.7699 45.6211 59.7699 45.6211Z" fill="#D89371"></path> <path d="M43.4837 28.9578C51.7493 31.1945 62.1332 26.1806 62.1332 26.1806C62.4443 28.7505 60.2668 29.7947 60.2668 29.7947C65.6143 30.0095 66.7327 25.8695 66.7327 25.8695C68.4213 27.6914 71.8876 26.5953 73.954 28.4098C77.0129 31.0908 77.4276 38.1265 77.4276 38.1265L79.0126 36.238L77.5461 27.8469L73.4207 22.1443C73.4207 22.1443 63.259 15.9825 57.119 17.5155C48.5571 19.6485 43.2393 27.5137 43.2393 27.5137L43.4837 28.9578Z" fill="#FFD880"></path> <path d="M33.1443 78.1715C33.3517 81.1265 34.4256 88.5399 39.862 94.1018C44.4466 98.7898 51.1199 101.167 59.6892 101.167C68.2733 101.167 74.954 98.7824 79.5386 94.0796C85.049 88.4362 86.0711 80.9487 86.2563 78.0752L89.0855 79.1491C88.7374 82.8669 87.308 90.2729 81.6124 96.1089C76.4575 101.389 69.0806 104.07 59.6818 104.07C50.2829 104.07 42.9135 101.389 37.7585 96.1089C32.1148 90.3248 30.6705 83.0002 30.3076 79.2528L33.1443 78.1715Z" fill="#5EBAD3"></path> <path d="M62.6667 67.8544C60.9187 66.8843 58.9338 66.9287 57.334 67.8767C57.6525 67.3212 58.1339 66.9139 58.6449 66.6547C59.156 66.3955 59.6967 66.2844 60.2077 66.3214C60.7187 66.3436 61.1854 66.5436 61.6075 66.7954C61.8149 66.9287 62.0001 67.099 62.1852 67.2546C62.3556 67.4471 62.5259 67.6323 62.6667 67.8544Z" fill="#D89371"></path> <path d="M46.2612 49.1835C46.6007 49.1835 46.876 48.9083 46.876 48.5688C46.876 48.2293 46.6007 47.9541 46.2612 47.9541C45.9217 47.9541 45.6465 48.2293 45.6465 48.5688C45.6465 48.9083 45.9217 49.1835 46.2612 49.1835Z" fill="#FFD880"></path> <path d="M50.564 49.9315C50.9035 49.9315 51.1787 49.6563 51.1787 49.3168C51.1787 48.9774 50.9035 48.7021 50.564 48.7021C50.2244 48.7021 49.9492 48.9774 49.9492 49.3168C49.9492 49.6563 50.2244 49.9315 50.564 49.9315Z" fill="#FFD880"></path> <path d="M48.0308 52.0048C48.3703 52.0048 48.6455 51.7296 48.6455 51.3901C48.6455 51.0506 48.3703 50.7754 48.0308 50.7754C47.6912 50.7754 47.416 51.0506 47.416 51.3901C47.416 51.7296 47.6912 52.0048 48.0308 52.0048Z" fill="#FFD880"></path> <path d="M73.0347 49.1835C73.3742 49.1835 73.6494 48.9083 73.6494 48.5688C73.6494 48.2293 73.3742 47.9541 73.0347 47.9541C72.6952 47.9541 72.4199 48.2293 72.4199 48.5688C72.4199 48.9083 72.6952 49.1835 73.0347 49.1835Z" fill="#FFD880"></path> <path d="M68.7319 49.9315C69.0714 49.9315 69.3467 49.6563 69.3467 49.3168C69.3467 48.9774 69.0714 48.7021 68.7319 48.7021C68.3924 48.7021 68.1172 48.9774 68.1172 49.3168C68.1172 49.6563 68.3924 49.9315 68.7319 49.9315Z" fill="#FFD880"></path> <path d="M71.272 52.0048C71.6115 52.0048 71.8867 51.7296 71.8867 51.3901C71.8867 51.0506 71.6115 50.7754 71.272 50.7754C70.9325 50.7754 70.6572 51.0506 70.6572 51.3901C70.6572 51.7296 70.9325 52.0048 71.272 52.0048Z" fill="#FFD880"></path> <path d="M68.8878 54.8789C68.8878 54.8789 61.5702 60.4779 53.0527 57.1822C53.0527 57.1822 60.9555 63.5662 68.8878 54.8789Z" fill="#C67F66"></path> <path d="M75.8282 71.9648C72.036 86.2066 59.9412 104.44 59.6968 104.796C59.4598 104.448 47.9427 87.2361 43.7877 73.1942C43.4099 73.2461 42.9804 73.4386 42.5508 74.3644C46.9206 88.895 58.371 105.218 58.9488 106.47L58.9414 106.499L59.6227 108.151L59.6376 108.121L59.6524 108.151L60.3338 106.499L60.3264 106.47C60.9041 105.218 72.4656 88.3914 76.8651 73.8904C76.5836 72.8536 76.2281 72.3722 75.8282 71.9648Z" fill="#403D56"></path> <path d="M63.3701 109.95C63.3701 108.209 62.1554 106.758 60.5334 106.38V103.381C60.5334 103.077 60.2816 102.825 59.9779 102.825H59.4224C59.1188 102.825 58.867 103.077 58.867 103.381V106.38C57.2375 106.758 56.0303 108.209 56.0303 109.95C56.0303 110.29 56.0821 110.616 56.1636 110.927L58.3115 119.037L61.163 118.452L60.7852 113.46C62.2814 112.986 63.3701 111.594 63.3701 109.95Z" fill="#FF5767"></path> <mask id="path-45-outside-1" maskUnits="userSpaceOnUse" x="117" y="0" width="348" height="122" fill="black"> <rect fill="white" x="117" width="348" height="122"></rect> <path fill-rule="evenodd" clip-rule="evenodd" d="M159.374 121H448.626C457.113 121 464 113.66 464 104.594V17.4058C464 8.34956 457.122 1 448.626 1H159.374C150.887 1 144 8.33969 144 17.4058V34H120L144 58V104.594C144 113.65 150.878 121 159.374 121Z"></path> </mask> <path fill-rule="evenodd" clip-rule="evenodd" d="M159.374 121H448.626C457.113 121 464 113.66 464 104.594V17.4058C464 8.34956 457.122 1 448.626 1H159.374C150.887 1 144 8.33969 144 17.4058V34H120L144 58V104.594C144 113.65 150.878 121 159.374 121Z" fill="white"></path> <path d="M144 34V35H145V34H144ZM120 34V33H117.586L119.293 34.7071L120 34ZM144 58H145V57.5858L144.707 57.2929L144 58ZM448.626 120H159.374V122H448.626V120ZM463 104.594C463 113.17 456.501 120 448.626 120V122C457.725 122 465 114.151 465 104.594H463ZM463 17.4058V104.594H465V17.4058H463ZM448.626 2C456.509 2 463 8.83926 463 17.4058H465C465 7.85985 457.735 0 448.626 0V2ZM159.374 2H448.626V0H159.374V2ZM145 17.4058C145 8.83021 151.499 2 159.374 2V0C150.275 0 143 7.84918 143 17.4058H145ZM145 34V17.4058H143V34H145ZM144 33H120V35H144V33ZM119.293 34.7071L143.293 58.7071L144.707 57.2929L120.707 33.2929L119.293 34.7071ZM145 104.594V58H143V104.594H145ZM159.374 120C151.491 120 145 113.161 145 104.594H143C143 114.14 150.265 122 159.374 122V120Z" fill="black" fill-opacity="0.08" mask="url(#path-45-outside-1)"></path> <path d="M193.129 30.5782L185.969 46.6252C185.299 48.1116 184.618 49.3572 183.928 50.3621C183.258 51.3461 182.462 52.0893 181.541 52.5918C180.62 53.0733 179.447 53.314 178.024 53.314C177.438 53.314 176.883 53.2722 176.359 53.1884C175.857 53.1047 175.396 52.9895 174.978 52.843V50.0481C175.396 50.2365 175.847 50.3935 176.328 50.5192C176.81 50.6238 177.312 50.6762 177.835 50.6762C179.008 50.6762 179.929 50.4249 180.599 49.9225C181.29 49.42 181.928 48.5303 182.514 47.2532L173.879 30.5782H176.988L183.237 42.9196C183.341 43.129 183.467 43.4011 183.614 43.7361C183.76 44.0501 183.886 44.3537 183.99 44.6468H184.116C184.2 44.4165 184.304 44.1443 184.43 43.8303C184.556 43.4953 184.66 43.2232 184.744 43.0138L190.145 30.5782H193.129ZM197.603 36.1679V42.2915C197.603 44.2176 198.682 45.1806 200.838 45.1806C201.885 45.1806 202.837 45.0236 203.696 44.7096C204.554 44.3746 205.433 43.935 206.333 43.3907V36.1679H209.097V53H206.333V45.4947C205.391 46.1018 204.46 46.5833 203.539 46.9392C202.638 47.2742 201.55 47.4417 200.273 47.4417C198.556 47.4417 197.216 46.9915 196.253 46.0913C195.311 45.1911 194.84 43.9873 194.84 42.48V36.1679H197.603ZM220.945 35.8539C222.389 35.8539 223.624 36.1679 224.65 36.796C225.697 37.4241 226.493 38.3138 227.037 39.4653C227.602 40.5958 227.885 41.9252 227.885 43.4535V45.1178H216.36C216.402 47.0229 216.883 48.478 217.804 49.4829C218.747 50.4668 220.055 50.9588 221.73 50.9588C222.798 50.9588 223.74 50.8646 224.556 50.6762C225.394 50.4668 226.252 50.1737 227.131 49.7969V52.2149C226.273 52.5918 225.425 52.8639 224.588 53.0314C223.75 53.2198 222.756 53.314 221.604 53.314C220.013 53.314 218.6 52.9895 217.365 52.3405C216.151 51.6915 215.198 50.7285 214.507 49.4514C213.837 48.1535 213.502 46.5728 213.502 44.7096C213.502 42.8673 213.806 41.2866 214.413 39.9677C215.041 38.6488 215.91 37.6334 217.019 36.9216C218.15 36.2098 219.458 35.8539 220.945 35.8539ZM220.913 38.1149C219.594 38.1149 218.548 38.5441 217.773 39.4025C217.019 40.2399 216.569 41.4123 216.423 42.9196H224.996C224.975 41.496 224.64 40.3446 223.991 39.4653C223.342 38.565 222.316 38.1149 220.913 38.1149ZM231.291 42.8882C231.291 39.2036 231.845 36.3354 232.955 34.2838C234.065 32.2111 235.855 30.9132 238.325 30.3898C239.686 30.0967 241.015 29.835 242.313 29.6047C243.611 29.3744 244.825 29.165 245.956 28.9766L246.427 31.3947C245.694 31.4993 244.867 31.6354 243.946 31.8029C243.025 31.9495 242.114 32.1065 241.214 32.274C240.314 32.4205 239.539 32.567 238.89 32.7136C237.529 33.0067 236.451 33.7185 235.656 34.849C234.86 35.9586 234.41 37.6962 234.305 40.0619H234.494C234.787 39.6641 235.185 39.2559 235.687 38.8372C236.21 38.4185 236.828 38.0626 237.54 37.7695C238.273 37.4764 239.1 37.3299 240.021 37.3299C242.198 37.3299 243.841 38.0312 244.951 39.4339C246.061 40.8365 246.615 42.6579 246.615 44.898C246.615 46.7613 246.291 48.3209 245.642 49.5771C244.993 50.8332 244.093 51.7753 242.941 52.4033C241.79 53.0105 240.45 53.314 238.922 53.314C236.598 53.314 234.745 52.4243 233.363 50.6448C231.981 48.8653 231.291 46.2797 231.291 42.8882ZM239.141 51.0216C240.502 51.0216 241.601 50.582 242.439 49.7027C243.276 48.8234 243.695 47.316 243.695 45.1806C243.695 43.4639 243.37 42.1136 242.721 41.1296C242.093 40.1247 241.047 39.6223 239.581 39.6223C238.66 39.6223 237.822 39.8316 237.069 40.2503C236.315 40.6481 235.687 41.1087 235.185 41.6321C234.682 42.1555 234.326 42.5951 234.117 42.951C234.117 43.9768 234.19 44.9713 234.337 45.9343C234.483 46.8973 234.734 47.7662 235.09 48.5408C235.467 49.2944 235.98 49.9016 236.629 50.3621C237.299 50.8018 238.136 51.0216 239.141 51.0216ZM253.732 36.1679V43.1708H262.871V36.1679H265.634V53H262.871V45.4947H253.732V53H250.969V36.1679H253.732ZM277.339 35.8853C279.39 35.8853 280.908 36.3354 281.892 37.2356C282.876 38.1359 283.368 39.5699 283.368 41.5379V53H281.358L280.824 50.6134H280.699C279.966 51.5345 279.191 52.2149 278.375 52.6546C277.579 53.0942 276.47 53.314 275.046 53.314C273.518 53.314 272.251 52.9163 271.246 52.1207C270.242 51.3042 269.739 50.0376 269.739 48.3209C269.739 46.6461 270.399 45.3586 271.717 44.4584C273.036 43.5372 275.067 43.0347 277.81 42.951L280.667 42.8568V41.8519C280.667 40.4492 280.364 39.4757 279.757 38.9314C279.15 38.3871 278.291 38.1149 277.182 38.1149C276.302 38.1149 275.465 38.251 274.669 38.5232C273.874 38.7744 273.131 39.0675 272.44 39.4025L271.592 37.3299C272.325 36.9321 273.193 36.5971 274.198 36.325C275.203 36.0319 276.25 35.8853 277.339 35.8853ZM280.636 44.7724L278.155 44.8666C276.062 44.9503 274.607 45.2853 273.79 45.8715C272.995 46.4577 272.597 47.2846 272.597 48.3523C272.597 49.2944 272.879 49.9853 273.445 50.4249C274.031 50.8646 274.774 51.0844 275.674 51.0844C277.098 51.0844 278.281 50.6971 279.223 49.9225C280.165 49.127 280.636 47.9127 280.636 46.2797V44.7724ZM289.603 53H286.4L291.205 45.9343C290.556 45.7668 289.927 45.5051 289.32 45.1492C288.713 44.7724 288.221 44.2595 287.844 43.6105C287.468 42.9405 287.279 42.1136 287.279 41.1296C287.279 39.5176 287.823 38.2929 288.912 37.4555C290.001 36.5971 291.445 36.1679 293.246 36.1679H300.782V53H298.019V46.3111H293.937L289.603 53ZM289.948 41.161C289.948 42.1241 290.304 42.8463 291.016 43.3278C291.749 43.7884 292.764 44.0187 294.062 44.0187H298.019V38.4604H293.528C292.251 38.4604 291.33 38.7116 290.765 39.214C290.221 39.7165 289.948 40.3655 289.948 41.161ZM324.315 29.1336V35.9167C325.99 36.0633 327.445 36.5029 328.68 37.2356C329.936 37.9684 330.909 38.9523 331.6 40.1875C332.291 41.4227 332.637 42.8882 332.637 44.584C332.637 47.1172 331.893 49.1374 330.407 50.6448C328.941 52.1521 326.911 53.0209 324.315 53.2512V60.5367H321.614V53.2512C319.96 53.1047 318.505 52.6755 317.249 51.9637C315.993 51.231 315.019 50.247 314.329 49.0118C313.638 47.7557 313.292 46.2797 313.292 44.584C313.292 42.0299 314.025 39.9991 315.49 38.4918C316.977 36.9844 319.049 36.1261 321.708 35.9167V29.1336H324.315ZM321.708 38.2091C319.782 38.3976 318.38 39.0361 317.5 40.1247C316.621 41.1924 316.181 42.6788 316.181 44.584C316.181 46.4891 316.621 47.986 317.5 49.0746C318.4 50.1633 319.803 50.8018 321.708 50.9902V38.2091ZM324.315 38.2405V50.9902C326.199 50.7808 327.581 50.1319 328.46 49.0432C329.339 47.9546 329.779 46.4682 329.779 44.584C329.779 42.6998 329.329 41.2238 328.428 40.1561C327.549 39.0884 326.178 38.4499 324.315 38.2405ZM351.655 44.5526C351.655 47.337 350.943 49.4933 349.519 51.0216C348.116 52.5499 346.211 53.314 343.804 53.314C342.317 53.314 340.988 52.9791 339.816 52.3091C338.664 51.6183 337.753 50.6238 337.083 49.3258C336.414 48.0069 336.079 46.4158 336.079 44.5526C336.079 41.7682 336.78 39.6223 338.183 38.1149C339.585 36.6076 341.49 35.8539 343.898 35.8539C345.426 35.8539 346.766 36.1993 347.918 36.8902C349.09 37.5601 350.001 38.5441 350.65 39.8421C351.32 41.1192 351.655 42.6893 351.655 44.5526ZM338.936 44.5526C338.936 46.5414 339.324 48.1221 340.098 49.2944C340.894 50.4459 342.15 51.0216 343.867 51.0216C345.562 51.0216 346.808 50.4459 347.604 49.2944C348.399 48.1221 348.797 46.5414 348.797 44.5526C348.797 42.5637 348.399 41.004 347.604 39.8735C346.808 38.743 345.552 38.1777 343.835 38.1777C342.118 38.1777 340.873 38.743 340.098 39.8735C339.324 41.004 338.936 42.5637 338.936 44.5526ZM364.042 35.8539C366.115 35.8539 367.779 36.5762 369.035 38.0207C370.312 39.4653 370.951 41.6425 370.951 44.5526C370.951 47.4207 370.312 49.598 369.035 51.0844C367.779 52.5708 366.104 53.314 364.011 53.314C362.713 53.314 361.635 53.0733 360.776 52.5918C359.939 52.0893 359.279 51.5136 358.798 50.8646H358.609C358.651 51.2205 358.693 51.6706 358.735 52.2149C358.777 52.7592 358.798 53.2303 358.798 53.6281V60.5367H356.034V36.1679H358.295L358.672 38.4604H358.798C359.3 37.7276 359.96 37.11 360.776 36.6076C361.593 36.1051 362.681 35.8539 364.042 35.8539ZM363.54 38.1777C361.823 38.1777 360.609 38.6593 359.897 39.6223C359.206 40.5853 358.84 42.0508 358.798 44.0187V44.5526C358.798 46.6252 359.133 48.2267 359.803 49.3572C360.494 50.4668 361.76 51.0216 363.602 51.0216C364.628 51.0216 365.466 50.739 366.115 50.1737C366.785 49.6085 367.277 48.8443 367.591 47.8813C367.926 46.8973 368.093 45.7773 368.093 44.5212C368.093 42.5951 367.716 41.0564 366.963 39.9049C366.23 38.7535 365.089 38.1777 363.54 38.1777ZM393.411 36.1679V53H390.93V42.2601C390.93 41.8205 390.941 41.3599 390.962 40.8784C391.004 40.3969 391.046 39.9258 391.087 39.4653H390.993L385.498 53H383.174L377.835 39.4653H377.741C377.804 40.4074 377.835 41.3704 377.835 42.3543V53H375.355V36.1679H379.029L384.336 49.7027L389.737 36.1679H393.411ZM405.159 35.8853C407.211 35.8853 408.729 36.3354 409.712 37.2356C410.696 38.1359 411.188 39.5699 411.188 41.5379V53H409.179L408.645 50.6134H408.519C407.786 51.5345 407.012 52.2149 406.195 52.6546C405.4 53.0942 404.29 53.314 402.867 53.314C401.338 53.314 400.072 52.9163 399.067 52.1207C398.062 51.3042 397.559 50.0376 397.559 48.3209C397.559 46.6461 398.219 45.3586 399.538 44.4584C400.857 43.5372 402.888 43.0347 405.63 42.951L408.488 42.8568V41.8519C408.488 40.4492 408.184 39.4757 407.577 38.9314C406.97 38.3871 406.112 38.1149 405.002 38.1149C404.123 38.1149 403.285 38.251 402.49 38.5232C401.694 38.7744 400.951 39.0675 400.26 39.4025L399.412 37.3299C400.145 36.9321 401.014 36.5971 402.019 36.325C403.024 36.0319 404.07 35.8853 405.159 35.8853ZM408.456 44.7724L405.976 44.8666C403.882 44.9503 402.427 45.2853 401.61 45.8715C400.815 46.4577 400.417 47.2846 400.417 48.3523C400.417 49.2944 400.7 49.9853 401.265 50.4249C401.851 50.8646 402.594 51.0844 403.495 51.0844C404.918 51.0844 406.101 50.6971 407.043 49.9225C407.985 49.127 408.456 47.9127 408.456 46.2797V44.7724ZM180.63 78.8539C182.556 78.8539 184.085 79.2412 185.215 80.0158C186.367 80.7695 186.942 81.8581 186.942 83.2817C186.942 84.3076 186.66 85.1241 186.094 85.7312C185.529 86.3174 184.755 86.7466 183.771 87.0187V87.1443C184.441 87.3327 185.058 87.5944 185.623 87.9294C186.189 88.2644 186.639 88.704 186.974 89.2483C187.33 89.7927 187.508 90.494 187.508 91.3523C187.508 92.755 186.921 93.9379 185.749 94.9009C184.598 95.843 182.787 96.314 180.316 96.314C179.102 96.314 178.003 96.2094 177.019 96C176.035 95.8116 175.219 95.5499 174.57 95.2149V92.7341C175.281 93.069 176.119 93.3726 177.082 93.6448C178.066 93.9169 179.133 94.053 180.285 94.053C181.541 94.053 182.598 93.8437 183.457 93.4249C184.336 92.9853 184.776 92.2421 184.776 91.1953C184.776 89.3111 183.174 88.369 179.971 88.369H177.71V86.108H179.531C180.976 86.108 182.127 85.9196 182.986 85.5428C183.865 85.145 184.304 84.4751 184.304 83.533C184.304 82.7374 183.97 82.1408 183.3 81.743C182.651 81.3452 181.708 81.1463 180.473 81.1463C179.552 81.1463 178.736 81.2405 178.024 81.429C177.333 81.5964 176.569 81.8581 175.731 82.214L174.758 80.0158C176.516 79.2412 178.474 78.8539 180.63 78.8539ZM197.972 78.8853C200.024 78.8853 201.542 79.3354 202.526 80.2356C203.51 81.1359 204.002 82.5699 204.002 84.5379V96H201.992L201.458 93.6134H201.332C200.6 94.5345 199.825 95.2149 199.008 95.6546C198.213 96.0942 197.103 96.314 195.68 96.314C194.151 96.314 192.885 95.9163 191.88 95.1207C190.875 94.3042 190.373 93.0376 190.373 91.3209C190.373 89.6461 191.032 88.3586 192.351 87.4584C193.67 86.5372 195.701 86.0347 198.443 85.951L201.301 85.8568V84.8519C201.301 83.4492 200.997 82.4757 200.39 81.9314C199.783 81.3871 198.925 81.1149 197.815 81.1149C196.936 81.1149 196.098 81.251 195.303 81.5232C194.507 81.7744 193.764 82.0675 193.073 82.4025L192.225 80.3299C192.958 79.9321 193.827 79.5971 194.832 79.325C195.837 79.0319 196.884 78.8853 197.972 78.8853ZM201.269 87.7724L198.789 87.8666C196.695 87.9503 195.24 88.2853 194.424 88.8715C193.628 89.4577 193.23 90.2846 193.23 91.3523C193.23 92.2944 193.513 92.9853 194.078 93.4249C194.664 93.8646 195.408 94.0844 196.308 94.0844C197.731 94.0844 198.914 93.6971 199.856 92.9225C200.798 92.127 201.269 90.9127 201.269 89.2797V87.7724ZM225.837 96H223.136V80.3299C223.136 79.4296 223.146 78.7074 223.167 78.163C223.188 77.6187 223.22 77.0535 223.261 76.4673C222.927 76.8022 222.623 77.0849 222.351 77.3152C222.079 77.5454 221.733 77.8385 221.314 78.1944L218.928 80.1414L217.483 78.2887L223.544 73.5782H225.837V96ZM261.543 79.1679V96H259.062V85.2601C259.062 84.8205 259.072 84.3599 259.093 83.8784C259.135 83.3969 259.177 82.9258 259.219 82.4653H259.125L253.629 96H251.305L245.967 82.4653H245.873C245.936 83.4074 245.967 84.3704 245.967 85.3543V96H243.486V79.1679H247.16L252.467 92.7027L257.869 79.1679H261.543ZM273.416 78.8539C274.861 78.8539 276.096 79.1679 277.122 79.796C278.168 80.4241 278.964 81.3138 279.508 82.4653C280.074 83.5958 280.356 84.9252 280.356 86.4535V88.1178H268.831C268.873 90.0229 269.355 91.478 270.276 92.4829C271.218 93.4668 272.526 93.9588 274.201 93.9588C275.269 93.9588 276.211 93.8646 277.028 93.6762C277.865 93.4668 278.723 93.1737 279.603 92.7969V95.2149C278.744 95.5918 277.896 95.8639 277.059 96.0314C276.222 96.2198 275.227 96.314 274.076 96.314C272.485 96.314 271.071 95.9895 269.836 95.3405C268.622 94.6915 267.669 93.7285 266.979 92.4514C266.309 91.1535 265.974 89.5728 265.974 87.7096C265.974 85.8673 266.277 84.2866 266.884 82.9677C267.512 81.6488 268.381 80.6334 269.491 79.9216C270.621 79.2098 271.93 78.8539 273.416 78.8539ZM273.385 81.1149C272.066 81.1149 271.019 81.5441 270.244 82.4025C269.491 83.2399 269.041 84.4123 268.894 85.9196H277.467C277.446 84.496 277.111 83.3446 276.462 82.4653C275.813 81.565 274.787 81.1149 273.385 81.1149ZM291.393 96.314C289.907 96.314 288.577 96.0105 287.405 95.4033C286.253 94.7962 285.343 93.8541 284.673 92.5771C284.024 91.3 283.699 89.667 283.699 87.6782C283.699 85.6056 284.045 83.9203 284.736 82.6223C285.426 81.3243 286.358 80.3717 287.53 79.7646C288.724 79.1575 290.074 78.8539 291.581 78.8539C292.44 78.8539 293.267 78.9481 294.062 79.1365C294.858 79.304 295.507 79.5134 296.009 79.7646L295.161 82.057C294.659 81.8686 294.073 81.6907 293.403 81.5232C292.733 81.3557 292.105 81.2719 291.519 81.2719C288.211 81.2719 286.557 83.3969 286.557 87.6468C286.557 89.6775 286.955 91.2372 287.75 92.3258C288.567 93.3935 289.77 93.9274 291.362 93.9274C292.283 93.9274 293.089 93.8332 293.78 93.6448C294.491 93.4563 295.14 93.2261 295.727 92.9539V95.4033C295.161 95.6964 294.533 95.9163 293.842 96.0628C293.172 96.2303 292.356 96.314 291.393 96.314ZM300.766 96H297.563L302.367 88.9343C301.718 88.7668 301.09 88.5051 300.483 88.1492C299.876 87.7724 299.384 87.2595 299.007 86.6105C298.63 85.9405 298.442 85.1136 298.442 84.1296C298.442 82.5176 298.986 81.2929 300.075 80.4555C301.164 79.5971 302.608 79.1679 304.409 79.1679H311.945V96H309.182V89.3111H305.099L300.766 96ZM301.111 84.161C301.111 85.1241 301.467 85.8463 302.179 86.3278C302.912 86.7884 303.927 87.0187 305.225 87.0187H309.182V81.4604H304.691C303.414 81.4604 302.493 81.7116 301.928 82.214C301.383 82.7165 301.111 83.3655 301.111 84.161ZM333.883 101.841H331.183V96H317.271V79.1679H320.035V93.6762H328.733V79.1679H331.497V93.7076H333.883V101.841Z" fill="black"></path> </svg> 