<?xml version="1.0" encoding="UTF-8"?> <svg xmlns="http://www.w3.org/2000/svg" width="72" height="73" viewBox="0 0 72 73" fill="none"> <g clip-path="url(#clip0)"> <rect y="0.44043" width="72" height="72" rx="36" fill="#6FC4E2"></rect> <path fill-rule="evenodd" clip-rule="evenodd" d="M18.7429 60.1915L12.6547 56.1162L16.7138 51.0232L10.4987 46.4381L16.2061 40.0716L8.08887 35.1052L15.8253 28.8652L18.7429 60.1915Z" fill="#0D1013"></path> <path d="M45.9381 71.0521C42.7815 71.9569 39.4473 72.4414 36 72.4414C29.5167 72.4414 23.4337 70.7276 18.1793 67.7283C18.048 65.4566 17.9085 62.9747 17.7646 60.4157C17.2334 50.9652 16.643 40.4621 16.1907 35.6055H16.1934C15.7556 30.9042 15.4473 27.8418 15.4473 27.8418C15.4473 27.8418 47.0294 34.0321 47.0294 48.9811C47.0294 49.1106 47.0266 49.2623 47.021 49.435C46.9659 52.2537 46.5188 63.813 45.9381 71.0521Z" fill="#FF5767"></path> <path fill-rule="evenodd" clip-rule="evenodd" d="M45.9382 71.0516C42.7815 71.9564 39.4473 72.441 35.9999 72.441C34.055 72.441 32.1461 72.2867 30.2848 71.9898C29.8518 60.3379 28.9782 45.418 28.9782 45.418C23.5964 43.8053 26.086 35.6045 36.2833 35.6045C36.4669 35.6045 36.6529 35.6072 36.8415 35.6126L36.8466 35.6127C42.4853 38.9026 47.0269 43.3119 47.0269 48.9808C47.0269 50.6427 46.5589 63.3147 45.9382 71.0516Z" fill="#FFC500"></path> <path fill-rule="evenodd" clip-rule="evenodd" d="M43.1655 52.6829C43.1655 52.6829 46.5591 52.8394 50.0133 52.6904C53.7681 52.5283 57.4473 51.7927 57.5771 52.0766C57.578 52.0785 58.74 45.3775 57.9037 35.7679C57.0684 26.1685 47.9675 26.0776 33.8536 26.8282C28.4561 27.115 15.5752 27.7194 15.5752 27.7194C15.5752 27.7194 17.7265 34.3791 21.1145 41.3631C26.4849 52.4355 43.1645 52.6848 43.1655 52.6829Z" fill="#FF5767"></path> <path fill-rule="evenodd" clip-rule="evenodd" d="M53.9225 23.981C56.0505 24.5038 57.108 27.2017 56.2848 30.0073C55.4616 32.8128 53.0685 34.6636 50.9405 34.1407C48.8125 33.6187 47.755 30.92 48.5782 28.1144C49.4014 25.3088 51.7945 23.4581 53.9225 23.981Z" fill="#FF5767"></path> <path fill-rule="evenodd" clip-rule="evenodd" d="M53.8929 26.5482C54.6386 26.9071 54.8281 28.1777 54.3157 29.3866C53.8042 30.5954 52.785 31.2841 52.0402 30.9252C51.2945 30.5663 51.105 29.2957 51.6165 28.0868C52.1279 26.878 53.1471 26.1893 53.8929 26.5482Z" fill="#0D1013"></path> <path fill-rule="evenodd" clip-rule="evenodd" d="M61.1045 28.3627C62.7089 29.4507 62.6193 32.0482 60.9038 34.1632C59.1893 36.2781 56.4985 37.1103 54.8941 36.0223C53.2897 34.9334 53.3793 32.3368 55.0947 30.2219C56.8093 28.1069 59.5001 27.2748 61.1045 28.3627Z" fill="#FF5767"></path> <path fill-rule="evenodd" clip-rule="evenodd" d="M59.8984 30.1789C60.4706 30.6662 60.3138 31.7288 59.5475 32.5535C58.7812 33.3781 57.6958 33.6517 57.1227 33.1654C56.5506 32.6781 56.7074 31.6145 57.4736 30.7899C58.2408 29.9653 59.3263 29.6917 59.8984 30.1789Z" fill="#0D1013"></path> <path fill-rule="evenodd" clip-rule="evenodd" d="M20.7515 10.438C22.0423 10.2712 23.0288 10.5945 23.2677 11.4191C23.5067 12.2438 22.6359 13.1134 21.8696 13.3814C21.1033 13.6494 19.2684 15.4654 18.7943 15.904C18.3211 16.3425 17.3112 16.3313 16.838 15.904C16.3648 15.4767 16.4273 14.5733 16.698 13.9417C17.3616 12.3928 18.8279 10.6873 20.7515 10.438Z" fill="#0D1013"></path> <path fill-rule="evenodd" clip-rule="evenodd" d="M35.5098 10.5018C34.2022 10.469 33.2511 10.8963 33.0981 11.749C32.9459 12.6027 33.9063 13.3851 34.6997 13.5744C35.493 13.7637 37.5155 15.3961 38.0345 15.7878C38.5534 16.1785 39.5614 16.0614 39.9898 15.5835C40.4182 15.1046 40.2614 14.2041 39.9245 13.5978C39.1003 12.1116 37.4577 10.5514 35.5098 10.5018Z" fill="#0D1013"></path> <path fill-rule="evenodd" clip-rule="evenodd" d="M22.0085 16.6025C26.3317 16.6025 29.8364 20.1156 29.8364 24.4505C29.8364 28.7844 26.3317 32.2975 22.0085 32.2975C17.6853 32.2975 14.1807 28.7844 14.1807 24.4505C14.1807 20.1156 17.6853 16.6025 22.0085 16.6025Z" fill="#6F568E"></path> <path fill-rule="evenodd" clip-rule="evenodd" d="M33.7458 15.8984C38.069 15.8984 41.5737 19.4124 41.5737 23.7483C41.5737 28.0831 38.069 31.5972 33.7458 31.5972C29.4226 31.5972 25.918 28.0831 25.918 23.7483C25.918 19.4124 29.4226 15.8984 33.7458 15.8984Z" fill="#6F568E"></path> <path fill-rule="evenodd" clip-rule="evenodd" d="M22.0082 19.4053C24.7867 19.4053 27.0398 21.6645 27.0398 24.4514C27.0398 27.2382 24.7867 29.4975 22.0082 29.4975C19.2296 29.4975 16.9766 27.2382 16.9766 24.4514C16.9766 21.6645 19.2296 19.4053 22.0082 19.4053Z" fill="white"></path> <path fill-rule="evenodd" clip-rule="evenodd" d="M22.0032 22.0713C23.3155 22.0713 24.3795 23.1377 24.3795 24.4533C24.3795 25.768 23.3155 26.8344 22.0032 26.8344C20.691 26.8344 19.627 25.768 19.627 24.4533C19.627 23.1377 20.691 22.0713 22.0032 22.0713Z" fill="#0D1013"></path> <path fill-rule="evenodd" clip-rule="evenodd" d="M33.7484 18.708C36.5269 18.708 38.78 20.9673 38.78 23.7541C38.78 26.541 36.5269 28.8002 33.7484 28.8002C30.9699 28.8002 28.7168 26.541 28.7168 23.7541C28.7168 20.9673 30.9699 18.708 33.7484 18.708Z" fill="white"></path> <path fill-rule="evenodd" clip-rule="evenodd" d="M33.7542 21.3672C35.0665 21.3672 36.1305 22.4336 36.1305 23.7492C36.1305 25.0639 35.0665 26.1303 33.7542 26.1303C32.4419 26.1303 31.3779 25.0639 31.3779 23.7492C31.3779 22.4336 32.4419 21.3672 33.7542 21.3672Z" fill="#0D1013"></path> <path fill-rule="evenodd" clip-rule="evenodd" d="M46.8151 52.75C43.5811 52.7218 38.2611 52.109 33.4535 50.4607C29.6791 49.1666 24.963 46.7864 23.9326 42.7945C23.8449 42.4544 23.4986 42.2491 23.1598 42.3382C22.821 42.4263 22.6166 42.7739 22.7053 43.1141C24.8006 51.231 39.5482 53.9391 46.7115 54.0187C46.7227 53.9531 46.8338 52.8155 46.8151 52.75Z" fill="white"></path> <path fill-rule="evenodd" clip-rule="evenodd" d="M24.2382 46.166L23.9424 51.9365L29.9334 50.3894L31.9812 55.6745L37.4216 52.8801L40.5912 57.5542L44.9984 53.7019L43.4005 53.1294L35.6352 51.7538L29.492 49.621L24.2382 46.166Z" fill="white"></path> </g> <defs> <clipPath id="clip0"> <rect width="72" height="72" fill="white" transform="translate(0 0.44043)"></rect> </clipPath> </defs> </svg> 