<?xml version="1.0" encoding="UTF-8"?> <svg xmlns="http://www.w3.org/2000/svg" width="480" height="320" viewBox="0 0 480 320" fill="none"> <path d="M229.02 225.01C229.02 236.34 226.69 247.12 222.5 256.91C218.55 266.13 212.94 274.46 206.04 281.54C204.79 282.82 203.5 284.06 202.16 285.26C202.16 285.26 202.15 285.27 202.14 285.27C202.11 285.3 202.09 285.32 202.07 285.33C201.85 285.53 201.63 285.73 201.41 285.92C201.26 286.05 201.1 286.19 200.95 286.32C194.4 291.98 186.94 296.61 178.81 299.95C176.71 300.81 174.57 301.59 172.39 302.28C171.37 302.6 170.34 302.9 169.3 303.19C168.99 303.27 168.67 303.36 168.36 303.44C165.52 304.18 162.62 304.76 159.67 305.19C159.3 305.24 158.93 305.29 158.55 305.34C155.37 305.75 152.12 305.98 148.84 306.01C148.56 306.02 148.28 306.02 148 306.02C147.56 306.02 147.12 306.02 146.68 306.01C143.39 305.96 140.15 305.71 136.97 305.27C136.6 305.22 136.23 305.17 135.85 305.12C133.11 304.71 130.42 304.16 127.78 303.47C127.26 303.34 126.74 303.2 126.22 303.06C125.21 302.78 124.2 302.48 123.2 302.16C121.05 301.47 118.94 300.69 116.87 299.83C108.78 296.46 101.36 291.82 94.85 286.16C94.61 285.95 94.37 285.74 94.13 285.53C93.92 285.34 93.71 285.15 93.5 284.97C93.48 284.95 93.47 284.94 93.45 284.92C93.39 284.87 93.32 284.81 93.27 284.75C92.15 283.72 91.05 282.66 89.99 281.57C83.01 274.41 77.34 265.96 73.38 256.62C69.28 246.9 67 236.22 67 225.01C67 180.27 103.27 144 148.01 144C192.75 144 229.02 180.27 229.02 225.01Z" fill="#72D4EA"></path> <path d="M103.17 270.549C103.17 277.039 99.8704 282.779 94.8704 286.149C94.6304 285.939 94.3904 285.729 94.1504 285.519C93.9404 285.329 93.7304 285.139 93.5204 284.959C93.5004 284.939 93.4904 284.929 93.4704 284.909C93.4104 284.859 93.3404 284.799 93.2904 284.739C92.1704 283.709 91.0704 282.649 90.0104 281.559C83.0304 274.399 77.3604 265.949 73.4004 256.609C76.4904 254.039 80.5604 252.539 85.1604 252.539C87.5804 252.539 91.3904 252.949 94.3704 253.719C94.9304 253.869 95.4604 254.019 95.9504 254.199C96.5804 254.419 97.1304 254.659 97.5804 254.909C98.9504 255.689 99.9804 256.629 100.75 257.729C102.93 260.789 103.16 265.009 103.17 269.869C103.17 270.099 103.17 270.319 103.17 270.549Z" fill="#EEB28A"></path> <path d="M222.5 256.909C218.55 266.129 212.94 274.459 206.04 281.539C204.79 282.819 203.5 284.059 202.16 285.259C202.16 285.259 202.15 285.269 202.14 285.269C202.11 285.299 202.09 285.319 202.07 285.329C201.85 285.529 201.63 285.729 201.41 285.919C201.26 286.049 201.1 286.189 200.95 286.319C195.79 282.969 192.38 277.159 192.38 270.539C192.38 270.309 192.38 270.079 192.38 269.849C192.39 264.989 192.61 260.779 194.79 257.719C195.56 256.629 196.59 255.689 197.93 254.919C198.4 254.649 198.97 254.409 199.63 254.179C200.07 254.029 200.55 253.879 201.05 253.749C204.05 252.959 207.93 252.529 210.39 252.529C215.17 252.539 219.36 254.159 222.5 256.909Z" fill="#EEB28A"></path> <path d="M93.2898 284.741C92.1698 283.711 91.0698 282.651 90.0098 281.561L92.5998 282.191C92.8698 283.041 93.0998 283.891 93.2898 284.741Z" fill="#EEB28A"></path> <path d="M124.35 299.37C124.26 300.31 123.68 301.27 123.22 302.16C121.07 301.47 118.96 300.69 116.89 299.83C116.96 299.76 117.02 299.69 117.09 299.62C117.09 299.62 117.1 299.61 117.11 299.59C117.13 299.56 117.15 299.54 117.17 299.51C117.25 299.4 117.36 299.24 117.41 299.15C117.49 299.02 117.67 298.61 117.67 298.61C118.03 297.77 118.24 296.83 118.68 296.18C119.21 295.39 120.07 295.02 121.89 295.72C123.16 296.21 123.85 296.81 124.16 297.6C124.37 298.1 124.41 298.68 124.35 299.37Z" fill="#EEB28A"></path> <path d="M146.689 306.011C143.399 305.961 140.159 305.711 136.979 305.271C136.609 305.221 136.239 305.171 135.859 305.121C133.119 304.711 130.429 304.161 127.789 303.471C127.269 303.341 126.749 303.201 126.229 303.061C126.209 302.751 126.219 302.421 126.269 302.081C126.499 300.281 126.969 298.791 127.589 297.591C129.799 293.301 133.869 292.641 135.479 294.221C136.809 295.511 138.269 296.601 139.689 297.591C140.749 298.341 141.789 299.031 142.719 299.721C144.789 301.251 146.359 302.771 146.639 304.821C146.679 305.201 146.699 305.601 146.689 306.011Z" fill="#EEB28A"></path> <path d="M136.98 305.27C136.61 305.22 136.24 305.17 135.86 305.12C135.85 304.73 135.76 304.33 135.59 303.93C135.38 303.41 135.08 302.9 134.74 302.4C134.51 302.06 134.26 301.73 134 301.4C134.48 301.63 134.93 301.91 135.33 302.26C135.74 302.62 136.1 303.03 136.4 303.51C136.7 303.99 136.91 304.55 136.97 305.16C136.98 305.2 136.98 305.24 136.98 305.27Z" fill="#D89C82"></path> <path d="M117.67 298.61C117.92 298.81 118.27 298.94 118.64 299.05C119.01 299.17 119.41 299.22 119.81 299.18C120.22 299.14 120.63 299.03 121.01 298.85C121.38 298.66 121.74 298.39 121.97 298C121.84 298.43 121.54 298.8 121.18 299.1C120.82 299.4 120.39 299.62 119.94 299.77C119.48 299.92 118.97 299.97 118.48 299.93C117.98 299.88 117.6 299.86 117.09 299.62C117.09 299.62 117.33 299.29 117.41 299.15C117.48 299.02 117.67 298.61 117.67 298.61Z" fill="#D89C82"></path> <path d="M169.31 303.19C169 303.27 168.68 303.36 168.37 303.44C165.53 304.18 162.63 304.76 159.68 305.19C159.31 305.24 158.94 305.29 158.56 305.34C155.38 305.75 152.13 305.98 148.85 306.01C148.84 305.6 148.85 305.2 148.91 304.82C149.19 302.77 150.78 301.24 152.86 299.7C153.78 299.02 154.81 298.33 155.86 297.59C157.27 296.6 158.73 295.51 160.07 294.22C161.69 292.65 165.76 293.31 167.97 297.59C168.59 298.79 169.06 300.28 169.29 302.08C169.32 302.47 169.33 302.84 169.31 303.19Z" fill="#EEB28A"></path> <path d="M178.81 299.959C176.71 300.819 174.57 301.599 172.39 302.289C171.92 301.369 171.29 300.359 171.2 299.369C171.14 298.679 171.18 298.099 171.38 297.589C171.69 296.799 172.39 296.199 173.65 295.709C175.47 294.999 176.33 295.379 176.86 296.159C177.31 296.819 177.52 297.759 177.87 298.599C177.87 298.599 178.06 299.009 178.14 299.139C178.22 299.279 178.46 299.599 178.46 299.599C178.56 299.719 178.68 299.829 178.8 299.929L178.81 299.959Z" fill="#EEB28A"></path> <path d="M206.04 281.539C204.79 282.819 203.5 284.059 202.16 285.259C202.16 285.259 202.15 285.269 202.14 285.269C202.14 285.239 202.15 285.219 202.15 285.199C202.35 284.199 202.61 283.189 202.94 282.179L206.04 281.539Z" fill="#EEB28A"></path> <path d="M161.541 301.389C161.301 301.699 161.061 302.009 160.851 302.319C160.491 302.849 160.171 303.379 159.951 303.919C159.781 304.349 159.681 304.779 159.681 305.179C159.311 305.229 158.941 305.279 158.561 305.329C158.561 305.269 158.561 305.209 158.571 305.149C158.631 304.539 158.831 303.969 159.141 303.499C159.461 302.989 159.851 302.549 160.291 302.189C160.671 301.869 161.091 301.599 161.541 301.389Z" fill="#D89C82"></path> <path d="M177.88 298.61C177.63 298.81 177.28 298.94 176.91 299.05C176.54 299.17 176.14 299.22 175.74 299.18C175.33 299.14 174.92 299.03 174.54 298.85C174.17 298.66 173.81 298.39 173.58 298C173.71 298.43 174.01 298.8 174.37 299.1C174.73 299.4 175.16 299.62 175.61 299.77C176.07 299.92 176.58 299.97 177.07 299.93C177.57 299.88 177.95 299.86 178.46 299.62C178.46 299.62 178.22 299.29 178.14 299.15C178.06 299.02 177.88 298.61 177.88 298.61Z" fill="#D89C82"></path> <path d="M177.47 182.79C177.47 174.36 173.37 171.82 173.37 171.82C172.95 175.91 170.23 176.61 170.23 176.61C172.44 166.1 163.84 163.07 163.84 163.07C163.84 163.07 165.23 165.76 163.57 168.05C163.57 168.05 157.9 153.34 137.83 155.99C137.83 155.99 142.28 158.23 140.05 163.04C140.05 163.04 137.27 158.34 128.26 160.37C128.26 160.37 130.59 165.72 126.97 170.99C126.97 170.99 125.68 170.13 125.46 166.37C125.46 166.37 118.59 171.56 117.69 181.81C117.07 188.92 120.65 205.73 120.65 205.73L174.6 203.83C174.59 203.83 177.47 192.16 177.47 182.79Z" fill="#FFD880"></path> <path d="M164.84 241.02H147.77H130.7L94.29 254.82L119.52 297.59H121.9H147.77H176.02L201.25 254.81L164.84 241.02Z" fill="#EEB28A"></path> <path d="M202.07 285.34C201.85 285.54 201.63 285.74 201.41 285.93C201.26 286.06 201.1 286.2 200.95 286.33C194.4 291.99 186.94 296.62 178.81 299.96C176.71 300.82 174.57 301.6 172.39 302.29C171.37 302.61 170.34 302.91 169.3 303.2C168.99 303.28 168.67 303.37 168.36 303.45C165.52 304.19 162.62 304.77 159.67 305.2C159.3 305.25 158.93 305.3 158.55 305.35C155.37 305.76 152.12 305.99 148.84 306.02C148.56 306.03 148.28 306.03 148 306.03C147.56 306.03 147.12 306.03 146.68 306.02C143.39 305.97 140.15 305.72 136.97 305.28C136.6 305.23 136.23 305.18 135.85 305.13C133.11 304.72 130.42 304.17 127.78 303.48C127.26 303.35 126.74 303.21 126.22 303.07C125.21 302.79 124.2 302.49 123.2 302.17C121.05 301.48 118.94 300.7 116.87 299.84C108.78 296.47 101.36 291.83 94.8502 286.17C94.6102 285.96 94.3702 285.75 94.1302 285.54C93.9202 285.35 93.7102 285.16 93.5002 284.98C93.4802 284.96 93.4702 284.95 93.4502 284.93C93.4602 281.32 93.6202 277.43 93.7902 273.2C94.0202 267.73 94.2702 261.67 94.2702 254.84L95.9202 254.21L101.11 252.24L107.9 249.67L110.57 248.66L110.82 248.56L111.63 248.25C111.63 248.25 110.96 274.66 138.28 279.63C138.52 279.68 138.77 279.72 139.02 279.76C139.49 279.84 139.96 279.91 140.44 279.97C142.69 280.27 145.12 280.43 147.74 280.43H147.88C150.45 280.43 152.84 280.26 155.05 279.97C155.52 279.91 155.98 279.84 156.43 279.76C156.44 279.76 156.45 279.76 156.45 279.76C156.69 279.72 156.93 279.68 157.17 279.63C184.52 274.67 183.86 248.24 183.86 248.24L187.24 249.52L194.72 252.35L199.58 254.19L201.21 254.81C201.25 267.35 202.11 277.07 202.07 285.34Z" fill="#9DDEED"></path> <path d="M202.16 285.261C202.16 285.261 202.15 285.271 202.14 285.271C202.11 285.301 202.09 285.321 202.07 285.331C201.85 285.531 201.63 285.731 201.41 285.921C198.34 278.721 196.6 270.711 195.63 264.341C195.24 261.831 194.97 259.571 194.79 257.721C194.48 254.541 194.41 252.561 194.41 252.561C194.41 252.561 194.54 252.471 194.77 252.341C195.45 251.971 197.05 251.331 198.88 252.061C200.21 252.591 200.8 253.281 201.05 253.761C201.25 254.131 201.25 254.381 201.25 254.381L202.15 285.201L202.16 285.261Z" fill="#5EBAD3"></path> <path d="M101.14 252.23C101.14 252.35 101.07 254.44 100.75 257.73C100.57 259.6 100.3 261.85 99.9098 264.35C98.9398 270.64 97.2098 278.45 94.1398 285.52C93.9298 285.33 93.7198 285.14 93.5098 284.96L93.8098 273.19L94.2898 254.05C94.2898 254.05 94.2898 253.93 94.3598 253.73C94.5198 253.27 95.0198 252.39 96.6698 251.73C99.1098 250.75 101.14 252.23 101.14 252.23Z" fill="#5EBAD3"></path> <path d="M170.43 250.42L166.63 225.01H147.77H138.82H128.91L125.11 250.42L147.77 259.83L170.43 250.42Z" fill="#EEB28A"></path> <path d="M127.08 237.221C127.08 237.221 130.91 244.381 147.77 244.381C164.63 244.381 168.46 237.221 168.46 237.221L167.2 228.801H128.39L127.08 237.221Z" fill="#DD9F7C"></path> <path d="M123.98 198.35C114.49 195.88 110.48 205.96 115.98 212.57C121.04 218.65 128.35 216.75 128.35 216.75L127.62 194.87L123.98 198.35Z" fill="#DD9F7C"></path> <path d="M171.57 198.35C181.06 195.88 185.07 205.96 179.57 212.57C174.51 218.65 167.2 216.75 167.2 216.75L167.93 194.87L171.57 198.35Z" fill="#DD9F7C"></path> <path d="M167.65 177.26C171.59 184.87 172.05 202.52 173.49 211.02C175.65 223.78 170.64 242.44 147.92 238.83C125.2 242.45 120.18 223.78 122.35 211.02C123.03 207 123.49 200.94 124.21 194.87C125.01 188.09 126.12 181.28 128.19 177.27C130.6 172.61 136.76 168.66 147.92 168.66C159.08 168.66 165.23 172.6 167.65 177.26Z" fill="#EEB28A"></path> <path d="M140.32 203.84C140.32 203.84 138.07 205.85 134.36 205.36C131.29 204.96 130.33 203.26 130.33 203.26C128.16 199.93 130.44 196.8 134.04 196.6C136.87 196.43 140.19 198.2 140.32 203.84Z" fill="white"></path> <path d="M139.911 199.74C139.581 198.18 137.981 197.18 136.341 197.51C136.331 197.51 136.331 197.51 136.321 197.52C136.531 197.73 136.681 197.99 136.751 198.3C136.931 199.16 136.371 200 135.481 200.17C134.921 200.28 134.371 200.1 133.991 199.74C133.901 200.12 133.891 200.53 133.981 200.93C134.311 202.49 135.911 203.49 137.551 203.16C139.191 202.83 140.251 201.3 139.911 199.74Z" fill="#633624"></path> <path d="M154.76 203.84C154.76 203.84 157.01 205.85 160.72 205.36C163.79 204.96 164.75 203.26 164.75 203.26C166.92 199.93 164.64 196.8 161.04 196.6C158.2 196.43 154.89 198.2 154.76 203.84Z" fill="white"></path> <path d="M162.29 197.51C161.87 197.43 161.45 197.43 161.05 197.51C161.26 197.72 161.42 197.99 161.48 198.29C161.66 199.15 161.1 199.99 160.21 200.16C159.65 200.27 159.09 200.09 158.72 199.72C158.72 199.73 158.72 199.73 158.72 199.73C158.39 201.29 159.44 202.82 161.08 203.15C162.72 203.48 164.32 202.48 164.65 200.92C164.99 199.37 163.93 197.84 162.29 197.51Z" fill="#633624"></path> <path d="M135.19 212.82C139.581 212.82 143.14 210.55 143.14 207.75C143.14 204.95 139.581 202.68 135.19 202.68C130.8 202.68 127.24 204.95 127.24 207.75C127.24 210.55 130.8 212.82 135.19 212.82Z" fill="#EEB28A"></path> <path d="M159.89 212.82C164.281 212.82 167.84 210.55 167.84 207.75C167.84 204.95 164.281 202.68 159.89 202.68C155.5 202.68 151.94 204.95 151.94 207.75C151.94 210.55 155.5 212.82 159.89 212.82Z" fill="#EEB28A"></path> <path d="M128.98 194.84C128.98 194.84 132.17 189.81 137.57 191.03C141.16 191.84 141.58 195.76 141.58 195.76C136.32 192.41 128.98 194.84 128.98 194.84Z" fill="#FFD880"></path> <path d="M166.85 194.84C166.85 194.84 163.66 189.81 158.26 191.03C154.67 191.84 154.25 195.76 154.25 195.76C159.51 192.41 166.85 194.84 166.85 194.84Z" fill="#FFD880"></path> <path d="M147.7 204.25C147.7 204.25 147.68 205.33 146.87 206.65C145.63 208.66 144.03 209.24 143.68 211.29C143.3 213.47 145.65 215.39 149.09 215.56C147.66 215 145.5 213.42 145.71 211.89C145.97 210.03 147.12 208.79 147.63 207.55C148.31 205.87 147.7 204.25 147.7 204.25Z" fill="#D89371"></path> <path d="M125.71 181.75C136.87 184.77 150.89 178 150.89 178C151.31 181.47 148.37 182.88 148.37 182.88C155.59 183.17 157.1 177.58 157.1 177.58C159.38 180.04 164.06 178.56 166.85 181.01C170.98 184.63 171.54 194.13 171.54 194.13L173.68 191.58L171.7 180.25L166.13 172.55C166.13 172.55 152.41 164.23 144.12 166.3C132.56 169.18 125.38 179.8 125.38 179.8L125.71 181.75Z" fill="#FFD880"></path> <path d="M111.75 248.2C112.03 252.19 113.48 262.2 120.82 269.71C127.01 276.04 136.02 279.25 147.59 279.25C159.18 279.25 168.2 276.03 174.39 269.68C181.83 262.06 183.21 251.95 183.46 248.07L187.28 249.52C186.81 254.54 184.88 264.54 177.19 272.42C170.23 279.55 160.27 283.17 147.58 283.17C134.89 283.17 124.94 279.55 117.98 272.42C110.36 264.61 108.41 254.72 107.92 249.66L111.75 248.2Z" fill="#5EBAD3"></path> <path d="M151.61 234.271C149.25 232.961 146.57 233.021 144.41 234.301C144.84 233.551 145.49 233.001 146.18 232.651C146.87 232.301 147.6 232.151 148.29 232.201C148.98 232.231 149.61 232.501 150.18 232.841C150.46 233.021 150.71 233.251 150.96 233.461C151.19 233.721 151.42 233.971 151.61 234.271Z" fill="#D89371"></path> <path d="M129.46 209.06C129.918 209.06 130.29 208.689 130.29 208.23C130.29 207.772 129.918 207.4 129.46 207.4C129.001 207.4 128.63 207.772 128.63 208.23C128.63 208.689 129.001 209.06 129.46 209.06Z" fill="#FFD880"></path> <path d="M135.269 210.07C135.728 210.07 136.099 209.699 136.099 209.24C136.099 208.782 135.728 208.41 135.269 208.41C134.811 208.41 134.439 208.782 134.439 209.24C134.439 209.699 134.811 210.07 135.269 210.07Z" fill="#FFD880"></path> <path d="M131.85 212.87C132.308 212.87 132.68 212.498 132.68 212.04C132.68 211.582 132.308 211.21 131.85 211.21C131.391 211.21 131.02 211.582 131.02 212.04C131.02 212.498 131.391 212.87 131.85 212.87Z" fill="#FFD880"></path> <path d="M165.609 209.06C166.068 209.06 166.439 208.689 166.439 208.23C166.439 207.772 166.068 207.4 165.609 207.4C165.151 207.4 164.779 207.772 164.779 208.23C164.779 208.689 165.151 209.06 165.609 209.06Z" fill="#FFD880"></path> <path d="M159.8 210.07C160.258 210.07 160.63 209.699 160.63 209.24C160.63 208.782 160.258 208.41 159.8 208.41C159.341 208.41 158.97 208.782 158.97 209.24C158.97 209.699 159.341 210.07 159.8 210.07Z" fill="#FFD880"></path> <path d="M163.229 212.87C163.688 212.87 164.059 212.498 164.059 212.04C164.059 211.582 163.688 211.21 163.229 211.21C162.771 211.21 162.399 211.582 162.399 212.04C162.399 212.498 162.771 212.87 163.229 212.87Z" fill="#FFD880"></path> <path d="M160.01 216.75C160.01 216.75 150.13 224.31 138.63 219.86C138.63 219.86 149.3 228.48 160.01 216.75Z" fill="#C67F66"></path> <path d="M169.38 239.82C164.26 259.05 147.93 283.67 147.6 284.15C147.28 283.68 131.73 260.44 126.12 241.48C125.61 241.55 125.03 241.81 124.45 243.06C130.35 262.68 145.81 284.72 146.59 286.41L146.58 286.45L147.5 288.68L147.52 288.64L147.54 288.68L148.46 286.45L148.45 286.41C149.23 284.72 164.84 262 170.78 242.42C170.4 241.02 169.92 240.37 169.38 239.82Z" fill="#403D56"></path> <path d="M152.56 291.11C152.56 288.76 150.92 286.8 148.73 286.29V282.24C148.73 281.83 148.39 281.49 147.98 281.49H147.23C146.82 281.49 146.48 281.83 146.48 282.24V286.29C144.28 286.8 142.65 288.76 142.65 291.11C142.65 291.57 142.72 292.01 142.83 292.43L145.73 303.38L149.58 302.59L149.07 295.85C151.09 295.21 152.56 293.33 152.56 291.11Z" fill="#FF5767"></path> <path d="M396.51 135.64H83.63C74.44 135.64 67 128.19 67 119.01V30.63C67 21.44 74.45 14 83.63 14H396.51C405.7 14 413.14 21.45 413.14 30.63V119.01C413.14 128.2 405.69 135.64 396.51 135.64Z" fill="white"></path> <path d="M174.41 159.06V134H199.47L174.41 159.06Z" fill="white"></path> <path d="M122.129 44.963L114.969 61.0099C114.299 62.4963 113.618 63.742 112.928 64.7469C112.258 65.7309 111.462 66.4741 110.541 66.9765C109.62 67.458 108.447 67.6988 107.024 67.6988C106.438 67.6988 105.883 67.6569 105.359 67.5732C104.857 67.4894 104.396 67.3743 103.978 67.2278V64.4329C104.396 64.6213 104.847 64.7783 105.328 64.9039C105.81 65.0086 106.312 65.0609 106.835 65.0609C108.008 65.0609 108.929 64.8097 109.599 64.3073C110.29 63.8048 110.928 62.9151 111.514 61.638L102.879 44.963H105.988L112.237 57.3044C112.341 57.5137 112.467 57.7859 112.614 58.1209C112.76 58.4349 112.886 58.7384 112.99 59.0315H113.116C113.2 58.8013 113.304 58.5291 113.43 58.2151C113.556 57.8801 113.66 57.6079 113.744 57.3986L119.145 44.963H122.129ZM126.603 50.5527V56.6763C126.603 58.6024 127.682 59.5654 129.838 59.5654C130.885 59.5654 131.837 59.4084 132.696 59.0943C133.554 58.7594 134.433 58.3197 135.333 57.7754V50.5527H138.097V67.3848H135.333V59.8794C134.391 60.4866 133.46 60.9681 132.539 61.324C131.638 61.6589 130.55 61.8264 129.273 61.8264C127.556 61.8264 126.216 61.3763 125.253 60.4761C124.311 59.5759 123.84 58.3721 123.84 56.8647V50.5527H126.603ZM149.945 50.2387C151.389 50.2387 152.624 50.5527 153.65 51.1808C154.697 51.8088 155.493 52.6986 156.037 53.85C156.602 54.9805 156.885 56.3099 156.885 57.8382V59.5026H145.36C145.402 61.4077 145.883 62.8627 146.804 63.8676C147.747 64.8516 149.055 65.3436 150.73 65.3436C151.798 65.3436 152.74 65.2494 153.556 65.0609C154.394 64.8516 155.252 64.5585 156.131 64.1816V66.5997C155.273 66.9765 154.425 67.2487 153.588 67.4162C152.75 67.6046 151.756 67.6988 150.604 67.6988C149.013 67.6988 147.6 67.3743 146.365 66.7253C145.151 66.0763 144.198 65.1133 143.507 63.8362C142.837 62.5382 142.502 60.9576 142.502 59.0943C142.502 57.252 142.806 55.6714 143.413 54.3525C144.041 53.0335 144.91 52.0182 146.019 51.3064C147.15 50.5946 148.458 50.2387 149.945 50.2387ZM149.913 52.4997C148.594 52.4997 147.548 52.9289 146.773 53.7872C146.019 54.6246 145.569 55.797 145.423 57.3044H153.996C153.975 55.8808 153.64 54.7293 152.991 53.85C152.342 52.9498 151.316 52.4997 149.913 52.4997ZM160.291 57.273C160.291 53.5883 160.845 50.7202 161.955 48.6685C163.065 46.5959 164.855 45.2979 167.325 44.7745C168.686 44.4814 170.015 44.2197 171.313 43.9895C172.611 43.7592 173.825 43.5498 174.956 43.3614L175.427 45.7794C174.694 45.8841 173.867 46.0202 172.946 46.1877C172.025 46.3342 171.114 46.4912 170.214 46.6587C169.314 46.8053 168.539 46.9518 167.89 47.0984C166.529 47.3915 165.451 48.1033 164.656 49.2338C163.86 50.3433 163.41 52.081 163.305 54.4467H163.494C163.787 54.0489 164.185 53.6407 164.687 53.222C165.21 52.8033 165.828 52.4474 166.54 52.1543C167.273 51.8612 168.1 51.7146 169.021 51.7146C171.198 51.7146 172.841 52.416 173.951 53.8186C175.061 55.2213 175.615 57.0427 175.615 59.2828C175.615 61.146 175.291 62.7057 174.642 63.9618C173.993 65.218 173.093 66.16 171.941 66.7881C170.79 67.3952 169.45 67.6988 167.922 67.6988C165.598 67.6988 163.745 66.809 162.363 65.0295C160.981 63.25 160.291 60.6645 160.291 57.273ZM168.141 65.4064C169.502 65.4064 170.601 64.9667 171.439 64.0874C172.276 63.2082 172.695 61.7008 172.695 59.5654C172.695 57.8487 172.37 56.4984 171.721 55.5144C171.093 54.5095 170.047 54.007 168.581 54.007C167.66 54.007 166.822 54.2164 166.069 54.6351C165.315 55.0329 164.687 55.4935 164.185 56.0168C163.682 56.5402 163.326 56.9799 163.117 57.3358C163.117 58.3616 163.19 59.356 163.337 60.3191C163.483 61.2821 163.734 62.1509 164.09 62.9255C164.467 63.6792 164.98 64.2863 165.629 64.7469C166.299 65.1865 167.136 65.4064 168.141 65.4064ZM182.732 50.5527V57.5556H191.871V50.5527H194.634V67.3848H191.871V59.8794H182.732V67.3848H179.969V50.5527H182.732ZM206.339 50.2701C208.39 50.2701 209.908 50.7202 210.892 51.6204C211.876 52.5206 212.368 53.9547 212.368 55.9226V67.3848H210.358L209.824 64.9981H209.699C208.966 65.9193 208.191 66.5997 207.375 67.0393C206.579 67.479 205.47 67.6988 204.046 67.6988C202.518 67.6988 201.251 67.301 200.246 66.5055C199.242 65.689 198.739 64.4224 198.739 62.7057C198.739 61.0309 199.399 59.7433 200.717 58.8431C202.036 57.922 204.067 57.4195 206.81 57.3358L209.667 57.2416V56.2367C209.667 54.834 209.364 53.8605 208.757 53.3162C208.15 52.7719 207.291 52.4997 206.182 52.4997C205.302 52.4997 204.465 52.6358 203.669 52.9079C202.874 53.1592 202.131 53.4523 201.44 53.7872L200.592 51.7146C201.325 51.3168 202.193 50.9819 203.198 50.7097C204.203 50.4166 205.25 50.2701 206.339 50.2701ZM209.636 59.1572L207.155 59.2514C205.062 59.3351 203.607 59.6701 202.79 60.2563C201.995 60.8425 201.597 61.6694 201.597 62.7371C201.597 63.6792 201.879 64.3701 202.445 64.8097C203.031 65.2494 203.774 65.4692 204.674 65.4692C206.098 65.4692 207.281 65.0819 208.223 64.3073C209.165 63.5117 209.636 62.2975 209.636 60.6645V59.1572ZM218.603 67.3848H215.4L220.205 60.3191C219.556 60.1516 218.927 59.8899 218.32 59.534C217.713 59.1572 217.221 58.6442 216.844 57.9952C216.468 57.3253 216.279 56.4984 216.279 55.5144C216.279 53.9024 216.823 52.6776 217.912 51.8402C219.001 50.9819 220.445 50.5527 222.246 50.5527H229.782V67.3848H227.019V60.6959H222.937L218.603 67.3848ZM218.948 55.5458C218.948 56.5088 219.304 57.2311 220.016 57.7126C220.749 58.1732 221.764 58.4035 223.062 58.4035H227.019V52.8451H222.528C221.251 52.8451 220.33 53.0964 219.765 53.5988C219.221 54.1013 218.948 54.7503 218.948 55.5458ZM253.315 43.5184V50.3015C254.99 50.448 256.445 50.8877 257.68 51.6204C258.936 52.3531 259.909 53.3371 260.6 54.5723C261.291 55.8075 261.637 57.273 261.637 58.9687C261.637 61.5019 260.893 63.5222 259.407 65.0295C257.941 66.5369 255.911 67.4057 253.315 67.636V74.9215H250.614V67.636C248.96 67.4894 247.505 67.0603 246.249 66.3485C244.993 65.6157 244.019 64.6318 243.329 63.3966C242.638 62.1404 242.292 60.6645 242.292 58.9687C242.292 56.4146 243.025 54.3839 244.49 52.8765C245.977 51.3692 248.049 50.5108 250.708 50.3015V43.5184H253.315ZM250.708 52.5939C248.782 52.7823 247.38 53.4209 246.5 54.5095C245.621 55.5772 245.181 57.0636 245.181 58.9687C245.181 60.8739 245.621 62.3707 246.5 63.4594C247.4 64.548 248.803 65.1865 250.708 65.375V52.5939ZM253.315 52.6253V65.375C255.199 65.1656 256.581 64.5166 257.46 63.428C258.339 62.3393 258.779 60.8529 258.779 58.9687C258.779 57.0845 258.329 55.6086 257.428 54.5409C256.549 53.4732 255.178 52.8347 253.315 52.6253ZM280.655 58.9373C280.655 61.7217 279.943 63.8781 278.519 65.4064C277.116 66.9347 275.211 67.6988 272.804 67.6988C271.317 67.6988 269.988 67.3638 268.816 66.6939C267.664 66.003 266.753 65.0086 266.083 63.7106C265.414 62.3917 265.079 60.8006 265.079 58.9373C265.079 56.1529 265.78 54.007 267.183 52.4997C268.585 50.9923 270.49 50.2387 272.898 50.2387C274.426 50.2387 275.766 50.5841 276.918 51.275C278.09 51.9449 279.001 52.9289 279.65 54.2269C280.32 55.5039 280.655 57.0741 280.655 58.9373ZM267.936 58.9373C267.936 60.9262 268.324 62.5068 269.098 63.6792C269.894 64.8306 271.15 65.4064 272.867 65.4064C274.562 65.4064 275.808 64.8306 276.604 63.6792C277.399 62.5068 277.797 60.9262 277.797 58.9373C277.797 56.9485 277.399 55.3888 276.604 54.2583C275.808 53.1278 274.552 52.5625 272.835 52.5625C271.118 52.5625 269.873 53.1278 269.098 54.2583C268.324 55.3888 267.936 56.9485 267.936 58.9373ZM293.042 50.2387C295.115 50.2387 296.779 50.9609 298.035 52.4055C299.312 53.85 299.951 56.0273 299.951 58.9373C299.951 61.8055 299.312 63.9828 298.035 65.4692C296.779 66.9556 295.104 67.6988 293.011 67.6988C291.713 67.6988 290.635 67.458 289.776 66.9765C288.939 66.4741 288.279 65.8984 287.798 65.2494H287.609C287.651 65.6053 287.693 66.0554 287.735 66.5997C287.777 67.144 287.798 67.6151 287.798 68.0128V74.9215H285.034V50.5527H287.295L287.672 52.8451H287.798C288.3 52.1124 288.96 51.4948 289.776 50.9923C290.593 50.4899 291.681 50.2387 293.042 50.2387ZM292.54 52.5625C290.823 52.5625 289.609 53.044 288.897 54.007C288.206 54.9701 287.84 56.4356 287.798 58.4035V58.9373C287.798 61.0099 288.133 62.6115 288.803 63.742C289.494 64.8516 290.76 65.4064 292.602 65.4064C293.628 65.4064 294.466 65.1237 295.115 64.5585C295.785 63.9932 296.277 63.2291 296.591 62.2661C296.926 61.2821 297.093 60.1621 297.093 58.9059C297.093 56.9799 296.716 55.4411 295.963 54.2897C295.23 53.1382 294.089 52.5625 292.54 52.5625ZM322.411 50.5527V67.3848H319.93V56.6449C319.93 56.2053 319.941 55.7447 319.962 55.2632C320.004 54.7817 320.046 54.3106 320.087 53.85H319.993L314.498 67.3848H312.174L306.835 53.85H306.741C306.804 54.7921 306.835 55.7552 306.835 56.7391V67.3848H304.355V50.5527H308.029L313.336 64.0874L318.737 50.5527H322.411ZM334.159 50.2701C336.211 50.2701 337.729 50.7202 338.712 51.6204C339.696 52.5206 340.188 53.9547 340.188 55.9226V67.3848H338.179L337.645 64.9981H337.519C336.786 65.9193 336.012 66.5997 335.195 67.0393C334.4 67.479 333.29 67.6988 331.867 67.6988C330.338 67.6988 329.072 67.301 328.067 66.5055C327.062 65.689 326.559 64.4224 326.559 62.7057C326.559 61.0309 327.219 59.7433 328.538 58.8431C329.857 57.922 331.888 57.4195 334.63 57.3358L337.488 57.2416V56.2367C337.488 54.834 337.184 53.8605 336.577 53.3162C335.97 52.7719 335.112 52.4997 334.002 52.4997C333.123 52.4997 332.285 52.6358 331.49 52.9079C330.694 53.1592 329.951 53.4523 329.26 53.7872L328.412 51.7146C329.145 51.3168 330.014 50.9819 331.019 50.7097C332.024 50.4166 333.07 50.2701 334.159 50.2701ZM337.456 59.1572L334.976 59.2514C332.882 59.3351 331.427 59.6701 330.61 60.2563C329.815 60.8425 329.417 61.6694 329.417 62.7371C329.417 63.6792 329.7 64.3701 330.265 64.8097C330.851 65.2494 331.594 65.4692 332.495 65.4692C333.918 65.4692 335.101 65.0819 336.043 64.3073C336.985 63.5117 337.456 62.2975 337.456 60.6645V59.1572ZM109.63 93.2387C111.556 93.2387 113.085 93.626 114.215 94.4006C115.367 95.1543 115.942 96.2429 115.942 97.6665C115.942 98.6923 115.66 99.5088 115.094 100.116C114.529 100.702 113.755 101.131 112.771 101.403V101.529C113.441 101.718 114.058 101.979 114.623 102.314C115.189 102.649 115.639 103.089 115.974 103.633C116.33 104.177 116.508 104.879 116.508 105.737C116.508 107.14 115.921 108.323 114.749 109.286C113.598 110.228 111.787 110.699 109.316 110.699C108.102 110.699 107.003 110.594 106.019 110.385C105.035 110.196 104.219 109.935 103.57 109.6V107.119C104.281 107.454 105.119 107.757 106.082 108.03C107.066 108.302 108.133 108.438 109.285 108.438C110.541 108.438 111.598 108.228 112.457 107.81C113.336 107.37 113.776 106.627 113.776 105.58C113.776 103.696 112.174 102.754 108.971 102.754H106.71V100.493H108.531C109.976 100.493 111.127 100.304 111.986 99.9275C112.865 99.5298 113.304 98.8598 113.304 97.9177C113.304 97.1222 112.97 96.5255 112.3 96.1278C111.651 95.73 110.708 95.5311 109.473 95.5311C108.552 95.5311 107.736 95.6253 107.024 95.8137C106.333 95.9812 105.569 96.2429 104.731 96.5988L103.758 94.4006C105.516 93.626 107.474 93.2387 109.63 93.2387ZM126.972 93.2701C129.024 93.2701 130.542 93.7202 131.526 94.6204C132.51 95.5206 133.002 96.9547 133.002 98.9226V110.385H130.992L130.458 107.998H130.332C129.6 108.919 128.825 109.6 128.008 110.039C127.213 110.479 126.103 110.699 124.68 110.699C123.151 110.699 121.885 110.301 120.88 109.505C119.875 108.689 119.373 107.422 119.373 105.706C119.373 104.031 120.032 102.743 121.351 101.843C122.67 100.922 124.701 100.42 127.443 100.336L130.301 100.242V99.2367C130.301 97.834 129.997 96.8605 129.39 96.3162C128.783 95.7719 127.925 95.4997 126.815 95.4997C125.936 95.4997 125.098 95.6358 124.303 95.9079C123.507 96.1592 122.764 96.4523 122.073 96.7872L121.225 94.7146C121.958 94.3168 122.827 93.9819 123.832 93.7097C124.837 93.4166 125.884 93.2701 126.972 93.2701ZM130.269 102.157L127.789 102.251C125.695 102.335 124.24 102.67 123.424 103.256C122.628 103.842 122.23 104.669 122.23 105.737C122.23 106.679 122.513 107.37 123.078 107.81C123.664 108.249 124.408 108.469 125.308 108.469C126.731 108.469 127.914 108.082 128.856 107.307C129.798 106.512 130.269 105.297 130.269 103.665V102.157ZM154.837 110.385H152.136V94.7146C152.136 93.8144 152.146 93.0921 152.167 92.5478C152.188 92.0035 152.22 91.4382 152.261 90.852C151.927 91.187 151.623 91.4696 151.351 91.6999C151.079 91.9302 150.733 92.2233 150.314 92.5792L147.928 94.5262L146.483 92.6734L152.544 87.963H154.837V110.385ZM190.543 93.5527V110.385H188.062V99.6449C188.062 99.2053 188.072 98.7447 188.093 98.2632C188.135 97.7817 188.177 97.3106 188.219 96.85H188.125L182.629 110.385H180.305L174.967 96.85H174.873C174.936 97.7921 174.967 98.7552 174.967 99.7391V110.385H172.486V93.5527H176.16L181.467 107.087L186.869 93.5527H190.543ZM202.416 93.2387C203.861 93.2387 205.096 93.5527 206.122 94.1808C207.168 94.8088 207.964 95.6986 208.508 96.85C209.074 97.9805 209.356 99.3099 209.356 100.838V102.503H197.831C197.873 104.408 198.355 105.863 199.276 106.868C200.218 107.852 201.526 108.344 203.201 108.344C204.269 108.344 205.211 108.249 206.028 108.061C206.865 107.852 207.723 107.558 208.603 107.182V109.6C207.744 109.977 206.896 110.249 206.059 110.416C205.222 110.605 204.227 110.699 203.076 110.699C201.485 110.699 200.071 110.374 198.836 109.725C197.622 109.076 196.669 108.113 195.979 106.836C195.309 105.538 194.974 103.958 194.974 102.094C194.974 100.252 195.277 98.6714 195.884 97.3525C196.512 96.0335 197.381 95.0182 198.491 94.3064C199.621 93.5946 200.93 93.2387 202.416 93.2387ZM202.385 95.4997C201.066 95.4997 200.019 95.9289 199.244 96.7872C198.491 97.6246 198.041 98.797 197.894 100.304H206.467C206.446 98.8808 206.111 97.7293 205.462 96.85C204.813 95.9498 203.787 95.4997 202.385 95.4997ZM220.393 110.699C218.907 110.699 217.577 110.395 216.405 109.788C215.253 109.181 214.343 108.239 213.673 106.962C213.024 105.685 212.699 104.052 212.699 102.063C212.699 99.9903 213.045 98.305 213.736 97.007C214.426 95.709 215.358 94.7565 216.53 94.1494C217.724 93.5422 219.074 93.2387 220.581 93.2387C221.44 93.2387 222.267 93.3329 223.062 93.5213C223.858 93.6888 224.507 93.8981 225.009 94.1494L224.161 96.4418C223.659 96.2534 223.073 96.0754 222.403 95.9079C221.733 95.7405 221.105 95.6567 220.519 95.6567C217.211 95.6567 215.557 97.7817 215.557 102.032C215.557 104.062 215.955 105.622 216.75 106.711C217.567 107.778 218.77 108.312 220.362 108.312C221.283 108.312 222.089 108.218 222.78 108.03C223.491 107.841 224.14 107.611 224.727 107.339V109.788C224.161 110.081 223.533 110.301 222.842 110.448C222.172 110.615 221.356 110.699 220.393 110.699ZM229.766 110.385H226.563L231.367 103.319C230.718 103.152 230.09 102.89 229.483 102.534C228.876 102.157 228.384 101.644 228.007 100.995C227.63 100.325 227.442 99.4984 227.442 98.5144C227.442 96.9024 227.986 95.6776 229.075 94.8402C230.164 93.9819 231.608 93.5527 233.409 93.5527H240.945V110.385H238.182V103.696H234.099L229.766 110.385ZM230.111 98.5458C230.111 99.5088 230.467 100.231 231.179 100.713C231.912 101.173 232.927 101.403 234.225 101.403H238.182V95.8451H233.691C232.414 95.8451 231.493 96.0964 230.928 96.5988C230.383 97.1013 230.111 97.7503 230.111 98.5458ZM262.883 116.226H260.183V110.385H246.271V93.5527H249.035V108.061H257.733V93.5527H260.497V108.092H262.883V116.226Z" fill="black"></path> </svg> 