<?xml version="1.0" encoding="UTF-8"?> <svg xmlns="http://www.w3.org/2000/svg" width="174" height="40" viewBox="0 0 174 40" fill="none"> <path d="M57.35 24V13.29H65.825V24H63.56V15.18H59.615V24H57.35ZM75.7868 19.89C75.7868 21.25 75.4268 22.3 74.7068 23.04C73.9968 23.78 73.0268 24.15 71.7968 24.15C71.0368 24.15 70.3568 23.985 69.7568 23.655C69.1668 23.325 68.7018 22.845 68.3618 22.215C68.0218 21.575 67.8518 20.8 67.8518 19.89C67.8518 18.53 68.2068 17.485 68.9168 16.755C69.6268 16.025 70.6018 15.66 71.8418 15.66C72.6118 15.66 73.2918 15.825 73.8818 16.155C74.4718 16.485 74.9368 16.965 75.2768 17.595C75.6168 18.215 75.7868 18.98 75.7868 19.89ZM70.1318 19.89C70.1318 20.7 70.2618 21.315 70.5218 21.735C70.7918 22.145 71.2268 22.35 71.8268 22.35C72.4168 22.35 72.8418 22.145 73.1018 21.735C73.3718 21.315 73.5068 20.7 73.5068 19.89C73.5068 19.08 73.3718 18.475 73.1018 18.075C72.8418 17.665 72.4118 17.46 71.8118 17.46C71.2218 17.46 70.7918 17.665 70.5218 18.075C70.2618 18.475 70.1318 19.08 70.1318 19.89ZM84.9689 24H82.7339V17.49H80.6789C80.5489 19.09 80.3739 20.38 80.1539 21.36C79.9439 22.33 79.6489 23.04 79.2689 23.49C78.8889 23.93 78.3789 24.15 77.7389 24.15C77.2189 24.15 76.7939 24.07 76.4639 23.91V22.125C76.6939 22.225 76.9339 22.275 77.1839 22.275C77.3639 22.275 77.5289 22.185 77.6789 22.005C77.8289 21.825 77.9689 21.5 78.0989 21.03C78.2389 20.56 78.3639 19.905 78.4739 19.065C78.5839 18.215 78.6839 17.13 78.7739 15.81H84.9689V24ZM89.5368 15.81V18.96H92.6568V15.81H94.8918V24H92.6568V20.625H89.5368V24H87.3018V15.81H89.5368ZM100.593 15.645C101.693 15.645 102.533 15.885 103.113 16.365C103.703 16.835 103.998 17.56 103.998 18.54V24H102.438L102.003 22.89H101.943C101.593 23.33 101.223 23.65 100.833 23.85C100.443 24.05 99.9085 24.15 99.2285 24.15C98.4985 24.15 97.8935 23.94 97.4135 23.52C96.9335 23.09 96.6935 22.435 96.6935 21.555C96.6935 20.685 96.9985 20.045 97.6085 19.635C98.2185 19.215 99.1335 18.985 100.353 18.945L101.778 18.9V18.54C101.778 18.11 101.663 17.795 101.433 17.595C101.213 17.395 100.903 17.295 100.503 17.295C100.103 17.295 99.7135 17.355 99.3335 17.475C98.9535 17.585 98.5735 17.725 98.1935 17.895L97.4585 16.38C97.8985 16.15 98.3835 15.97 98.9135 15.84C99.4535 15.71 100.013 15.645 100.593 15.645ZM101.778 20.205L100.908 20.235C100.188 20.255 99.6885 20.385 99.4085 20.625C99.1285 20.865 98.9885 21.18 98.9885 21.57C98.9885 21.91 99.0885 22.155 99.2885 22.305C99.4885 22.445 99.7485 22.515 100.068 22.515C100.548 22.515 100.953 22.375 101.283 22.095C101.613 21.805 101.778 21.4 101.778 20.88V20.205ZM107.531 24H105.116L107.321 20.76C106.901 20.59 106.526 20.315 106.196 19.935C105.876 19.545 105.716 19.015 105.716 18.345C105.716 17.525 106.026 16.9 106.646 16.47C107.266 16.03 108.061 15.81 109.031 15.81H112.841V24H110.606V20.955H109.376L107.531 24ZM107.906 18.36C107.906 18.7 108.041 18.97 108.311 19.17C108.581 19.36 108.931 19.455 109.361 19.455H110.606V17.385H109.076C108.676 17.385 108.381 17.485 108.191 17.685C108.001 17.875 107.906 18.1 107.906 18.36ZM126.334 17.955C126.334 18.395 126.194 18.77 125.914 19.08C125.644 19.39 125.239 19.59 124.699 19.68V19.74C125.269 19.81 125.724 20.005 126.064 20.325C126.414 20.645 126.589 21.055 126.589 21.555C126.589 22.025 126.464 22.445 126.214 22.815C125.974 23.185 125.589 23.475 125.059 23.685C124.529 23.895 123.834 24 122.974 24H119.074V15.81H122.974C123.614 15.81 124.184 15.88 124.684 16.02C125.194 16.15 125.594 16.37 125.884 16.68C126.184 16.99 126.334 17.415 126.334 17.955ZM124.069 18.135C124.069 17.635 123.674 17.385 122.884 17.385H121.309V19.005H122.629C123.099 19.005 123.454 18.94 123.694 18.81C123.944 18.67 124.069 18.445 124.069 18.135ZM124.279 21.435C124.279 21.115 124.154 20.885 123.904 20.745C123.654 20.595 123.279 20.52 122.779 20.52H121.309V22.455H122.824C123.244 22.455 123.589 22.38 123.859 22.23C124.139 22.07 124.279 21.805 124.279 21.435ZM131.883 15.66C133.013 15.66 133.908 15.985 134.568 16.635C135.228 17.275 135.558 18.19 135.558 19.38V20.46H130.278C130.298 21.09 130.483 21.585 130.833 21.945C131.193 22.305 131.688 22.485 132.318 22.485C132.848 22.485 133.328 22.435 133.758 22.335C134.188 22.225 134.633 22.06 135.093 21.84V23.565C134.693 23.765 134.268 23.91 133.818 24C133.378 24.1 132.843 24.15 132.213 24.15C131.393 24.15 130.668 24 130.038 23.7C129.408 23.39 128.913 22.925 128.553 22.305C128.193 21.685 128.013 20.905 128.013 19.965C128.013 19.005 128.173 18.21 128.493 17.58C128.823 16.94 129.278 16.46 129.858 16.14C130.438 15.82 131.113 15.66 131.883 15.66ZM131.898 17.25C131.468 17.25 131.108 17.39 130.818 17.67C130.538 17.95 130.373 18.385 130.323 18.975H133.458C133.448 18.475 133.318 18.065 133.068 17.745C132.818 17.415 132.428 17.25 131.898 17.25ZM141.93 15.66C142.85 15.66 143.595 16.02 144.165 16.74C144.735 17.45 145.02 18.5 145.02 19.89C145.02 21.28 144.725 22.34 144.135 23.07C143.545 23.79 142.79 24.15 141.87 24.15C141.28 24.15 140.81 24.045 140.46 23.835C140.11 23.615 139.825 23.37 139.605 23.1H139.485C139.565 23.52 139.605 23.92 139.605 24.3V27.6H137.37V15.81H139.185L139.5 16.875H139.605C139.825 16.545 140.12 16.26 140.49 16.02C140.86 15.78 141.34 15.66 141.93 15.66ZM141.21 17.445C140.63 17.445 140.22 17.625 139.98 17.985C139.75 18.345 139.625 18.895 139.605 19.635V19.875C139.605 20.665 139.72 21.275 139.95 21.705C140.19 22.125 140.62 22.335 141.24 22.335C141.75 22.335 142.125 22.125 142.365 21.705C142.615 21.275 142.74 20.66 142.74 19.86C142.74 18.25 142.23 17.445 141.21 17.445ZM150.192 24.15C148.972 24.15 148.027 23.815 147.357 23.145C146.697 22.465 146.367 21.4 146.367 19.95C146.367 18.95 146.537 18.135 146.877 17.505C147.217 16.875 147.687 16.41 148.287 16.11C148.897 15.81 149.597 15.66 150.387 15.66C150.947 15.66 151.432 15.715 151.842 15.825C152.262 15.935 152.627 16.065 152.937 16.215L152.277 17.94C151.927 17.8 151.597 17.685 151.287 17.595C150.987 17.505 150.687 17.46 150.387 17.46C149.227 17.46 148.647 18.285 148.647 19.935C148.647 20.755 148.797 21.36 149.097 21.75C149.407 22.14 149.837 22.335 150.387 22.335C150.857 22.335 151.272 22.275 151.632 22.155C151.992 22.025 152.342 21.85 152.682 21.63V23.535C152.342 23.755 151.982 23.91 151.602 24C151.232 24.1 150.762 24.15 150.192 24.15ZM156.727 15.81V19.05C156.727 19.22 156.717 19.43 156.697 19.68C156.687 19.93 156.672 20.185 156.652 20.445C156.642 20.705 156.627 20.935 156.607 21.135C156.587 21.335 156.572 21.475 156.562 21.555L160.342 15.81H163.027V24H160.867V20.73C160.867 20.46 160.877 20.165 160.897 19.845C160.917 19.515 160.937 19.21 160.957 18.93C160.987 18.64 161.007 18.42 161.017 18.27L157.252 24H154.567V15.81H156.727ZM166.608 24H164.193L166.398 20.76C165.978 20.59 165.603 20.315 165.273 19.935C164.953 19.545 164.793 19.015 164.793 18.345C164.793 17.525 165.103 16.9 165.723 16.47C166.343 16.03 167.138 15.81 168.108 15.81H171.918V24H169.683V20.955H168.453L166.608 24ZM166.983 18.36C166.983 18.7 167.118 18.97 167.388 19.17C167.658 19.36 168.008 19.455 168.438 19.455H169.683V17.385H168.153C167.753 17.385 167.458 17.485 167.268 17.685C167.078 17.875 166.983 18.1 166.983 18.36Z" fill="#1F1F1F"></path> <path fill-rule="evenodd" clip-rule="evenodd" d="M34.8981 0H5.10049C2.2818 0 0 2.27815 0 5.09234V34.8423C0 37.6565 2.2818 39.9346 5.10049 39.9346H34.8981C37.7168 39.9346 39.9986 37.6565 39.9986 34.8423V5.09234C40.0657 2.27815 37.7839 0 34.8981 0Z" fill="#6FC4E2"></path> <path fill-rule="evenodd" clip-rule="evenodd" d="M7.71784 36.984L3.35558 34.1028L6.24138 30.4845L1.7449 27.2013L5.83871 22.645L0 19.0938L5.57027 14.6045L7.71784 36.984Z" fill="#0D1013"></path> <path fill-rule="evenodd" clip-rule="evenodd" d="M27.1084 39.9979C27.6453 34.8386 28.048 30.3493 28.048 29.0092C28.048 18.2885 5.36426 13.8662 5.36426 13.8662C5.36426 13.8662 6.84071 28.3392 7.57894 39.9979" fill="#FF5767"></path> <path fill-rule="evenodd" clip-rule="evenodd" d="M29.325 40.0001L29.6606 29.3464C29.6606 29.3464 31.2712 19.6977 20.7347 19.4297C13.084 19.2287 11.1377 25.2591 15.0973 26.4652C15.0973 26.4652 15.5 33.0986 15.8356 40.0001" fill="#FFC500"></path> <path fill-rule="evenodd" clip-rule="evenodd" d="M25.2964 31.6228C25.2964 31.6228 27.7124 31.7568 30.1956 31.6228C32.88 31.4888 35.5645 30.9528 35.6316 31.1538C35.6316 31.1538 36.437 26.3965 35.833 19.495C35.229 12.6606 28.7191 12.5936 18.5181 13.1296C14.6257 13.3306 5.36426 13.7996 5.36426 13.7996C5.36426 13.7996 6.90783 18.5569 9.32385 23.5823C13.2834 31.4888 25.2964 31.6228 25.2964 31.6228Z" fill="#FF5767"></path> <path fill-rule="evenodd" clip-rule="evenodd" d="M33.0202 11.1211C34.5637 11.5232 35.302 13.3993 34.698 15.4094C34.0939 17.4195 32.4162 18.7596 30.8726 18.3576C29.329 17.9556 28.5908 16.0795 29.1948 14.0693C29.7988 12.0592 31.4766 10.7191 33.0202 11.1211Z" fill="#FF5767"></path> <path fill-rule="evenodd" clip-rule="evenodd" d="M33.0173 12.9292C33.5542 13.1973 33.6884 14.0683 33.3528 14.9394C33.0173 15.8104 32.279 16.2795 31.7421 16.0114C31.2052 15.7434 31.071 14.8724 31.4066 14.0013C31.7421 13.1973 32.4804 12.7282 33.0173 12.9292Z" fill="#0D1013"></path> <path fill-rule="evenodd" clip-rule="evenodd" d="M38.1871 14.2685C39.328 15.0726 39.2609 16.8817 38.0529 18.4228C36.8449 19.9639 34.8986 20.4999 33.7577 19.7629C32.6168 18.9588 32.6839 17.1497 33.892 15.6086C35.1 14.0675 37.0462 13.4645 38.1871 14.2685Z" fill="#FF5767"></path> <path fill-rule="evenodd" clip-rule="evenodd" d="M37.3139 15.5442C37.7166 15.8792 37.5823 16.6833 37.0454 17.2193C36.5085 17.8224 35.7032 18.0234 35.3005 17.6883C34.8979 17.3533 35.0321 16.5493 35.569 16.0132C36.1059 15.4102 36.9112 15.2092 37.3139 15.5442Z" fill="#0D1013"></path> <path fill-rule="evenodd" clip-rule="evenodd" d="M9.19578 1.40329C10.1353 1.26928 10.8065 1.5373 11.0078 2.07333C11.2091 2.67637 10.538 3.27941 10.0011 3.48043C9.39712 3.74845 8.122 5.02153 7.78644 5.35655C7.45088 5.62457 6.71265 5.62457 6.37709 5.35655C6.04154 5.02153 6.04154 4.41849 6.24287 3.94946C6.71265 2.81038 7.78644 1.6043 9.19578 1.40329Z" fill="#0D1013"></path> <path fill-rule="evenodd" clip-rule="evenodd" d="M19.7961 1.47266C18.8565 1.47266 18.1854 1.74067 18.0512 2.34371C17.9169 2.94675 18.6552 3.48279 19.1921 3.6168C19.729 3.75081 21.2054 4.88988 21.6081 5.2249C22.0108 5.49292 22.6819 5.42592 23.0174 5.0909C23.353 4.75587 23.2188 4.08583 22.9503 3.6838C22.3463 2.61173 21.2054 1.53966 19.7961 1.47266Z" fill="#0D1013"></path> <path fill-rule="evenodd" clip-rule="evenodd" d="M10.0641 5.82617C13.1513 5.82617 15.7015 8.30534 15.7015 11.4545C15.7015 14.6038 13.1513 17.0829 10.0641 17.0829C6.977 17.0829 4.42676 14.6038 4.42676 11.4545C4.42676 8.30534 6.977 5.82617 10.0641 5.82617Z" fill="#6F568E"></path> <path fill-rule="evenodd" clip-rule="evenodd" d="M18.5153 5.35938C21.6024 5.35938 24.1527 7.90554 24.1527 10.9877C24.1527 14.07 21.6024 16.6161 18.5153 16.6161C15.4282 16.6161 12.8779 14.07 12.8779 10.9877C12.8779 7.83854 15.4282 5.35938 18.5153 5.35938Z" fill="#6F568E"></path> <path fill-rule="evenodd" clip-rule="evenodd" d="M10.0674 7.83691C12.0807 7.83691 13.6914 9.44502 13.6914 11.4552C13.6914 13.4653 12.0807 15.0734 10.0674 15.0734C8.05404 15.0734 6.44336 13.4653 6.44336 11.4552C6.44336 9.44502 8.05404 7.83691 10.0674 7.83691Z" fill="white"></path> <path fill-rule="evenodd" clip-rule="evenodd" d="M10.0674 9.77832C11.007 9.77832 11.7452 10.5154 11.7452 11.4534C11.7452 12.3915 11.007 13.1285 10.0674 13.1285C9.12788 13.1285 8.38965 12.3915 8.38965 11.4534C8.38965 10.5154 9.12788 9.77832 10.0674 9.77832Z" fill="#0D1013"></path> <path fill-rule="evenodd" clip-rule="evenodd" d="M18.5195 7.36719C20.5329 7.36719 22.1436 8.97529 22.1436 10.9854C22.1436 12.9956 20.5329 14.6037 18.5195 14.6037C16.5062 14.6037 14.8955 12.9956 14.8955 10.9854C14.8955 8.97529 16.5062 7.36719 18.5195 7.36719Z" fill="white"></path> <path fill-rule="evenodd" clip-rule="evenodd" d="M18.5245 9.24414C19.464 9.24414 20.2023 9.98119 20.2023 10.9193C20.2023 11.8573 19.464 12.5944 18.5245 12.5944C17.5849 12.5944 16.8467 11.8573 16.8467 10.9193C16.7796 9.98119 17.5849 9.24414 18.5245 9.24414Z" fill="#0D1013"></path> <path d="M27.913 31.6899C25.5641 31.6899 21.7387 31.2209 18.316 30.0818C15.6315 29.1437 12.2088 27.4686 11.4706 24.5874C11.4035 24.3194 11.135 24.1854 10.9337 24.2524C10.6653 24.3194 10.531 24.5874 10.5982 24.7885C12.0746 30.6178 22.6783 32.561 27.8459 32.561C27.8459 32.561 27.913 31.7569 27.913 31.6899Z" fill="white"></path> <path fill-rule="evenodd" clip-rule="evenodd" d="M11.6779 26.999L11.4766 31.0863L15.7717 30.0142L17.2482 33.7665L21.1406 31.7563L23.4224 35.1066L26.5767 32.3594L25.4358 31.9574L19.8655 30.9523L15.4362 29.4782L11.6779 26.999Z" fill="white"></path> </svg> 