<?xml version="1.0" encoding="UTF-8"?> <svg xmlns="http://www.w3.org/2000/svg" width="70" height="70" viewBox="0 0 70 70" fill="none"> <circle cx="34.5" cy="35.5" r="34.5" fill="#49BBED"></circle> <path d="M10 59.7899V7.33858C10 4.44354 12.3557 2.09668 15.2617 2.09668H55.2509C58.1568 2.09668 60.5125 4.44354 60.5125 7.33858V58.1634C54.1879 65.4166 44.8792 70 34.5 70C24.9197 70 16.2514 66.095 10 59.7899Z" fill="#F5B97D"></path> <path d="M45.5241 62.9029H16.3137C15.1512 62.9029 14.209 61.9641 14.209 60.8062V50.3223H56.303V52.5989C56.303 53.155 56.0812 53.6883 55.6866 54.0816L47.7565 61.9818C47.1644 62.5716 46.3614 62.9029 45.5241 62.9029Z" fill="#E3AA75"></path> <path d="M55.2506 6.29004H15.2613C14.6801 6.29004 14.209 6.75939 14.209 7.33842V59.7579C14.209 60.3368 14.6801 60.8063 15.2613 60.8063H45.7792L56.3028 50.322V7.33842C56.3029 6.75939 55.8317 6.29004 55.2506 6.29004Z" fill="white"></path> <path d="M48.9359 32.5001H21.5748C20.9936 32.5001 20.5225 32.0307 20.5225 31.4517C20.5225 30.8727 20.9936 30.4033 21.5748 30.4033H48.9359C49.5171 30.4033 49.9882 30.8727 49.9882 31.4517C49.9882 32.0307 49.5171 32.5001 48.9359 32.5001Z" fill="#6F6571"></path> <path d="M48.9359 21.42H21.5748C20.9936 21.42 20.5225 20.9507 20.5225 20.3716C20.5225 19.7926 20.9936 19.3232 21.5748 19.3232H48.9359C49.5171 19.3232 49.9882 19.7926 49.9882 20.3716C49.9882 20.9507 49.5171 21.42 48.9359 21.42Z" fill="#6F6571"></path> <path d="M48.9359 16.2501H21.5748C20.9936 16.2501 20.5225 15.7807 20.5225 15.2017C20.5225 14.6227 20.9936 14.1533 21.5748 14.1533H48.9359C49.5171 14.1533 49.9882 14.6227 49.9882 15.2017C49.9882 15.7807 49.5171 16.2501 48.9359 16.2501Z" fill="#6F6571"></path> <path d="M43.9359 37.7423H21.5748C20.9936 37.7423 20.5225 37.2729 20.5225 36.6939C20.5225 36.1149 20.9936 35.6455 21.5748 35.6455H43.9359C44.5171 35.6455 44.9882 36.1149 44.9882 36.6939C44.9882 37.2729 44.5171 37.7423 43.9359 37.7423Z" fill="#5D5360"></path> <path d="M41.6741 42.9844H21.5748C20.9936 42.9844 20.5225 42.5151 20.5225 41.9361C20.5225 41.357 20.9936 40.8877 21.5748 40.8877H41.6741C42.2553 40.8877 42.7264 41.357 42.7264 41.9361C42.7264 42.515 42.2553 42.9844 41.6741 42.9844Z" fill="#6F6571"></path> <path d="M39.4647 48.2257H21.5748C20.9936 48.2257 20.5225 47.7563 20.5225 47.1773C20.5225 46.5983 20.9936 46.1289 21.5748 46.1289H39.4647C40.0459 46.1289 40.517 46.5983 40.517 47.1773C40.517 47.7563 40.0459 48.2257 39.4647 48.2257Z" fill="#5D5360"></path> <path d="M42.6227 7.33866H27.8898C26.7274 7.33866 25.7852 6.39984 25.7852 5.2419V2.09676C25.7852 0.938819 26.7275 0 27.8898 0H42.6227C43.7852 0 44.7274 0.938819 44.7274 2.09676V5.2419C44.7274 6.39997 43.7852 7.33866 42.6227 7.33866Z" fill="#DBD9DC"></path> <path d="M46.8316 50.3223C46.2504 50.3223 45.7793 50.7916 45.7793 51.3706V60.8062L56.3028 50.3223H46.8316V50.3223Z" fill="#EDEBED"></path> <path d="M42.6227 5.24227H27.8898C26.7275 5.24227 25.7852 4.30345 25.7852 3.14551V5.24227C25.7852 6.40021 26.7275 7.33903 27.8898 7.33903H42.6227C43.785 7.33903 44.7274 6.40021 44.7274 5.24227V3.14551C44.7274 4.30358 43.7852 5.24227 42.6227 5.24227Z" fill="#C9C6CA"></path> <path d="M47.8865 45.3609L43.8699 48.4738C43.4528 48.7971 42.8722 48.374 43.0552 47.8802L44.8174 43.1247C44.9867 42.6675 45.2193 42.2361 45.5081 41.8428L66.212 13.6517C66.5554 13.1841 67.2139 13.082 67.6827 13.4236L69.3806 14.6608C69.8495 15.0024 69.9512 15.6584 69.6078 16.126L48.9038 44.3171C48.6149 44.7104 48.2725 45.0617 47.8865 45.3609Z" fill="#4DE19B"></path> <path d="M67.6834 13.4236C67.2145 13.082 66.5561 13.1841 66.2127 13.6517L45.5088 41.8428C45.2199 42.2361 44.9875 42.6676 44.8181 43.1248L43.0559 47.8803C42.9603 48.1385 43.075 48.3742 43.2643 48.4972L68.5557 14.0595L67.6834 13.4236Z" fill="#30C17C"></path> <path d="M45.5081 41.8425C45.2192 42.2358 44.9868 42.6673 44.8174 43.1244L43.0552 47.88C42.8722 48.3738 43.4528 48.7969 43.8699 48.4736L47.8865 45.3607C48.2726 45.0615 48.6149 44.7101 48.9038 44.3167L49.0901 44.063L45.6945 41.5889L45.5081 41.8425Z" fill="#FFEDB1"></path> <path d="M67.7423 18.6656L69.6076 16.1258C69.9509 15.6583 69.8492 15.0023 69.3804 14.6607L67.6826 13.4236C67.2138 13.082 66.5553 13.1841 66.2119 13.6517L64.3467 16.1915L67.7423 18.6656Z" fill="#FF8087"></path> <path d="M67.6826 13.4236C67.2138 13.082 66.5553 13.1841 66.2119 13.6517L64.3467 16.1915L66.0681 17.4456L68.5551 14.0593L67.6826 13.4236Z" fill="#E6646E"></path> <path d="M43.9779 45.3906L43.0552 47.8806C42.8722 48.3744 43.4528 48.7975 43.8699 48.4742L45.9728 46.8444L43.9779 45.3906Z" fill="#5D5360"></path> </svg> 