<?xml version="1.0" encoding="UTF-8"?> <svg xmlns="http://www.w3.org/2000/svg" width="79" height="79" viewBox="0 0 79 79" fill="none"> <path d="M2.46875 20.9846L39.5 39.5002L76.5312 20.9846V60.4846L39.5 78.9999L2.46875 60.4843V20.9846Z" fill="#679D37"></path> <path d="M2.46875 24.6875V36.2288L39.3765 54.3124L76.5311 36.1671V24.6875L39.5 42.833L2.46875 24.6875Z" fill="#4F7D26"></path> <path d="M39.5 78.9999V39.5002L4.93752 22.219H2.46875V60.4846L39.5 78.9999Z" fill="#528525"></path> <path d="M2.46875 24.6875V36.2288L39.3765 54.3124L39.5 54.2507V42.7711V42.8328L2.46875 24.6875Z" fill="#436B1F"></path> <path d="M0 19.6892L39.5 0.000976562L79 19.6892V22.2815L39.5 41.9694L0 22.3431V19.6892Z" fill="#87C94D"></path> <path d="M62.1506 6.23365C60.8545 3.88836 58.0771 2.46875 54.806 2.46875C47.3381 2.46875 42.092 9.44302 39.4998 13.8868C36.9075 9.44302 31.5998 2.53049 24.1935 2.53049C19.4412 2.53049 16.0466 5.4313 16.0466 9.38127C16.0466 16.4171 23.7615 20.9844 39.2528 20.9844C54.7441 20.9844 62.9528 15.1212 62.9528 9.44302C62.9529 8.33212 62.7061 7.22122 62.1506 6.23365ZM25.7984 13.8252C24.0702 12.6525 23.4531 11.3564 23.4531 10.4923C23.4531 9.44317 24.4407 8.64083 25.8601 8.64083C29.193 8.64083 31.8468 13.0228 33.328 16.0471C29.4398 15.7384 27.1561 14.6891 25.7984 13.8252ZM53.2013 13.8252C51.8435 14.6893 49.5599 15.7384 45.6717 16.047C47.0912 13.0228 49.7452 8.64067 53.1396 8.64067C54.5591 8.64067 55.5466 9.44302 55.5466 10.4922C55.5468 11.3564 54.9295 12.6524 53.2013 13.8252Z" fill="#EFEFEF"></path> <path d="M0 19.7502L39.5 39.0682L79 19.7502V32.526L39.3765 51.8439L0 32.526V19.7502Z" fill="#74B040"></path> <path d="M54.3123 33.5134V32.0939L39.4999 24.0705L24.6874 32.0939V33.5134L14.8125 29.1931V27.2181L39.0061 14.4424L39.4999 14.6892L39.9937 14.4424L64.1873 27.1564V29.1314L54.3123 33.5134Z" fill="#EFEFEF"></path> <path d="M54.3125 32.0938V71.532L64.1874 66.5945V27.1562L54.3125 32.0938Z" fill="#DCDCDC"></path> <path d="M14.8125 66.6561L24.6874 71.5936V32.1555L14.8125 27.1563C14.8125 27.1561 14.8125 66.6561 14.8125 66.6561Z" fill="#D1D1D1"></path> </svg> 