<?xml version="1.0" encoding="UTF-8"?> <svg xmlns="http://www.w3.org/2000/svg" width="1440" height="680" viewBox="0 0 1440 680" fill="none"> <g clip-path="url(#clip0)"> <rect width="1440" height="680" fill="white"></rect> <rect y="200" width="1440" height="480" fill="#E1F9FF"></rect> <path d="M1264.59 637.811C1277.25 628.951 1284.5 614.451 1283.13 599.901C1281.37 581.191 1265.64 565.231 1244.95 562.541C1244.5 558.351 1241.77 536.681 1223.13 522.661C1205.22 509.191 1179.77 508.181 1158.52 520.141C1143.23 483.071 1107.79 458.061 1067.81 456.121C1027.56 454.171 989.665 475.941 970.995 511.741C945.645 500.861 916.395 506.011 897.155 524.611C875.815 545.251 870.785 578.611 885.405 605.761C883.615 606.681 861.065 618.781 858.275 644.521C856.035 665.201 868.175 679.701 870.305 682.161C1001.73 667.381 1133.16 652.591 1264.59 637.811Z" fill="#B9F0F9"></path> <path d="M1637.59 614.811C1650.25 605.951 1657.5 591.451 1656.13 576.901C1654.37 558.191 1638.64 542.231 1617.95 539.541C1617.5 535.351 1614.77 513.681 1596.13 499.661C1578.22 486.191 1552.77 485.181 1531.52 497.141C1516.23 460.071 1480.79 435.061 1440.81 433.121C1400.56 431.171 1362.66 452.941 1343.99 488.741C1318.64 477.861 1289.39 483.011 1270.15 501.611C1248.81 522.251 1243.78 555.611 1258.4 582.761C1256.61 583.681 1234.06 595.781 1231.27 621.521C1229.03 642.201 1241.17 656.701 1243.3 659.161C1374.73 644.381 1506.16 629.591 1637.59 614.811Z" fill="#B9F0F9"></path> <path d="M-36 291C13.4208 291 56.143 262.32 76.4303 220.695C84.7322 225.347 94.3064 228 104.5 228C106.799 228 109.066 227.865 111.294 227.603C111.099 230.543 111 233.51 111 236.5C111 309.678 170.322 369 243.5 369C310.336 369 365.614 319.514 374.693 255.183C388.911 284.661 419.081 305 454 305C495.378 305 530.087 276.441 539.489 237.959C540.156 237.986 540.826 238 541.5 238C552.563 238 562.761 234.296 570.922 228.06C585.866 262.73 620.349 287 660.5 287C671.833 287 682.715 285.066 692.833 281.511C710.2 327.385 754.541 360 806.5 360C856.708 360 899.804 329.545 918.321 286.101C935.705 302.176 958.955 312 984.5 312C1015.8 312 1043.66 297.248 1061.5 274.317C1079.34 297.248 1107.2 312 1138.5 312C1169.8 312 1197.66 297.248 1215.5 274.317C1233.34 297.248 1261.2 312 1292.5 312C1301.14 312 1309.52 310.876 1317.5 308.765C1325.48 310.876 1333.86 312 1342.5 312C1396.35 312 1440 268.348 1440 214.5C1440 213.998 1440 213.498 1439.99 212.998C1469.31 212.735 1493 188.884 1493 159.5C1493 129.953 1469.05 106 1439.5 106C1420.18 106 1403.25 116.244 1393.84 131.598C1378.93 122.344 1361.34 117 1342.5 117C1333.86 117 1325.48 118.124 1317.5 120.235C1309.52 118.124 1301.14 117 1292.5 117C1261.2 117 1233.34 131.752 1215.5 154.683C1197.66 131.752 1169.8 117 1138.5 117C1107.2 117 1079.34 131.752 1061.5 154.683C1043.66 131.752 1015.8 117 984.5 117C949.56 117 918.912 135.379 901.698 162.996C879.44 134.971 845.069 117 806.5 117C782.715 117 760.526 123.835 741.79 135.647C724.329 109.341 694.44 92 660.5 92C620.349 92 585.866 116.27 570.922 150.94C562.761 144.704 552.563 141 541.5 141C530.452 141 520.266 144.694 512.112 150.915C496.611 137.274 476.272 129 454 129C430.724 129 409.559 138.037 393.821 152.793C387.587 143.851 377.227 138 365.5 138C356.268 138 347.882 141.627 341.69 147.533C317.448 120.794 282.435 104 243.5 104C208.532 104 176.728 117.546 153.049 139.676C142.845 123.639 124.915 113 104.5 113C95.6204 113 87.2108 115.013 79.7028 118.607C61.0314 73.0717 16.2611 41 -36 41C-105.036 41 -161 96.9644 -161 166C-161 235.036 -105.036 291 -36 291Z" fill="#E1F9FF"></path> <path d="M967.63 551.809C964.35 547.739 958.52 546.799 954.12 549.629L901.77 587.099C899.06 588.849 895.55 588.699 893 586.729C891.49 585.559 890.75 585.019 887.92 582.629C884.54 579.769 879.79 580.579 876.06 583.049L793 636.949L954.64 700.179L1079.48 681.149L967.63 551.809Z" fill="#89DAE8"></path> <path d="M1.58204e-05 629.516C66.375 629.446 164.813 629.307 267.609 629.098C327.516 628.959 527.344 620.406 770.203 625.761C1037.53 631.671 1307.81 655.592 1440 667.9V680H1.58204e-05V629.516Z" fill="#69CC91"></path> <path d="M979.673 648.391C977.573 642.371 972.553 638.121 966.683 636.791C966.643 635.421 966.423 634.031 966.013 632.661C963.453 624.011 954.373 619.071 945.723 621.631C943.943 622.161 942.313 622.971 940.883 623.991C940.853 623.281 940.743 622.561 940.533 621.841C939.133 617.121 934.183 614.431 929.463 615.821C926.503 616.701 924.343 618.981 923.483 621.721C919.023 612.971 909.323 608.381 900.253 610.441C890.143 612.741 883.023 622.811 884.333 633.761C877.553 632.421 870.823 635.331 867.663 640.831C864.003 647.201 866.913 653.941 867.233 654.651C858.263 656.651 851.453 664.031 850.203 673.061C848.923 682.351 853.773 691.521 862.233 695.731C873.513 689.111 885.953 682.501 899.543 676.221C928.623 662.791 955.933 654.101 979.673 648.391Z" fill="#24A35B"></path> <path d="M888.293 652.611C893.153 653.751 898.163 650.101 898.163 650.101C898.163 650.101 895.303 644.601 890.443 643.461C885.583 642.321 880.573 645.971 880.573 645.971C880.573 645.971 883.443 651.471 888.293 652.611Z" fill="#1D9352"></path> <path d="M897.413 639.441C898.483 642.591 902.323 644.141 902.323 644.141C902.323 644.141 904.423 640.571 903.353 637.421C902.283 634.271 898.443 632.721 898.443 632.721C898.443 632.721 896.343 636.291 897.413 639.441Z" fill="#1D9352"></path> <path d="M1313.34 519.74C1310.06 515.67 1304.23 514.73 1299.83 517.56L1247.48 555.03C1244.77 556.78 1241.26 556.63 1238.71 554.66C1237.2 553.49 1236.46 552.95 1233.63 550.56C1230.25 547.7 1225.5 548.51 1221.77 550.98L1138.71 604.88L1300.35 668.11L1425.19 649.08L1313.34 519.74Z" fill="#89DAE8"></path> <path d="M1455.08 669.63C1454.37 662.06 1449.3 655.39 1442 652.22C1446.14 645.64 1446.29 637.34 1442.39 630.83C1436.99 621.82 1426.76 621.12 1425.92 621.07C1427.54 616.74 1426.81 611.93 1423.95 608.61C1420.33 604.42 1413.87 603.26 1408.48 606.1C1408.16 593.66 1399.47 582.54 1386.78 579.68C1375.29 577.09 1363.86 582.03 1357.63 591.23C1356.31 587.8 1353.35 585.06 1349.49 584.19C1343.34 582.8 1337.24 586.67 1335.85 592.82C1335.64 593.75 1335.56 594.68 1335.58 595.59C1333.82 594.51 1329.04 591.91 1322.7 592.43C1314.05 593.14 1308.83 599.13 1306.94 601.76C1304.56 600.22 1301.72 599.31 1298.67 599.31C1290.25 599.31 1283.43 606.14 1283.43 614.56C1283.43 619.41 1285.7 623.73 1289.23 626.52C1286.46 632.02 1286.77 638.89 1290.19 644.62C1308.7 641.9 1349.26 638.65 1392.81 658.86C1414.21 668.79 1429.95 681.42 1440.59 691.64C1450.08 688.12 1455.95 678.95 1455.08 669.63Z" fill="#24A35B"></path> <path d="M1408.36 625.019C1404.51 628.199 1398.4 627.149 1398.4 627.149C1398.4 627.149 1398.52 620.949 1402.37 617.769C1406.22 614.589 1412.33 615.639 1412.33 615.639C1412.33 615.639 1412.2 621.839 1408.36 625.019Z" fill="#1D9352"></path> <path d="M1394.34 617.259C1394.78 620.559 1392.02 623.649 1392.02 623.649C1392.02 623.649 1388.56 621.389 1388.12 618.079C1387.68 614.779 1390.44 611.689 1390.44 611.689C1390.44 611.689 1393.91 613.959 1394.34 617.259Z" fill="#1D9352"></path> <path d="M1409.59 637.089C1406.38 636.219 1404.59 632.489 1404.59 632.489C1404.59 632.489 1408.01 630.159 1411.23 631.029C1414.45 631.899 1416.23 635.629 1416.23 635.629C1416.23 635.629 1412.81 637.959 1409.59 637.089Z" fill="#1D9352"></path> <path d="M1460.62 699.08C1425.73 661.47 1312.18 597.75 1186.5 597.75C1080.68 597.75 983.754 635.85 908.674 699.08H1460.62Z" fill="#4DBC7A"></path> <path d="M1250.61 699.08C1255.7 693.85 1270.38 676.7 1267.91 653.44C1265.86 634.2 1253.68 621.92 1247.47 616.85C1237.27 608.5 1223.87 601.83 1208.77 598.41C1201.4 597.98 1193.98 597.75 1186.51 597.75C1182.94 597.75 1179.37 597.8 1175.82 597.88C1212.69 606.5 1236.28 626.37 1233.2 650.28C1230.57 670.66 1210.01 689.11 1184.69 687.6C1181.86 688.2 1179.88 690.73 1179.98 693.48C1180.09 696.48 1182.64 699.02 1185.83 699.07H1250.61V699.08Z" fill="#69CC91"></path> <path d="M854.623 699.081C866.823 690.541 884.993 679.081 908.503 668.751C931.803 658.511 996.253 631.201 1078.37 644.891C1137.46 654.741 1180.04 681.541 1203.3 699.081H854.623Z" fill="#FFE885"></path> <path d="M942.464 680.82C941.734 675.52 937.194 671.43 931.694 671.43C926.194 671.43 921.654 675.52 920.924 680.82H942.464Z" fill="#F4C660"></path> <path d="M1365.14 554.42C1364.52 548.74 1359.7 544.32 1353.86 544.32C1352.33 544.32 1350.87 544.63 1349.53 545.18C1348.32 540.21 1343.84 536.52 1338.5 536.52C1333.16 536.52 1328.68 540.21 1327.47 545.18C1326.14 544.63 1324.68 544.32 1323.14 544.32C1317.29 544.32 1312.48 548.74 1311.86 554.42H1365.14Z" fill="white"></path> <path d="M846.28 578.9C845.66 573.22 840.84 568.8 835 568.8C833.47 568.8 832.01 569.11 830.67 569.66C829.46 564.69 824.98 561 819.64 561C814.3 561 809.82 564.69 808.61 569.66C807.28 569.11 805.82 568.8 804.28 568.8C798.43 568.8 793.62 573.22 793 578.9H846.28Z" fill="white"></path> <path d="M1060.61 499.891C1059.5 500.281 1057.86 501.031 1056.38 502.531C1052.75 506.191 1053.08 511.191 1053.15 512.071C1051.75 511.301 1049.75 510.391 1047.21 509.901C1042.99 509.081 1039.49 509.801 1037.59 510.351C1038.34 509.511 1040.56 507.241 1044.24 506.491C1046.84 505.961 1048.98 506.431 1050.08 506.751C1050.19 506.171 1050.8 503.151 1053.67 501.171C1056.77 499.031 1060.09 499.761 1060.61 499.891Z" fill="#89DAE8"></path> <path d="M1067.64 515.891C1066.26 516.831 1064.29 518.481 1062.8 521.091C1059.16 527.461 1061.46 534.231 1061.89 535.411C1059.68 534.861 1056.59 534.371 1052.92 534.631C1046.81 535.061 1042.27 537.361 1039.85 538.821C1040.57 537.391 1042.79 533.441 1047.57 531.051C1050.95 529.361 1054.07 529.211 1055.71 529.241C1055.64 528.401 1055.36 524.031 1058.58 520.241C1062.05 516.131 1066.88 515.911 1067.64 515.891Z" fill="#89DAE8"></path> <path d="M1310.06 699.08H1332.18C1332.87 696.35 1333.93 693.08 1335.64 689.57C1338.09 684.53 1341.02 680.74 1343.39 678.11C1341.89 677.89 1337.36 677.45 1332.63 680.05C1328.71 682.21 1326.72 685.33 1325.94 686.72C1325.03 684.03 1324.15 680.68 1323.65 676.79C1322.97 671.48 1323.24 666.89 1323.71 663.42C1321.84 665.07 1318.34 668.64 1316.31 674.35C1314.83 678.52 1314.72 682.19 1314.84 684.48C1314.19 683.26 1312.83 681.11 1310.34 679.25C1307.77 677.34 1305.24 676.67 1303.88 676.41C1305.46 679.9 1307.08 684.18 1308.32 689.18C1309.21 692.78 1309.74 696.11 1310.06 699.08Z" fill="#24A35B"></path> <g clip-path="url(#clip1)"> <path d="M1287.36 435.369L1284.7 433.409L1257.76 427.779L1260.17 406.619H1245.84H1245.8H1231.47L1233.82 427.779L1204.01 434.009L1207.97 539.729L1245.87 546.369L1283.62 539.729L1287.36 435.369Z" fill="#FFD7B3"></path> <path d="M1260.17 406.619L1258.21 423.829C1254.95 425.379 1250.49 426.829 1245.82 426.829C1241.19 426.829 1236.66 425.629 1233.42 424.099L1231.47 406.619H1260.17V406.619Z" fill="#E8C19A"></path> <path d="M1330.25 776.269C1327.81 774.059 1313.45 766.599 1303.04 758.419C1297.51 754.079 1293.95 752.629 1292.2 746.749C1288.8 724.329 1301.77 684.699 1290.99 654.289L1283.62 539.729H1207.97L1200.6 654.289C1189.77 684.839 1202.91 724.709 1199.34 747.069C1197.55 752.679 1194.03 754.149 1188.6 758.419C1178.19 766.599 1163.83 774.069 1161.39 776.269C1159.73 777.769 1158.79 781.008 1162.68 781.168C1162.68 781.168 1163.01 783.499 1166.87 783.499H1169.45C1171.53 786.719 1178.23 786.758 1181.93 785.718C1191.91 782.918 1192.7 778.959 1207.24 778.959C1212.24 778.959 1218.72 779.829 1222.78 776.059C1228.07 771.159 1223.17 762.969 1221.2 751.229C1220.48 715.569 1243.5 582.488 1243.5 582.488H1248.07C1248.07 582.488 1271.1 715.569 1270.37 751.229H1270.43C1268.47 762.969 1263.57 771.159 1268.85 776.059C1272.91 779.819 1279.39 778.959 1284.39 778.959C1298.93 778.959 1299.72 782.908 1309.7 785.718C1313.4 786.758 1320.11 786.709 1322.18 783.499H1324.76C1328.62 783.499 1328.95 781.168 1328.95 781.168C1332.86 781.008 1331.91 777.769 1330.25 776.269Z" fill="#FFD7B3"></path> <path d="M1204.01 434.01C1188.89 436.79 1154.26 488.3 1153.2 490.16C1145.07 504.41 1155.1 492.53 1156.56 514.73L1168.98 515.98C1167.41 494.66 1176.19 502.44 1176.19 502.44L1206.07 468.87L1212.07 441.64L1204.01 434.01Z" fill="#FFD7B3"></path> <path d="M1284.3 550.309H1207.29C1186.75 623.699 1186.39 701.139 1186.39 701.139C1186.39 701.139 1193.5 708.959 1211.33 708.809C1228.36 708.659 1232.75 705.129 1232.75 705.129L1245.26 607.749L1259.03 705.129C1259.03 705.129 1263.43 708.659 1280.46 708.809C1298.29 708.959 1305.39 701.139 1305.39 701.139C1305.39 701.139 1304.93 623.699 1284.3 550.309Z" fill="#2950A8"></path> <path d="M1228.34 550.309H1207.28C1203.29 564.579 1200.06 578.999 1197.44 592.979C1214.96 586.459 1227.58 569.909 1228.34 550.309Z" fill="#1A3589"></path> <path d="M1263.24 550.309H1284.3C1288.29 564.579 1291.52 578.999 1294.14 592.979C1276.62 586.459 1264 569.909 1263.24 550.309Z" fill="#1A3589"></path> <path d="M1206.96 433.408C1186.34 435.788 1154.11 469.568 1148.17 488.848C1140.9 512.418 1178.96 502.928 1178.96 502.928L1205.71 479.628L1206.96 433.408Z" fill="#289322"></path> <path d="M1284.69 433.43L1270.26 430.42C1264.97 439.58 1253.94 442.75 1245.62 442.75C1237.31 442.75 1226.73 439.44 1221.26 430.44L1222.09 430.27L1206.96 433.42L1198.14 560.33C1198.14 560.33 1217.18 565.66 1245.64 565.84C1274.1 565.66 1293.25 560.34 1293.25 560.34L1284.69 433.43Z" fill="#54AF3A"></path> <path d="M1134.07 525.809C1133.87 525.869 1133.67 525.909 1133.47 525.929H1132.8C1131.59 525.799 1130.51 524.969 1130.12 523.729L1099.12 423.749C1099.06 423.549 1099.02 423.349 1099 423.149C1098.99 423.019 1098.99 422.889 1099 422.759C1099 422.679 1098.99 422.599 1099 422.519C1099.01 422.449 1099.03 422.379 1099.04 422.309C1099.23 421.169 1100.02 420.179 1101.2 419.809C1101.39 419.749 1101.59 419.709 1101.79 419.679C1102.02 419.649 1102.24 419.659 1102.46 419.679H1180.49L1211.76 525.919H1134.02L1134.07 525.809Z" fill="#976EE5"></path> <path d="M1099.01 423.159C1099 423.029 1099 422.899 1099.01 422.769C1099.01 422.689 1099 422.609 1099.01 422.529C1099.02 422.459 1099.04 422.399 1099.05 422.339C1099.23 421.199 1100.03 420.199 1101.21 419.829C1101.4 419.769 1101.6 419.729 1101.8 419.699C1102.03 419.669 1102.25 419.679 1102.47 419.699H1180.5L1180.25 423.179H1099.01C1099.01 423.169 1099.01 423.159 1099.01 423.159Z" fill="#A488F2"></path> <path d="M1179.78 419.818C1181.44 419.298 1183.21 420.228 1183.72 421.888L1214.52 521.618L1214.59 521.848C1215.1 523.498 1214.18 525.258 1212.53 525.778V525.788C1210.87 526.308 1209.1 525.378 1208.59 523.718L1177.71 423.758C1177.19 422.098 1178.12 420.338 1179.78 419.818Z" fill="#7C5BC4"></path> <path d="M1145.34 452.768C1148.89 451.461 1150.48 446.928 1148.9 442.643C1147.32 438.358 1143.17 435.943 1139.62 437.251C1136.08 438.558 1134.49 443.091 1136.07 447.376C1137.65 451.661 1141.8 454.075 1145.34 452.768Z" fill="#7C5BC4"></path> <path d="M1143.85 448.716C1145.54 448.091 1146.31 445.925 1145.55 443.879C1144.8 441.832 1142.81 440.679 1141.12 441.304C1139.42 441.929 1138.66 444.095 1139.41 446.141C1140.17 448.188 1142.15 449.341 1143.85 448.716Z" fill="#51357C"></path> <path d="M1178.37 486.009C1172.24 484.759 1167 481.739 1167.89 479.419C1169.22 475.949 1173.9 478.619 1179.34 479.299C1190.72 480.729 1197.82 476.689 1199.34 472.459L1197.07 465.109C1204.65 463.499 1207.73 477.569 1216.61 478.159L1215.68 494.999C1215.68 494.999 1206.95 493.479 1201.28 499.589C1193.86 507.589 1184.68 513.119 1182.77 509.099C1181.28 505.959 1188.66 505.369 1192.14 498.569C1182.66 504.629 1170.73 500.539 1169.94 497.949C1169.29 495.809 1171.13 495.499 1171.13 495.499C1171.13 495.499 1167.2 494.819 1167.92 491.739C1168.52 489.189 1175.18 490.639 1179.24 490.099C1185.95 489.209 1187.59 486.859 1187.59 486.859C1187.59 486.859 1183.87 487.129 1178.37 486.009Z" fill="#FFD7B3"></path> <path d="M1189.38 492.979C1185.42 497.019 1180.84 498.019 1174.78 495.879C1180.93 496.259 1184.05 495.929 1189.38 492.979Z" fill="#EFB68F"></path> <path d="M1106.79 465.128C1108.45 462.628 1111.49 461.728 1113.59 463.118C1115.69 464.508 1116.05 467.668 1114.39 470.168C1112.73 472.668 1109.69 473.568 1107.59 472.178C1105.49 470.788 1105.13 467.628 1106.79 465.128Z" fill="#FFD7B3"></path> <path d="M1109.83 471.958C1111.77 469.028 1115.05 467.778 1117.15 469.178C1119.25 470.578 1119.38 474.078 1117.44 476.998C1115.5 479.928 1112.22 481.178 1110.12 479.778C1108.02 478.388 1107.89 474.878 1109.83 471.958Z" fill="#FFD7B3"></path> <path d="M1112.39 477.659C1114.33 474.729 1117.61 473.479 1119.71 474.879C1121.81 476.269 1121.94 479.779 1120 482.699C1118.06 485.629 1114.78 486.879 1112.68 485.479C1110.58 484.079 1110.45 480.589 1112.39 477.659Z" fill="#FFD7B3"></path> <path d="M1115.08 484.949C1116.48 482.839 1119.05 482.079 1120.83 483.249C1122.6 484.429 1122.91 487.089 1121.51 489.199C1120.11 491.309 1117.54 492.069 1115.76 490.899C1113.99 489.719 1113.68 487.059 1115.08 484.949Z" fill="#FFD7B3"></path> <path d="M1266.29 483.2C1240.79 484.22 1218.24 474.3 1218.24 474.3C1211.75 484.26 1213.55 497.49 1213.55 497.49C1242.78 517.71 1285.59 518.28 1285.59 518.28C1296.61 505.19 1326.01 450.68 1287.16 434.67L1284.67 433.43C1271.28 456.11 1266.29 483.2 1266.29 483.2Z" fill="#289322"></path> <path d="M1273.59 402.179C1301.59 402.179 1320.48 348.279 1319.77 331.429C1319.06 314.579 1311.48 297.409 1302.73 289.669C1286.24 275.069 1285.91 266.179 1285.91 266.179C1279.05 277.709 1283.12 286.469 1283.12 286.469C1265.11 257.499 1219.09 259.109 1197.05 276.769C1181.83 288.959 1171.98 289.569 1171.98 289.569C1179.63 296.649 1187.52 294.649 1187.52 294.649C1156.14 331.419 1191.85 363.019 1191.85 363.019L1273.59 402.179Z" fill="#FF872E"></path> <path d="M1238.29 296.648C1257.8 296.648 1289.41 307.368 1285.97 345.538C1284.48 362.108 1280.64 373.698 1280.28 381.788C1279.12 407.918 1252.94 422.448 1231.09 422.098C1210.68 421.778 1184.79 402.308 1189.58 370.058C1190.77 362.048 1189.95 356.278 1189.05 345.588C1186.43 314.218 1218.79 296.648 1238.29 296.648Z" fill="#FBD6B3"></path> <path d="M1249.65 390.92C1249.65 390.92 1238.36 407.78 1219.08 398.24C1219.09 398.24 1234.91 402.93 1249.65 390.92Z" fill="#D69E7F"></path> <path d="M1259.04 346.2C1259.04 346.2 1254.94 340.2 1247.95 342.52C1244.81 343.56 1245.18 346.65 1245.18 346.65C1251.77 343.92 1259.04 346.2 1259.04 346.2Z" fill="#D35E24"></path> <path d="M1197.53 347.31C1197.53 347.31 1201.24 341.25 1207.32 343.45C1210.05 344.44 1209.68 347.52 1209.68 347.52C1203.96 344.91 1197.53 347.31 1197.53 347.31Z" fill="#D35E24"></path> <path d="M1239.1 314.019C1235.14 328.969 1218.79 334.579 1218.79 334.579C1249.45 336.709 1257.88 316.859 1257.88 316.859C1257.88 326.659 1248.67 332.459 1248.67 332.459C1264.27 331.299 1271.7 319.049 1271.7 319.049C1264.15 348.409 1282.31 361.409 1282.31 361.409L1288.87 356.329L1301.07 314.049L1237.84 291.279C1237.84 291.279 1196.99 289.619 1184.57 326.739C1183.87 328.819 1185.7 333.399 1185.27 337.639C1218.79 335.549 1239.1 314.019 1239.1 314.019Z" fill="#FF872E"></path> <path d="M1227.44 371.18C1229.44 375.37 1228.48 377.38 1227.16 378.46C1225.04 380.19 1222.34 379.52 1221.5 381.32C1220.75 382.92 1220.87 384.64 1227.2 388.55C1216.27 386.56 1217.53 380.16 1219.51 378.78C1221.12 377.66 1222.09 377.75 1224.9 376.94C1226.59 376.45 1227.66 374.6 1227.44 371.18Z" fill="#D69E7F"></path> <path d="M1278.6 363.309C1278.6 363.309 1287.52 352.689 1295.3 356.879C1303.08 361.069 1305.06 376.289 1292.91 385.009C1283.57 391.709 1276.15 389.199 1276.15 389.199L1278.6 363.309Z" fill="#FBD6B3"></path> <path d="M1241.31 366.768C1241.31 366.768 1245.59 371.268 1253.3 370.898C1259.68 370.588 1261.95 367.248 1261.95 367.248C1266.97 360.758 1262.81 353.948 1255.44 352.918C1249.64 352.118 1242.53 355.188 1241.31 366.768Z" fill="white"></path> <path d="M1244.33 364.998C1245.06 361.588 1248.56 359.408 1252.14 360.118C1252.16 360.118 1252.17 360.128 1252.19 360.128C1251.73 360.588 1251.4 361.158 1251.25 361.828C1250.85 363.708 1252.09 365.538 1254.02 365.928C1255.24 366.178 1256.45 365.778 1257.27 364.978C1257.46 365.818 1257.49 366.698 1257.3 367.588C1256.57 370.998 1253.07 373.178 1249.49 372.468C1245.9 371.758 1243.59 368.408 1244.33 364.998Z" fill="#5B3831"></path> <path d="M1216.78 366.768C1216.78 366.768 1212.5 371.268 1204.79 370.898C1198.41 370.588 1196.14 367.248 1196.14 367.248C1191.12 360.758 1195.28 353.948 1202.65 352.918C1208.45 352.118 1215.56 355.188 1216.78 366.768Z" fill="white"></path> <path d="M1196.96 364.998C1197.69 361.588 1201.19 359.408 1204.77 360.118C1204.79 360.118 1204.8 360.128 1204.82 360.128C1204.36 360.588 1204.03 361.158 1203.88 361.828C1203.48 363.708 1204.72 365.538 1206.65 365.928C1207.87 366.178 1209.08 365.778 1209.9 364.978C1210.09 365.818 1210.12 366.698 1209.93 367.588C1209.2 370.998 1205.7 373.178 1202.12 372.468C1198.54 371.758 1196.23 368.408 1196.96 364.998Z" fill="#5B3831"></path> <path d="M1241.31 366.789C1241.31 366.789 1245.59 371.289 1253.3 370.919C1259.68 370.609 1261.95 367.269 1261.95 367.269L1259.06 382.389L1241.31 377.629V366.789V366.789Z" fill="#FFD3B3"></path> <path d="M1196.14 367.25C1196.14 367.25 1198.41 370.59 1204.79 370.9C1212.5 371.27 1216.78 366.77 1216.78 366.77L1213.25 379.87L1192.92 375.34L1196.14 367.25Z" fill="#FFD3B3"></path> <path d="M1197.53 376.469C1198.29 376.469 1198.91 375.851 1198.91 375.089C1198.91 374.327 1198.29 373.709 1197.53 373.709C1196.77 373.709 1196.15 374.327 1196.15 375.089C1196.15 375.851 1196.77 376.469 1197.53 376.469Z" fill="#DD9B70"></path> <path d="M1207.25 378.149C1208.01 378.149 1208.63 377.531 1208.63 376.769C1208.63 376.007 1208.01 375.389 1207.25 375.389C1206.49 375.389 1205.87 376.007 1205.87 376.769C1205.87 377.531 1206.49 378.149 1207.25 378.149Z" fill="#DD9B70"></path> <path d="M1201.52 382.838C1202.28 382.838 1202.9 382.22 1202.9 381.458C1202.9 380.696 1202.28 380.078 1201.52 380.078C1200.76 380.078 1200.14 380.696 1200.14 381.458C1200.14 382.22 1200.76 382.838 1201.52 382.838Z" fill="#DD9B70"></path> <path d="M1259.13 378.27C1259.89 378.27 1260.51 377.652 1260.51 376.89C1260.51 376.128 1259.89 375.51 1259.13 375.51C1258.37 375.51 1257.75 376.128 1257.75 376.89C1257.75 377.652 1258.37 378.27 1259.13 378.27Z" fill="#DD9B70"></path> <path d="M1249.42 379.949C1250.18 379.949 1250.8 379.332 1250.8 378.569C1250.8 377.807 1250.18 377.189 1249.42 377.189C1248.66 377.189 1248.04 377.807 1248.04 378.569C1248.04 379.332 1248.66 379.949 1249.42 379.949Z" fill="#DD9B70"></path> <path d="M1255.14 384.651C1255.9 384.651 1256.52 384.033 1256.52 383.271C1256.52 382.508 1255.9 381.891 1255.14 381.891C1254.38 381.891 1253.76 382.508 1253.76 383.271C1253.76 384.033 1254.38 384.651 1255.14 384.651Z" fill="#DD9B70"></path> </g> </g> <defs> <clipPath id="clip0"> <rect width="1440" height="680" fill="white"></rect> </clipPath> <clipPath id="clip1"> <rect width="232.69" height="522.74" fill="white" transform="translate(1099 264)"></rect> </clipPath> </defs> </svg> 