<?xml version="1.0" encoding="UTF-8"?> <svg xmlns="http://www.w3.org/2000/svg" width="232" height="65" viewBox="0 0 232 65" fill="none"> <path d="M224.663 65H95.3366C91.2846 65 88 61.3065 88 56.7501V9.24992C88 4.69352 91.2846 1 95.3366 1H224.663C228.715 1 232 4.69352 232 9.24992V56.7501C232 61.3065 228.715 65 224.663 65Z" fill="white"></path> <path d="M92.3753 10.2998C93.0301 9.77595 94 10.2421 94 11.0806V24C94 24.5523 93.5523 25 93 25H76.8508C75.9055 25 75.4879 23.8096 76.2261 23.2191L92.3753 10.2998Z" fill="white"></path> <path d="M108.736 18.004L105.544 25.158C105.245 25.8207 104.942 26.376 104.634 26.824C104.335 27.2627 103.981 27.594 103.57 27.818C103.159 28.0327 102.637 28.14 102.002 28.14C101.741 28.14 101.493 28.1213 101.26 28.084C101.036 28.0467 100.831 27.9953 100.644 27.93V26.684C100.831 26.768 101.031 26.838 101.246 26.894C101.461 26.9407 101.685 26.964 101.918 26.964C102.441 26.964 102.851 26.852 103.15 26.628C103.458 26.404 103.743 26.0073 104.004 25.438L100.154 18.004H101.54L104.326 23.506C104.373 23.5993 104.429 23.7207 104.494 23.87C104.559 24.01 104.615 24.1453 104.662 24.276H104.718C104.755 24.1733 104.802 24.052 104.858 23.912C104.914 23.7627 104.961 23.6413 104.998 23.548L107.406 18.004H108.736ZM110.731 20.496V23.226C110.731 24.0847 111.212 24.514 112.173 24.514C112.64 24.514 113.064 24.444 113.447 24.304C113.83 24.1547 114.222 23.9587 114.623 23.716V20.496H115.855V28H114.623V24.654C114.203 24.9247 113.788 25.1393 113.377 25.298C112.976 25.4473 112.49 25.522 111.921 25.522C111.156 25.522 110.558 25.3213 110.129 24.92C109.709 24.5187 109.499 23.982 109.499 23.31V20.496H110.731ZM121.137 20.356C121.781 20.356 122.331 20.496 122.789 20.776C123.255 21.056 123.61 21.4527 123.853 21.966C124.105 22.47 124.231 23.0627 124.231 23.744V24.486H119.093C119.111 25.3353 119.326 25.984 119.737 26.432C120.157 26.8707 120.74 27.09 121.487 27.09C121.963 27.09 122.383 27.048 122.747 26.964C123.12 26.8707 123.503 26.74 123.895 26.572V27.65C123.512 27.818 123.134 27.9393 122.761 28.014C122.387 28.098 121.944 28.14 121.431 28.14C120.721 28.14 120.091 27.9953 119.541 27.706C118.999 27.4167 118.575 26.9873 118.267 26.418C117.968 25.8393 117.819 25.1347 117.819 24.304C117.819 23.4827 117.954 22.778 118.225 22.19C118.505 21.602 118.892 21.1493 119.387 20.832C119.891 20.5147 120.474 20.356 121.137 20.356ZM121.123 21.364C120.535 21.364 120.068 21.5553 119.723 21.938C119.387 22.3113 119.186 22.834 119.121 23.506H122.943C122.933 22.8713 122.784 22.358 122.495 21.966C122.205 21.5647 121.748 21.364 121.123 21.364ZM125.749 23.492C125.749 21.8493 125.997 20.5707 126.491 19.656C126.986 18.732 127.784 18.1533 128.885 17.92C129.492 17.7893 130.085 17.6727 130.663 17.57C131.242 17.4673 131.783 17.374 132.287 17.29L132.497 18.368C132.171 18.4147 131.802 18.4753 131.391 18.55C130.981 18.6153 130.575 18.6853 130.173 18.76C129.772 18.8253 129.427 18.8907 129.137 18.956C128.531 19.0867 128.05 19.404 127.695 19.908C127.341 20.4027 127.14 21.1773 127.093 22.232H127.177C127.308 22.0547 127.485 21.8727 127.709 21.686C127.943 21.4993 128.218 21.3407 128.535 21.21C128.862 21.0793 129.231 21.014 129.641 21.014C130.612 21.014 131.345 21.3267 131.839 21.952C132.334 22.5773 132.581 23.3893 132.581 24.388C132.581 25.2187 132.437 25.914 132.147 26.474C131.858 27.034 131.457 27.454 130.943 27.734C130.43 28.0047 129.833 28.14 129.151 28.14C128.115 28.14 127.289 27.7433 126.673 26.95C126.057 26.1567 125.749 25.004 125.749 23.492ZM129.249 27.118C129.856 27.118 130.346 26.922 130.719 26.53C131.093 26.138 131.279 25.466 131.279 24.514C131.279 23.7487 131.135 23.1467 130.845 22.708C130.565 22.26 130.099 22.036 129.445 22.036C129.035 22.036 128.661 22.1293 128.325 22.316C127.989 22.4933 127.709 22.6987 127.485 22.932C127.261 23.1653 127.103 23.3613 127.009 23.52C127.009 23.9773 127.042 24.4207 127.107 24.85C127.173 25.2793 127.285 25.6667 127.443 26.012C127.611 26.348 127.84 26.6187 128.129 26.824C128.428 27.02 128.801 27.118 129.249 27.118ZM135.754 20.496V23.618H139.828V20.496H141.06V28H139.828V24.654H135.754V28H134.522V20.496H135.754ZM146.278 20.37C147.193 20.37 147.869 20.5707 148.308 20.972C148.747 21.3733 148.966 22.0127 148.966 22.89V28H148.07L147.832 26.936H147.776C147.449 27.3467 147.104 27.65 146.74 27.846C146.385 28.042 145.891 28.14 145.256 28.14C144.575 28.14 144.01 27.9627 143.562 27.608C143.114 27.244 142.89 26.6793 142.89 25.914C142.89 25.1673 143.184 24.5933 143.772 24.192C144.36 23.7813 145.265 23.5573 146.488 23.52L147.762 23.478V23.03C147.762 22.4047 147.627 21.9707 147.356 21.728C147.085 21.4853 146.703 21.364 146.208 21.364C145.816 21.364 145.443 21.4247 145.088 21.546C144.733 21.658 144.402 21.7887 144.094 21.938L143.716 21.014C144.043 20.8367 144.43 20.6873 144.878 20.566C145.326 20.4353 145.793 20.37 146.278 20.37ZM147.748 24.332L146.642 24.374C145.709 24.4113 145.06 24.5607 144.696 24.822C144.341 25.0833 144.164 25.452 144.164 25.928C144.164 26.348 144.29 26.656 144.542 26.852C144.803 27.048 145.135 27.146 145.536 27.146C146.171 27.146 146.698 26.9733 147.118 26.628C147.538 26.2733 147.748 25.732 147.748 25.004V24.332ZM151.746 28H150.318L152.46 24.85C152.17 24.7753 151.89 24.6587 151.62 24.5C151.349 24.332 151.13 24.1033 150.962 23.814C150.794 23.5153 150.71 23.1467 150.71 22.708C150.71 21.9893 150.952 21.4433 151.438 21.07C151.923 20.6873 152.567 20.496 153.37 20.496H156.73V28H155.498V25.018H153.678L151.746 28ZM151.9 22.722C151.9 23.1513 152.058 23.4733 152.376 23.688C152.702 23.8933 153.155 23.996 153.734 23.996H155.498V21.518H153.496C152.926 21.518 152.516 21.63 152.264 21.854C152.021 22.078 151.9 22.3673 151.9 22.722ZM167.221 17.36V20.384C167.967 20.4493 168.616 20.6453 169.167 20.972C169.727 21.2987 170.161 21.7373 170.469 22.288C170.777 22.8387 170.931 23.492 170.931 24.248C170.931 25.3773 170.599 26.278 169.937 26.95C169.283 27.622 168.378 28.0093 167.221 28.112V31.36H166.017V28.112C165.279 28.0467 164.631 27.8553 164.071 27.538C163.511 27.2113 163.077 26.7727 162.769 26.222C162.461 25.662 162.307 25.004 162.307 24.248C162.307 23.1093 162.633 22.204 163.287 21.532C163.949 20.86 164.873 20.4773 166.059 20.384V17.36H167.221ZM166.059 21.406C165.2 21.49 164.575 21.7747 164.183 22.26C163.791 22.736 163.595 23.3987 163.595 24.248C163.595 25.0973 163.791 25.7647 164.183 26.25C164.584 26.7353 165.209 27.02 166.059 27.104V21.406ZM167.221 21.42V27.104C168.061 27.0107 168.677 26.7213 169.069 26.236C169.461 25.7507 169.657 25.088 169.657 24.248C169.657 23.408 169.456 22.75 169.055 22.274C168.663 21.798 168.051 21.5133 167.221 21.42ZM179.409 24.234C179.409 25.4753 179.092 26.4367 178.457 27.118C177.832 27.7993 176.983 28.14 175.909 28.14C175.247 28.14 174.654 27.9907 174.131 27.692C173.618 27.384 173.212 26.9407 172.913 26.362C172.615 25.774 172.465 25.0647 172.465 24.234C172.465 22.9927 172.778 22.036 173.403 21.364C174.029 20.692 174.878 20.356 175.951 20.356C176.633 20.356 177.23 20.51 177.743 20.818C178.266 21.1167 178.672 21.5553 178.961 22.134C179.26 22.7033 179.409 23.4033 179.409 24.234ZM173.739 24.234C173.739 25.1207 173.912 25.8253 174.257 26.348C174.612 26.8613 175.172 27.118 175.937 27.118C176.693 27.118 177.249 26.8613 177.603 26.348C177.958 25.8253 178.135 25.1207 178.135 24.234C178.135 23.3473 177.958 22.652 177.603 22.148C177.249 21.644 176.689 21.392 175.923 21.392C175.158 21.392 174.603 21.644 174.257 22.148C173.912 22.652 173.739 23.3473 173.739 24.234ZM184.932 20.356C185.856 20.356 186.598 20.678 187.158 21.322C187.727 21.966 188.012 22.9367 188.012 24.234C188.012 25.5127 187.727 26.4833 187.158 27.146C186.598 27.8087 185.851 28.14 184.918 28.14C184.339 28.14 183.859 28.0327 183.476 27.818C183.103 27.594 182.809 27.3373 182.594 27.048H182.51C182.529 27.2067 182.547 27.4073 182.566 27.65C182.585 27.8927 182.594 28.1027 182.594 28.28V31.36H181.362V20.496H182.37L182.538 21.518H182.594C182.818 21.1913 183.112 20.916 183.476 20.692C183.84 20.468 184.325 20.356 184.932 20.356ZM184.708 21.392C183.943 21.392 183.401 21.6067 183.084 22.036C182.776 22.4653 182.613 23.1187 182.594 23.996V24.234C182.594 25.158 182.743 25.872 183.042 26.376C183.35 26.8707 183.915 27.118 184.736 27.118C185.193 27.118 185.567 26.992 185.856 26.74C186.155 26.488 186.374 26.1473 186.514 25.718C186.663 25.2793 186.738 24.78 186.738 24.22C186.738 23.3613 186.57 22.6753 186.234 22.162C185.907 21.6487 185.399 21.392 184.708 21.392ZM198.025 20.496V28H196.919V23.212C196.919 23.016 196.924 22.8107 196.933 22.596C196.952 22.3813 196.97 22.1713 196.989 21.966H196.947L194.497 28H193.461L191.081 21.966H191.039C191.067 22.386 191.081 22.8153 191.081 23.254V28H189.975V20.496H191.613L193.979 26.53L196.387 20.496H198.025ZM203.262 20.37C204.177 20.37 204.854 20.5707 205.292 20.972C205.731 21.3733 205.95 22.0127 205.95 22.89V28H205.054L204.816 26.936H204.76C204.434 27.3467 204.088 27.65 203.724 27.846C203.37 28.042 202.875 28.14 202.24 28.14C201.559 28.14 200.994 27.9627 200.546 27.608C200.098 27.244 199.874 26.6793 199.874 25.914C199.874 25.1673 200.168 24.5933 200.756 24.192C201.344 23.7813 202.25 23.5573 203.472 23.52L204.746 23.478V23.03C204.746 22.4047 204.611 21.9707 204.34 21.728C204.07 21.4853 203.687 21.364 203.192 21.364C202.8 21.364 202.427 21.4247 202.072 21.546C201.718 21.658 201.386 21.7887 201.078 21.938L200.7 21.014C201.027 20.8367 201.414 20.6873 201.862 20.566C202.31 20.4353 202.777 20.37 203.262 20.37ZM204.732 24.332L203.626 24.374C202.693 24.4113 202.044 24.5607 201.68 24.822C201.326 25.0833 201.148 25.452 201.148 25.928C201.148 26.348 201.274 26.656 201.526 26.852C201.788 27.048 202.119 27.146 202.52 27.146C203.155 27.146 203.682 26.9733 204.102 26.628C204.522 26.2733 204.732 25.732 204.732 25.004V24.332ZM103.164 40.356C104.023 40.356 104.704 40.5287 105.208 40.874C105.721 41.21 105.978 41.6953 105.978 42.33C105.978 42.7873 105.852 43.1513 105.6 43.422C105.348 43.6833 105.003 43.8747 104.564 43.996V44.052C104.863 44.136 105.138 44.2527 105.39 44.402C105.642 44.5513 105.843 44.7473 105.992 44.99C106.151 45.2327 106.23 45.5453 106.23 45.928C106.23 46.5533 105.969 47.0807 105.446 47.51C104.933 47.93 104.125 48.14 103.024 48.14C102.483 48.14 101.993 48.0933 101.554 48C101.115 47.916 100.751 47.7993 100.462 47.65V46.544C100.779 46.6933 101.153 46.8287 101.582 46.95C102.021 47.0713 102.497 47.132 103.01 47.132C103.57 47.132 104.041 47.0387 104.424 46.852C104.816 46.656 105.012 46.3247 105.012 45.858C105.012 45.018 104.298 44.598 102.87 44.598H101.862V43.59H102.674C103.318 43.59 103.831 43.506 104.214 43.338C104.606 43.1607 104.802 42.862 104.802 42.442C104.802 42.0873 104.653 41.8213 104.354 41.644C104.065 41.4667 103.645 41.378 103.094 41.378C102.683 41.378 102.319 41.42 102.002 41.504C101.694 41.5787 101.353 41.6953 100.98 41.854L100.546 40.874C101.33 40.5287 102.203 40.356 103.164 40.356ZM110.895 40.37C111.81 40.37 112.487 40.5707 112.925 40.972C113.364 41.3733 113.583 42.0127 113.583 42.89V48H112.687L112.449 46.936H112.393C112.067 47.3467 111.721 47.65 111.357 47.846C111.003 48.042 110.508 48.14 109.873 48.14C109.192 48.14 108.627 47.9627 108.179 47.608C107.731 47.244 107.507 46.6793 107.507 45.914C107.507 45.1673 107.801 44.5933 108.389 44.192C108.977 43.7813 109.883 43.5573 111.105 43.52L112.379 43.478V43.03C112.379 42.4047 112.244 41.9707 111.973 41.728C111.703 41.4853 111.32 41.364 110.825 41.364C110.433 41.364 110.06 41.4247 109.705 41.546C109.351 41.658 109.019 41.7887 108.711 41.938L108.333 41.014C108.66 40.8367 109.047 40.6873 109.495 40.566C109.943 40.4353 110.41 40.37 110.895 40.37ZM112.365 44.332L111.259 44.374C110.326 44.4113 109.677 44.5607 109.313 44.822C108.959 45.0833 108.781 45.452 108.781 45.928C108.781 46.348 108.907 46.656 109.159 46.852C109.421 47.048 109.752 47.146 110.153 47.146C110.788 47.146 111.315 46.9733 111.735 46.628C112.155 46.2733 112.365 45.732 112.365 45.004V44.332ZM123.318 48H122.114V41.014C122.114 40.6127 122.118 40.2907 122.128 40.048C122.137 39.8053 122.151 39.5533 122.17 39.292C122.02 39.4413 121.885 39.5673 121.764 39.67C121.642 39.7727 121.488 39.9033 121.302 40.062L120.238 40.93L119.594 40.104L122.296 38.004H123.318V48ZM139.236 40.496V48H138.13V43.212C138.13 43.016 138.135 42.8107 138.144 42.596C138.163 42.3813 138.181 42.1713 138.2 41.966H138.158L135.708 48H134.672L132.292 41.966H132.25C132.278 42.386 132.292 42.8153 132.292 43.254V48H131.186V40.496H132.824L135.19 46.53L137.598 40.496H139.236ZM144.529 40.356C145.173 40.356 145.724 40.496 146.181 40.776C146.648 41.056 147.003 41.4527 147.245 41.966C147.497 42.47 147.623 43.0627 147.623 43.744V44.486H142.485C142.504 45.3353 142.719 45.984 143.129 46.432C143.549 46.8707 144.133 47.09 144.879 47.09C145.355 47.09 145.775 47.048 146.139 46.964C146.513 46.8707 146.895 46.74 147.287 46.572V47.65C146.905 47.818 146.527 47.9393 146.153 48.014C145.78 48.098 145.337 48.14 144.823 48.14C144.114 48.14 143.484 47.9953 142.933 47.706C142.392 47.4167 141.967 46.9873 141.659 46.418C141.361 45.8393 141.211 45.1347 141.211 44.304C141.211 43.4827 141.347 42.778 141.617 42.19C141.897 41.602 142.285 41.1493 142.779 40.832C143.283 40.5147 143.867 40.356 144.529 40.356ZM144.515 41.364C143.927 41.364 143.461 41.5553 143.115 41.938C142.779 42.3113 142.579 42.834 142.513 43.506H146.335C146.326 42.8713 146.177 42.358 145.887 41.966C145.598 41.5647 145.141 41.364 144.515 41.364ZM152.544 48.14C151.881 48.14 151.288 48.0047 150.766 47.734C150.252 47.4633 149.846 47.0433 149.548 46.474C149.258 45.9047 149.114 45.1767 149.114 44.29C149.114 43.366 149.268 42.6147 149.576 42.036C149.884 41.4573 150.299 41.0327 150.822 40.762C151.354 40.4913 151.956 40.356 152.628 40.356C153.01 40.356 153.379 40.398 153.734 40.482C154.088 40.5567 154.378 40.65 154.602 40.762L154.224 41.784C154 41.7 153.738 41.6207 153.44 41.546C153.141 41.4713 152.861 41.434 152.6 41.434C151.125 41.434 150.388 42.3813 150.388 44.276C150.388 45.1813 150.565 45.8767 150.92 46.362C151.284 46.838 151.82 47.076 152.53 47.076C152.94 47.076 153.3 47.034 153.608 46.95C153.925 46.866 154.214 46.7633 154.476 46.642V47.734C154.224 47.8647 153.944 47.9627 153.636 48.028C153.337 48.1027 152.973 48.14 152.544 48.14ZM156.722 48H155.294L157.436 44.85C157.147 44.7753 156.867 44.6587 156.596 44.5C156.326 44.332 156.106 44.1033 155.938 43.814C155.77 43.5153 155.686 43.1467 155.686 42.708C155.686 41.9893 155.929 41.4433 156.414 41.07C156.9 40.6873 157.544 40.496 158.346 40.496H161.706V48H160.474V45.018H158.654L156.722 48ZM156.876 42.722C156.876 43.1513 157.035 43.4733 157.352 43.688C157.679 43.8933 158.132 43.996 158.71 43.996H160.474V41.518H158.472C157.903 41.518 157.492 41.63 157.24 41.854C156.998 42.078 156.876 42.3673 156.876 42.722ZM171.487 50.604H170.283V48H164.081V40.496H165.313V46.964H169.191V40.496H170.423V46.978H171.487V50.604ZM172.744 47.244C172.744 46.8987 172.828 46.656 172.996 46.516C173.164 46.376 173.365 46.306 173.598 46.306C173.841 46.306 174.046 46.376 174.214 46.516C174.392 46.656 174.48 46.8987 174.48 47.244C174.48 47.58 174.392 47.8227 174.214 47.972C174.046 48.1213 173.841 48.196 173.598 48.196C173.365 48.196 173.164 48.1213 172.996 47.972C172.828 47.8227 172.744 47.58 172.744 47.244Z" fill="black"></path> <path d="M64 31.998C64 36.4732 63.0796 40.7312 61.4245 44.5982C59.8642 48.2399 57.6482 51.5302 54.9226 54.3267C54.4288 54.8323 53.9193 55.3221 53.39 55.7961C53.39 55.7961 53.386 55.8 53.382 55.8C53.3702 55.8119 53.3623 55.8198 53.3544 55.8237C53.2675 55.9027 53.1806 55.9817 53.0937 56.0568C53.0344 56.1081 52.9712 56.1634 52.912 56.2148C50.3246 58.4504 47.3779 60.2792 44.1664 61.5985C43.3369 61.9381 42.4915 62.2462 41.6304 62.5188C41.2275 62.6452 40.8206 62.7637 40.4098 62.8782C40.2874 62.9098 40.161 62.9454 40.0385 62.977C38.9167 63.2693 37.7711 63.4984 36.6058 63.6682C36.4597 63.6879 36.3135 63.7077 36.1634 63.7274C34.9073 63.8894 33.6235 63.9802 32.3279 63.9921C32.2173 63.996 32.1067 63.996 31.996 63.996C31.8222 63.996 31.6484 63.996 31.4746 63.9921C30.175 63.9723 28.8952 63.8736 27.6391 63.6998C27.4929 63.68 27.3467 63.6603 27.1966 63.6405C26.1143 63.4786 25.0517 63.2614 24.0089 62.9888C23.8035 62.9375 23.5981 62.8822 23.3927 62.8269C22.9937 62.7163 22.5947 62.5978 22.1997 62.4714C21.3504 62.1988 20.517 61.8907 19.6993 61.5511C16.5036 60.2199 13.5726 58.3872 11.0011 56.1516C10.9063 56.0686 10.8115 55.9857 10.7167 55.9027C10.6337 55.8277 10.5508 55.7526 10.4678 55.6815C10.4599 55.6736 10.456 55.6697 10.4481 55.6618C10.4244 55.642 10.3967 55.6183 10.377 55.5946C9.93458 55.1878 9.50006 54.7691 9.08135 54.3386C6.32416 51.5105 4.08443 48.1728 2.52018 44.4836C0.90063 40.6443 0 36.4258 0 31.998C0 14.3262 14.3271 0 32 0C49.6729 0 64 14.3262 64 31.998Z" fill="#72D4EA"></path> <path d="M14.2869 49.9858C14.2869 52.5493 12.9833 54.8165 11.0083 56.1476C10.9135 56.0647 10.8187 55.9817 10.7239 55.8988C10.6409 55.8237 10.558 55.7487 10.475 55.6776C10.4671 55.6697 10.4632 55.6657 10.4553 55.6578C10.4316 55.6381 10.4039 55.6144 10.3842 55.5907C9.94174 55.1839 9.50722 54.7652 9.08851 54.3346C6.33132 51.5065 4.0916 48.1689 2.52734 44.4797C3.74793 43.4646 5.35564 42.8721 7.1727 42.8721C8.12863 42.8721 9.63363 43.034 10.8108 43.3382C11.032 43.3974 11.2413 43.4567 11.4349 43.5277C11.6837 43.6146 11.901 43.7094 12.0788 43.8082C12.6199 44.1163 13.0268 44.4876 13.3309 44.9221C14.1921 46.1307 14.2829 47.7976 14.2869 49.7172C14.2869 49.8081 14.2869 49.895 14.2869 49.9858Z" fill="#EEB28A"></path> <path d="M61.4251 44.5982C59.8648 48.24 57.6488 51.5303 54.9232 54.3268C54.4295 54.8324 53.9199 55.3221 53.3906 55.7961C53.3906 55.7961 53.3866 55.8001 53.3827 55.8001C53.3708 55.8119 53.3629 55.8198 53.355 55.8238C53.2681 55.9028 53.1812 55.9818 53.0943 56.0568C53.0351 56.1082 52.9719 56.1635 52.9126 56.2148C50.8743 54.8916 49.5273 52.5967 49.5273 49.9819C49.5273 49.8911 49.5273 49.8002 49.5273 49.7094C49.5313 47.7897 49.6182 46.1268 50.4793 44.9182C50.7835 44.4876 51.1903 44.1163 51.7197 43.8122C51.9053 43.7055 52.1305 43.6107 52.3912 43.5199C52.565 43.4606 52.7546 43.4014 52.9521 43.3501C54.1371 43.038 55.6698 42.8682 56.6415 42.8682C58.5297 42.8721 60.1848 43.512 61.4251 44.5982Z" fill="#EEB28A"></path> <path d="M10.3855 55.5905C9.94307 55.1837 9.50856 54.765 9.08984 54.3345L10.1129 54.5833C10.2196 54.9191 10.3104 55.2548 10.3855 55.5905Z" fill="#EEB28A"></path> <path d="M22.6538 61.3695C22.6183 61.7408 22.3892 62.12 22.2075 62.4716C21.3582 62.199 20.5247 61.8909 19.707 61.5512C19.7347 61.5236 19.7584 61.4959 19.786 61.4683C19.786 61.4683 19.79 61.4643 19.7939 61.4564C19.8018 61.4446 19.8097 61.4367 19.8176 61.4248C19.8492 61.3814 19.8927 61.3182 19.9124 61.2826C19.944 61.2313 20.0151 61.0694 20.0151 61.0694C20.1573 60.7376 20.2403 60.3663 20.4141 60.1095C20.6235 59.7975 20.9632 59.6513 21.6821 59.9278C22.1838 60.1214 22.4563 60.3584 22.5788 60.6704C22.6617 60.8679 22.6775 61.097 22.6538 61.3695Z" fill="#EEB28A"></path> <path d="M31.4784 63.9921C30.1788 63.9724 28.8989 63.8736 27.6428 63.6998C27.4966 63.6801 27.3505 63.6603 27.2004 63.6406C26.118 63.4786 25.0554 63.2614 24.0126 62.9889C23.8072 62.9375 23.6018 62.8822 23.3964 62.8269C23.3885 62.7045 23.3924 62.5741 23.4122 62.4398C23.503 61.7288 23.6887 61.1403 23.9336 60.6663C24.8066 58.9718 26.4143 58.7111 27.0503 59.3352C27.5756 59.8447 28.1524 60.2753 28.7133 60.6663C29.132 60.9626 29.5428 61.2351 29.9102 61.5076C30.7278 62.112 31.348 62.7124 31.4586 63.5221C31.4744 63.6722 31.4823 63.8302 31.4784 63.9921Z" fill="#EEB28A"></path> <path d="M27.643 63.6998C27.4968 63.68 27.3507 63.6603 27.2005 63.6405C27.1966 63.4865 27.161 63.3285 27.0939 63.1705C27.0109 62.9651 26.8924 62.7636 26.7581 62.5661C26.6673 62.4318 26.5685 62.3015 26.4658 62.1711C26.6554 62.262 26.8332 62.3726 26.9912 62.5108C27.1531 62.653 27.2953 62.815 27.4139 63.0046C27.5324 63.1942 27.6153 63.4154 27.639 63.6563C27.643 63.6721 27.643 63.6879 27.643 63.6998Z" fill="#D89C82"></path> <path d="M20.0143 61.0691C20.113 61.1481 20.2513 61.1994 20.3974 61.2429C20.5436 61.2903 20.7016 61.31 20.8596 61.2942C21.0215 61.2784 21.1835 61.235 21.3336 61.1639C21.4798 61.0888 21.622 60.9822 21.7128 60.8281C21.6615 60.998 21.543 61.1441 21.4008 61.2626C21.2586 61.3811 21.0887 61.468 20.9109 61.5273C20.7292 61.5865 20.5278 61.6063 20.3342 61.5905C20.1367 61.5707 19.9866 61.5628 19.7852 61.468C19.7852 61.468 19.88 61.3377 19.9116 61.2824C19.9392 61.231 20.0143 61.0691 20.0143 61.0691Z" fill="#D89C82"></path> <path d="M40.4134 62.8781C40.2909 62.9097 40.1645 62.9453 40.0421 62.9769C38.9202 63.2692 37.7747 63.4982 36.6094 63.6681C36.4633 63.6878 36.3171 63.7076 36.167 63.7273C34.9108 63.8893 33.6271 63.9801 32.3314 63.992C32.3275 63.83 32.3314 63.672 32.3551 63.5219C32.4657 62.7122 33.0938 62.1079 33.9154 61.4996C34.2788 61.231 34.6857 60.9585 35.1005 60.6662C35.6574 60.2751 36.2341 59.8446 36.7635 59.3351C37.4034 58.7149 39.0111 58.9756 39.8841 60.6662C40.129 61.1402 40.3146 61.7287 40.4055 62.4397C40.4173 62.5937 40.4213 62.7399 40.4134 62.8781Z" fill="#EEB28A"></path> <path d="M44.1656 61.6024C43.336 61.942 42.4907 62.2501 41.6296 62.5227C41.4439 62.1593 41.1951 61.7603 41.1595 61.3693C41.1358 61.0968 41.1516 60.8677 41.2306 60.6662C41.3531 60.3542 41.6296 60.1172 42.1273 59.9237C42.8462 59.6432 43.1859 59.7933 43.3953 60.1014C43.573 60.3621 43.656 60.7334 43.7943 61.0652C43.7943 61.0652 43.8693 61.2271 43.9009 61.2785C43.9325 61.3338 44.0273 61.4602 44.0273 61.4602C44.0668 61.5076 44.1142 61.551 44.1616 61.5905L44.1656 61.6024Z" fill="#EEB28A"></path> <path d="M54.9224 54.3267C54.4286 54.8322 53.9191 55.322 53.3897 55.796C53.3897 55.796 53.3858 55.8 53.3818 55.8C53.3818 55.7881 53.3858 55.7802 53.3858 55.7723C53.4648 55.3773 53.5675 54.9784 53.6978 54.5795L54.9224 54.3267Z" fill="#EEB28A"></path> <path d="M37.3441 62.1672C37.2493 62.2897 37.1545 62.4121 37.0716 62.5346C36.9294 62.7439 36.803 62.9533 36.7161 63.1666C36.6489 63.3364 36.6094 63.5062 36.6094 63.6642C36.4633 63.684 36.3171 63.7037 36.167 63.7235C36.167 63.6998 36.167 63.6761 36.1709 63.6524C36.1946 63.4114 36.2736 63.1863 36.3961 63.0007C36.5225 62.7992 36.6766 62.6254 36.8504 62.4832C37.0005 62.3568 37.1664 62.2502 37.3441 62.1672Z" fill="#D89C82"></path> <path d="M43.7982 61.0691C43.6994 61.1481 43.5612 61.1994 43.415 61.2429C43.2688 61.2903 43.1108 61.31 42.9528 61.2942C42.7909 61.2784 42.6289 61.235 42.4788 61.1639C42.3327 61.0888 42.1905 60.9822 42.0996 60.8281C42.151 60.998 42.2695 61.1441 42.4117 61.2626C42.5539 61.3811 42.7237 61.468 42.9015 61.5273C43.0832 61.5865 43.2846 61.6063 43.4782 61.5905C43.6757 61.5707 43.8258 61.5628 44.0273 61.468C44.0273 61.468 43.9325 61.3377 43.9009 61.2824C43.8693 61.231 43.7982 61.0691 43.7982 61.0691Z" fill="#D89C82"></path> <path d="M43.6365 15.3217C43.6365 11.992 42.017 10.9887 42.017 10.9887C41.8511 12.6042 40.7766 12.8807 40.7766 12.8807C41.6496 8.72936 38.2525 7.53255 38.2525 7.53255C38.2525 7.53255 38.8016 8.59507 38.1458 9.49959C38.1458 9.49959 35.9061 3.68931 27.9782 4.73603C27.9782 4.73603 29.736 5.6208 28.8551 7.5207C28.8551 7.5207 27.757 5.66425 24.1979 6.46608C24.1979 6.46608 25.1183 8.57927 23.6884 10.6609C23.6884 10.6609 23.1788 10.3212 23.0919 8.83601C23.0919 8.83601 20.3782 10.886 20.0226 14.9346C19.7777 17.743 21.1919 24.3828 21.1919 24.3828L42.5028 23.6323C42.4989 23.6323 43.6365 19.0228 43.6365 15.3217Z" fill="#FFD880"></path> <path d="M38.6484 38.3218H31.9056H25.1627L10.7803 43.7726L20.7464 60.6663H21.6866H31.9056H43.0647L53.0309 43.7687L38.6484 38.3218Z" fill="#EEB28A"></path> <path d="M53.3545 55.8277C53.2676 55.9067 53.1807 55.9857 53.0938 56.0607C53.0346 56.1121 52.9714 56.1674 52.9121 56.2187C50.3248 58.4543 47.378 60.2831 44.1665 61.6024C43.337 61.9421 42.4917 62.2502 41.6306 62.5227C41.2276 62.6491 40.8208 62.7676 40.41 62.8822C40.2875 62.9138 40.1611 62.9493 40.0387 62.9809C38.9168 63.2732 37.7713 63.5023 36.606 63.6721C36.4598 63.6919 36.3137 63.7116 36.1636 63.7314C34.9074 63.8933 33.6236 63.9842 32.328 63.996C32.2174 64 32.1068 64 31.9962 64C31.8224 64 31.6486 64 31.4748 63.996C30.1752 63.9763 28.8953 63.8775 27.6392 63.7037C27.493 63.684 27.3469 63.6642 27.1968 63.6445C26.1145 63.4825 25.0519 63.2653 24.009 62.9928C23.8036 62.9414 23.5982 62.8861 23.3928 62.8308C22.9939 62.7202 22.5949 62.6017 22.1999 62.4753C21.3506 62.2028 20.5171 61.8947 19.6994 61.555C16.5038 60.2239 13.5728 58.3911 11.0013 56.1555C10.9065 56.0726 10.8117 55.9896 10.7169 55.9067C10.6339 55.8316 10.5509 55.7566 10.468 55.6855C10.4601 55.6776 10.4561 55.6736 10.4482 55.6657C10.4522 54.2398 10.5154 52.7033 10.5825 51.0325C10.6734 48.8719 10.7722 46.4783 10.7722 43.7805L11.4239 43.5317L13.474 42.7535L16.1562 41.7384L17.2109 41.3395L17.3096 41.3L17.6296 41.1775C17.6296 41.1775 17.3649 51.6092 28.1567 53.5723C28.2515 53.592 28.3502 53.6078 28.449 53.6236C28.6346 53.6552 28.8203 53.6829 29.0099 53.7066C29.8987 53.8251 30.8586 53.8883 31.8935 53.8883H31.9488C32.964 53.8883 33.9081 53.8211 34.781 53.7066C34.9667 53.6829 35.1484 53.6552 35.3262 53.6236C35.3301 53.6236 35.3341 53.6236 35.3341 53.6236C35.4289 53.6078 35.5237 53.592 35.6185 53.5723C46.4221 51.6131 46.1614 41.1736 46.1614 41.1736L47.4965 41.6792L50.4512 42.797L52.371 43.5238L53.0148 43.7687C53.0306 48.7218 53.3703 52.5611 53.3545 55.8277Z" fill="#9DDEED"></path> <path d="M53.3895 55.7961C53.3895 55.7961 53.3855 55.8001 53.3816 55.8001C53.3697 55.8119 53.3618 55.8198 53.3539 55.8238C53.267 55.9028 53.1801 55.9818 53.0932 56.0568C51.8805 53.2129 51.1932 50.049 50.81 47.533C50.656 46.5415 50.5493 45.6489 50.4782 44.9181C50.3558 43.6621 50.3281 42.88 50.3281 42.88C50.3281 42.88 50.3795 42.8444 50.4703 42.7931C50.7389 42.6469 51.371 42.3942 52.0938 42.6825C52.6192 42.8918 52.8523 43.1644 52.951 43.354C53.03 43.5001 53.03 43.5989 53.03 43.5989L53.3855 55.7724L53.3895 55.7961Z" fill="#5EBAD3"></path> <path d="M13.4866 42.7496C13.4866 42.797 13.459 43.6225 13.3325 44.9221C13.2614 45.6607 13.1548 46.5494 13.0007 47.5369C12.6176 50.0214 11.9342 53.1062 10.7215 55.8988C10.6386 55.8237 10.5556 55.7487 10.4727 55.6776L10.5912 51.0286L10.7808 43.4685C10.7808 43.4685 10.7808 43.4211 10.8084 43.3421C10.8716 43.1604 11.0691 42.8128 11.7209 42.5521C12.6847 42.165 13.4866 42.7496 13.4866 42.7496Z" fill="#5EBAD3"></path> <path d="M40.8561 42.0347L39.355 31.998H31.9051H28.3697H24.4552L22.9541 42.0347L31.9051 45.7515L40.8561 42.0347Z" fill="#EEB28A"></path> <path d="M23.7324 36.8209C23.7324 36.8209 25.2453 39.649 31.9052 39.649C38.5652 39.649 40.0781 36.8209 40.0781 36.8209L39.5803 33.4951H24.2499L23.7324 36.8209Z" fill="#DD9F7C"></path> <path d="M22.5083 21.4676C18.7596 20.492 17.1756 24.4734 19.3482 27.0843C21.3469 29.4858 24.2345 28.7354 24.2345 28.7354L23.9461 20.093L22.5083 21.4676Z" fill="#DD9F7C"></path> <path d="M41.3063 21.4676C45.055 20.492 46.639 24.4734 44.4664 27.0843C42.4676 29.4858 39.5801 28.7354 39.5801 28.7354L39.8684 20.093L41.3063 21.4676Z" fill="#DD9F7C"></path> <path d="M39.7574 13.1371C41.3138 16.143 41.4955 23.1145 42.0643 26.4719C42.9175 31.512 40.9385 38.8825 31.9638 37.4566C22.9891 38.8864 21.0062 31.512 21.8633 26.4719C22.132 24.8841 22.3137 22.4905 22.5981 20.0929C22.9141 17.4149 23.3525 14.725 24.1702 13.1411C25.1222 11.3004 27.5555 9.74023 31.9638 9.74023C36.3722 9.74023 38.8015 11.2965 39.7574 13.1371Z" fill="#EEB28A"></path> <path d="M28.962 23.636C28.962 23.636 28.0733 24.43 26.6078 24.2364C25.3951 24.0784 25.0159 23.4069 25.0159 23.4069C24.1587 22.0916 25.0593 20.8553 26.4814 20.7763C27.5992 20.7092 28.9107 21.4083 28.962 23.636Z" fill="white"></path> <path d="M28.7998 22.0165C28.6695 21.4004 28.0374 21.0054 27.3896 21.1357C27.3857 21.1357 27.3857 21.1357 27.3817 21.1397C27.4647 21.2226 27.5239 21.3253 27.5516 21.4478C27.6227 21.7874 27.4015 22.1192 27.0499 22.1864C26.8287 22.2298 26.6114 22.1587 26.4613 22.0165C26.4258 22.1666 26.4218 22.3286 26.4574 22.4866C26.5877 23.1028 27.2198 23.4977 27.8676 23.3674C28.5154 23.2371 28.9341 22.6327 28.7998 22.0165Z" fill="#633624"></path> <path d="M34.666 23.636C34.666 23.636 35.5548 24.43 37.0203 24.2364C38.233 24.0784 38.6122 23.4069 38.6122 23.4069C39.4694 22.0916 38.5687 20.8553 37.1467 20.7763C36.0249 20.7092 34.7174 21.4083 34.666 23.636Z" fill="white"></path> <path d="M37.6412 21.136C37.4753 21.1044 37.3094 21.1044 37.1514 21.136C37.2343 21.219 37.2975 21.3256 37.3212 21.4441C37.3923 21.7838 37.1711 22.1156 36.8195 22.1827C36.5983 22.2262 36.3771 22.1551 36.231 22.0089C36.231 22.0129 36.231 22.0129 36.231 22.0129C36.1006 22.6291 36.5154 23.2334 37.1632 23.3637C37.811 23.4941 38.443 23.0991 38.5734 22.4829C38.7077 21.8707 38.289 21.2664 37.6412 21.136Z" fill="#633624"></path> <path d="M26.9363 27.1829C28.6706 27.1829 30.0766 26.2863 30.0766 25.1803C30.0766 24.0743 28.6706 23.1777 26.9363 23.1777C25.2019 23.1777 23.7959 24.0743 23.7959 25.1803C23.7959 26.2863 25.2019 27.1829 26.9363 27.1829Z" fill="#EEB28A"></path> <path d="M36.6921 27.1829C38.4265 27.1829 39.8325 26.2863 39.8325 25.1803C39.8325 24.0743 38.4265 23.1777 36.6921 23.1777C34.9577 23.1777 33.5518 24.0743 33.5518 25.1803C33.5518 26.2863 34.9577 27.1829 36.6921 27.1829Z" fill="#EEB28A"></path> <path d="M24.4824 20.0812C24.4824 20.0812 25.7425 18.0945 27.8756 18.5763C29.2937 18.8963 29.4596 20.4446 29.4596 20.4446C27.3818 19.1214 24.4824 20.0812 24.4824 20.0812Z" fill="#FFD880"></path> <path d="M39.442 20.0812C39.442 20.0812 38.1819 18.0945 36.0488 18.5763C34.6308 18.8963 34.4648 20.4446 34.4648 20.4446C36.5426 19.1214 39.442 20.0812 39.442 20.0812Z" fill="#FFD880"></path> <path d="M31.8783 23.7981C31.8783 23.7981 31.8704 24.2247 31.5504 24.7461C31.0606 25.54 30.4286 25.7691 30.2903 26.5788C30.1402 27.4399 31.0685 28.1983 32.4273 28.2654C31.8625 28.0442 31.0092 27.4201 31.0922 26.8158C31.1949 26.0811 31.6492 25.5913 31.8506 25.1016C32.1192 24.438 31.8783 23.7981 31.8783 23.7981Z" fill="#D89371"></path> <path d="M23.1909 14.9107C27.5992 16.1036 33.1373 13.4295 33.1373 13.4295C33.3032 14.8001 32.1419 15.3571 32.1419 15.3571C34.9939 15.4716 35.5904 13.2636 35.5904 13.2636C36.491 14.2353 38.3397 13.6507 39.4417 14.6185C41.0731 16.0483 41.2943 19.8007 41.2943 19.8007L42.1397 18.7935L41.3576 14.3183L39.1573 11.2769C39.1573 11.2769 33.7378 7.99055 30.4631 8.80817C25.8967 9.94574 23.0605 14.1405 23.0605 14.1405L23.1909 14.9107Z" fill="#FFD880"></path> <path d="M17.677 41.1575C17.7876 42.7336 18.3603 46.6874 21.2597 49.6537C23.7049 52.154 27.2639 53.4219 31.8342 53.4219C36.4124 53.4219 39.9754 52.1501 42.4206 49.6419C45.3595 46.6321 45.9046 42.6388 46.0033 41.1062L47.5123 41.6789C47.3266 43.6618 46.5643 47.6117 43.5266 50.7242C40.7773 53.5404 36.843 54.9703 31.8303 54.9703C26.8176 54.9703 22.8872 53.5404 20.1379 50.7242C17.1279 47.6393 16.3576 43.7329 16.1641 41.7342L17.677 41.1575Z" fill="#5EBAD3"></path> <path d="M33.4222 35.6556C32.49 35.1381 31.4314 35.1618 30.5781 35.6674C30.748 35.3712 31.0047 35.1539 31.2773 35.0157C31.5499 34.8774 31.8382 34.8182 32.1108 34.8379C32.3833 34.8498 32.6322 34.9564 32.8573 35.0907C32.968 35.1618 33.0667 35.2527 33.1655 35.3356C33.2563 35.4383 33.3472 35.5371 33.4222 35.6556Z" fill="#D89371"></path> <path d="M24.6726 25.6984C24.8537 25.6984 25.0004 25.5516 25.0004 25.3706C25.0004 25.1895 24.8537 25.0427 24.6726 25.0427C24.4915 25.0427 24.3447 25.1895 24.3447 25.3706C24.3447 25.5516 24.4915 25.6984 24.6726 25.6984Z" fill="#FFD880"></path> <path d="M26.9675 26.0971C27.1486 26.0971 27.2954 25.9503 27.2954 25.7692C27.2954 25.5882 27.1486 25.4414 26.9675 25.4414C26.7864 25.4414 26.6396 25.5882 26.6396 25.7692C26.6396 25.9503 26.7864 26.0971 26.9675 26.0971Z" fill="#FFD880"></path> <path d="M25.6159 27.2028C25.797 27.2028 25.9438 27.056 25.9438 26.875C25.9438 26.6939 25.797 26.5471 25.6159 26.5471C25.4349 26.5471 25.2881 26.6939 25.2881 26.875C25.2881 27.056 25.4349 27.2028 25.6159 27.2028Z" fill="#FFD880"></path> <path d="M38.9519 25.6982C39.133 25.6982 39.2798 25.5514 39.2798 25.3703C39.2798 25.1893 39.133 25.0425 38.9519 25.0425C38.7708 25.0425 38.624 25.1893 38.624 25.3703C38.624 25.5514 38.7708 25.6982 38.9519 25.6982Z" fill="#FFD880"></path> <path d="M36.657 26.0971C36.838 26.0971 36.9848 25.9503 36.9848 25.7692C36.9848 25.5882 36.838 25.4414 36.657 25.4414C36.4759 25.4414 36.3291 25.5882 36.3291 25.7692C36.3291 25.9503 36.4759 26.0971 36.657 26.0971Z" fill="#FFD880"></path> <path d="M38.0124 27.2028C38.1935 27.2028 38.3403 27.056 38.3403 26.875C38.3403 26.6939 38.1935 26.5471 38.0124 26.5471C37.8314 26.5471 37.6846 26.6939 37.6846 26.875C37.6846 27.056 37.8314 27.2028 38.0124 27.2028Z" fill="#FFD880"></path> <path d="M36.7403 28.7354C36.7403 28.7354 32.8376 31.7215 28.2949 29.9638C28.2949 29.9638 32.5097 33.3686 36.7403 28.7354Z" fill="#C67F66"></path> <path d="M40.4403 37.8477C38.4179 45.4433 31.9673 55.1679 31.8369 55.3575C31.7105 55.1718 25.5681 45.9923 23.3521 38.5033C23.1506 38.531 22.9215 38.6337 22.6924 39.1274C25.023 46.8771 31.1299 55.5826 31.438 56.2502L31.434 56.266L31.7974 57.1468L31.8053 57.131L31.8132 57.1468L32.1766 56.266L32.1727 56.2502C32.4808 55.5826 38.647 46.6085 40.9933 38.8746C40.8432 38.3216 40.6536 38.0649 40.4403 37.8477Z" fill="#403D56"></path> <path d="M33.7964 58.1069C33.7964 57.1787 33.1486 56.4045 32.2835 56.2031V54.6034C32.2835 54.4414 32.1492 54.3071 31.9873 54.3071H31.691C31.529 54.3071 31.3947 54.4414 31.3947 54.6034V56.2031C30.5257 56.4045 29.8818 57.1787 29.8818 58.1069C29.8818 58.2886 29.9095 58.4624 29.9529 58.6283L31.0985 62.9534L32.6193 62.6414L32.4178 59.9792C33.2157 59.7264 33.7964 58.9838 33.7964 58.1069Z" fill="#FF5767"></path> </svg> 