<?xml version="1.0" encoding="UTF-8"?> <svg xmlns="http://www.w3.org/2000/svg" width="731" height="699" viewBox="0 0 731 699" fill="none"> <g clip-path="url(#clip0)"> <ellipse cx="384" cy="424" rx="278" ry="275" fill="#F66E5C"></ellipse> <path d="M396.742 698.716C392.519 698.905 388.271 699 384 699C358.928 699 334.631 695.717 311.525 689.561C311.259 685.349 310.999 681.24 310.751 677.311C309.853 663.105 309.104 651.267 308.758 645.483C307.991 630.507 312.98 620.051 317.415 610.756C320.516 604.257 323.346 598.326 323.748 591.816L454.746 577.624L483.585 622.809C485.735 633.638 489.074 654.467 492.651 677.204C465.382 688.669 435.883 695.948 404.975 698.229L401.141 679.087C401.141 679.25 396.742 679.739 396.742 679.739V698.716Z" fill="#312929"></path> <path d="M451.8 484.318C455.385 432.118 454.081 421.842 440.721 359.528L384.02 354.472L383.368 312.712L355.507 316.301L327.645 319.889L337.421 360.344L283.816 379.429C286.423 443.211 287.89 453.488 304.346 503.077C315.751 537.333 303.694 562.454 308.908 603.724L472.656 582.845C467.442 541.574 449.356 520.368 451.8 484.318Z" fill="#FAD6B5"></path> <path d="M383.371 312.711L383.86 346.641C377.995 350.392 369.685 354.471 360.561 355.612C351.6 356.754 342.475 355.612 335.795 353.329L327.648 319.888L383.371 312.711Z" fill="#E7C19C"></path> <path d="M552.022 220.549C535.403 270.955 519.925 275.196 503.468 317.119C503.468 317.119 469.904 344.034 435.525 358.715C438.947 391.177 440.576 409.773 440.088 427.064C481.31 407.163 528.886 372.744 545.505 351.212C563.102 328.7 577.114 287.43 588.031 238.819C583.305 223.975 568.479 220.06 552.022 220.549Z" fill="#FAD6B5"></path> <path d="M614.086 177.159C616.042 174.712 616.856 173.733 617.345 170.797C617.997 167.698 616.367 164.435 613.761 162.641C609.85 159.868 606.917 160.52 602.192 162.152C602.681 157.258 600.237 151.222 594.372 150.733C588.669 150.407 584.27 153.506 580.033 157.584C576.286 161.336 573.516 165.251 571.724 169.166C571.561 167.372 571.561 164.109 571.235 162.641C568.791 152.038 557.223 146.981 552.172 152.69C549.402 155.79 559.178 164.762 554.942 176.343C550.38 188.578 545.655 200.322 551.846 220.713L587.854 238.82C603.985 239.472 619.952 221.202 625.166 216.309C628.587 213.209 630.543 207.989 630.217 204.564C629.565 199.833 625.818 196.897 620.93 197.876C626.795 195.429 629.076 189.067 627.121 183.521C625.329 178.301 619.463 175.038 614.086 177.159Z" fill="#FAD6B5"></path> <path d="M667.532 80.2598L579.549 100.65C567.654 103.423 560.16 115.331 562.929 127.402L597.308 275.519C600.078 287.427 611.972 294.93 624.029 292.157L713.805 271.277C725.699 268.504 733.194 256.596 730.424 244.525L696.371 98.2034C693.439 85.3166 680.404 77.1604 667.532 80.2598Z" fill="#483764"></path> <path d="M661.182 81.7276L573.198 102.118C561.304 104.891 553.809 116.799 556.579 128.87L590.958 276.986C593.728 288.895 605.622 296.398 617.679 293.625L707.455 272.745C719.349 269.972 726.844 258.064 724.074 245.993L690.021 99.6712C687.251 86.7844 674.216 78.6282 661.182 81.7276Z" fill="#63508E"></path> <path d="M701.753 249.259L612.629 269.976C607.741 271.118 602.69 268.018 601.55 263.125L569.778 126.101C568.637 121.207 571.733 116.15 576.621 115.008L665.745 94.2916C670.633 93.1497 675.684 96.2491 676.825 101.143L708.596 238.167C709.9 243.06 706.641 248.117 701.753 249.259Z" fill="white"></path> <path d="M664.603 276.985L658.248 278.453C656.456 278.779 654.827 277.801 654.338 276.006L652.872 269.644C652.546 267.85 653.523 266.219 655.316 265.729L661.67 264.261C663.462 263.935 665.092 264.914 665.58 266.708L667.047 273.07C667.373 274.864 666.232 276.496 664.603 276.985Z" fill="#483764"></path> <path d="M669.653 168.836L605.295 183.844C602.851 184.496 600.407 182.865 599.755 180.418L589.653 136.701C589.001 134.254 590.631 131.807 593.075 131.155L657.433 116.147C659.877 115.495 662.321 117.126 662.973 119.573L673.075 163.29C673.563 165.737 672.097 168.184 669.653 168.836Z" fill="#D7D7F4"></path> <path d="M676.015 183.024L605.791 199.336C604.977 199.499 603.999 199.01 603.836 198.194L603.021 194.932C602.859 194.116 603.347 193.138 604.162 192.974L674.386 176.662C675.201 176.499 676.178 176.988 676.341 177.804L677.156 181.066C677.319 181.882 676.83 182.698 676.015 183.024Z" fill="#D7D7F4"></path> <path d="M679.443 197.707L609.219 214.019C608.404 214.182 607.427 213.693 607.264 212.877L606.449 209.615C606.286 208.799 606.775 207.82 607.59 207.657L677.814 191.345C678.628 191.182 679.606 191.671 679.769 192.487L680.584 195.749C680.747 196.728 680.258 197.543 679.443 197.707Z" fill="#D7D7F4"></path> <path d="M682.847 212.555L612.623 228.868C611.809 229.031 610.831 228.541 610.668 227.726L609.853 224.463C609.691 223.648 610.179 222.669 610.994 222.506L681.218 206.193C682.033 206.03 683.01 206.52 683.173 207.335L683.988 210.598C684.151 211.413 683.662 212.392 682.847 212.555Z" fill="#D7D7F4"></path> <path d="M569.454 190.691C565.707 194.443 569.129 183.025 569.129 183.025C572.876 172.748 572.061 166.386 571.247 162.634C568.966 152.031 557.235 146.974 552.184 152.684" fill="#F8CEB7"></path> <path d="M569.295 183.023C582.492 200.641 575.323 219.237 575.323 219.237L564.896 205.861L569.295 183.023Z" fill="#FAD6B5"></path> <path d="M290.027 375.999C253.204 370.29 213.286 352.509 213.286 352.509C187.054 315.969 171.086 315.643 142.573 270.784C126.443 274.373 112.919 281.877 112.104 297.21C134.589 341.743 158.214 378.283 180.699 395.9C202.206 412.702 257.278 434.56 302.247 443.695C297.522 426.893 294.589 408.461 290.027 375.999Z" fill="#FAD6B5"></path> <path d="M71.5319 243.869C69.0879 241.912 68.1103 241.259 66.8069 238.486C65.5034 235.55 66.3181 232.124 68.2733 229.677C71.369 226.089 74.3018 225.925 79.3527 226.415C77.5604 221.847 78.538 215.322 84.2407 213.528C89.6175 211.734 94.6684 213.691 99.7193 216.627C104.281 219.401 108.029 222.337 110.636 225.762C110.31 223.968 109.495 220.869 109.495 219.237C109.332 208.308 119.271 200.641 125.626 204.883C129.047 207.166 121.715 218.422 128.558 228.372C135.89 239.138 143.385 249.252 142.408 270.621L111.939 297.047C96.4606 301.615 76.5828 287.749 70.2285 284.324C66.1551 282.203 62.8965 277.636 62.5706 274.21C61.9189 269.479 64.8517 265.728 69.9026 265.401C63.5482 264.423 59.9637 258.876 60.4525 253.004C60.9413 247.784 65.9922 243.053 71.5319 243.869Z" fill="#FAD6B5"></path> <path d="M110.628 225.761C114.05 232.775 113.235 244.846 101.83 243.052C105.577 245.172 107.532 250.556 105.577 254.144C103.622 257.733 97.9192 258.712 94.0088 257.08C96.7787 259.364 98.0822 263.769 96.2899 266.705C94.3347 269.641 89.4467 270.783 85.8622 269.641C87.8174 273.882 84.3958 279.265 79.5078 279.755C88.4691 281.712 90.9131 273.882 90.9131 273.882C94.3347 273.719 98.2451 272.251 99.8744 269.641C101.667 267.031 102.155 264.421 101.504 261.811C106.229 261.159 108.51 258.712 109.813 256.754C111.769 253.818 111.931 250.229 110.791 247.293C119.101 245.662 120.078 235.059 110.628 225.761Z" fill="#E7C19C"></path> <path d="M116.995 289.219C122.209 287.261 125.468 281.715 124.327 276.821C128.564 277.474 134.103 276.006 136.547 270.949C130.03 273.559 124.49 273.885 116.181 268.176C121.557 275.843 120.743 282.204 116.995 289.219Z" fill="#E7C19C"></path> <path d="M477.552 593.446L476.248 593.283C476.248 593.283 474.945 573.708 470.057 570.445L429.65 575.665L348.02 586.105L307.613 591.325C303.702 595.729 307.287 615.141 307.287 615.141C307.45 626.886 308.265 640.099 309.242 654.291C318.366 650.865 326.676 646.135 333.682 639.447C342.643 630.801 347.857 620.524 349.487 609.758L388.916 604.701L396.411 662.936L402.44 662.121C408.957 661.305 413.519 655.433 412.704 648.908L406.839 602.418L435.352 598.992C439.751 608.942 447.409 617.588 458.163 623.787C466.635 628.517 475.922 630.964 485.535 632.106C482.929 617.751 480.322 604.864 477.552 593.446Z" fill="#413A3A"></path> <path d="M401.307 679.247L396.745 679.9L382.732 572.728L387.132 572.238L401.307 679.247Z" fill="#272020"></path> <path d="M289.854 609.591C289.854 609.591 289.691 614.974 289.854 622.804C289.854 622.804 343.621 631.776 394.294 625.904C445.292 620.031 494.334 596.052 494.334 596.052L491.565 584.797C484.884 558.534 290.017 581.86 289.854 609.591Z" fill="#57AE42"></path> <path d="M454.116 204.394C499.086 132.13 474.646 66.0651 426.906 40.4547C404.747 28.5466 380.959 23.3267 366.784 0C355.542 18.433 368.088 36.5397 368.088 36.5397C313.668 -9.13492 262.996 17.4542 262.996 17.4542C286.784 23.3267 295.582 32.951 295.582 32.951C252.405 30.6672 235.134 34.9085 213.301 64.2707C190.817 94.6117 168.169 100.158 168.169 100.158C178.271 110.272 197.497 108.64 197.497 108.64C169.961 178.131 233.831 236.529 233.831 236.529L454.116 204.394Z" fill="#FD873C"></path> <path d="M429.849 205.864C429.849 205.864 447.282 178.786 466.346 186.126C485.572 193.467 494.533 228.049 469.115 251.702C449.564 269.972 431.804 266.22 431.804 266.22L429.849 205.864Z" fill="#FAD6B5"></path> <path d="M255.006 228.212C255.006 228.212 231.38 206.354 214.598 218.262C197.979 230.17 197.816 265.894 228.448 282.37C251.91 295.093 268.203 287.1 268.203 287.1L255.006 228.212Z" fill="#FAD6B5"></path> <path d="M359.463 348.757C382.274 345.821 398.567 331.955 411.765 323.473C473.028 283.834 444.188 205.045 444.188 205.045C434.412 97.2203 410.298 67.6949 325.247 78.6242C240.196 89.3904 223.74 124.136 241.337 230.982C241.337 230.982 234.331 315.806 304.718 337.991C319.219 342.395 337.793 351.53 359.463 348.757Z" fill="#FAD6B5"></path> <path d="M413.954 244.234C412.457 244.944 411.82 246.734 412.53 248.23C413.241 249.727 415.03 250.364 416.527 249.654C418.024 248.943 418.661 247.154 417.951 245.657C417.24 244.16 415.451 243.523 413.954 244.234Z" fill="#DC9B74"></path> <path d="M420.415 234.525C418.918 235.235 418.281 237.025 418.991 238.521C419.702 240.018 421.491 240.655 422.988 239.945C424.485 239.234 425.122 237.445 424.412 235.948C423.701 234.451 421.912 233.814 420.415 234.525Z" fill="#DC9B74"></path> <path d="M402.438 238.631C400.942 239.342 400.304 241.131 401.015 242.628C401.725 244.125 403.515 244.762 405.012 244.051C406.508 243.341 407.146 241.551 406.435 240.055C405.724 238.558 403.935 237.921 402.438 238.631Z" fill="#DC9B74"></path> <path d="M280.4 263.989C278.648 264.356 277.525 266.074 277.892 267.827C278.259 269.579 279.978 270.702 281.73 270.335C283.483 269.968 284.606 268.249 284.238 266.497C283.871 264.744 282.153 263.621 280.4 263.989Z" fill="#DC9B74"></path> <path d="M270.779 254.963C269.027 255.33 267.904 257.049 268.271 258.801C268.638 260.554 270.357 261.677 272.109 261.31C273.862 260.942 274.984 259.224 274.617 257.471C274.25 255.719 272.532 254.596 270.779 254.963Z" fill="#DC9B74"></path> <path d="M290.176 255.315C288.716 255.621 287.829 257.29 288.197 259.043C288.564 260.795 290.046 261.968 291.506 261.662C292.966 261.356 293.853 259.687 293.485 257.934C293.118 256.182 291.636 255.009 290.176 255.315Z" fill="#DC9B74"></path> <path d="M265.616 198.195C267.408 195.585 274.903 180.741 295.759 184.819C304.068 186.45 304.231 194.443 304.231 194.443C286.472 189.549 265.616 198.195 265.616 198.195Z" fill="#FD873C"></path> <path d="M412.264 178.132C412.264 178.132 396.785 164.593 379.84 172.749C372.182 176.501 374.137 184.168 374.137 184.168C389.942 175.196 412.264 178.132 412.264 178.132Z" fill="#FD873C"></path> <path d="M315.664 230.006C315.664 230.006 307.517 241.099 290.572 242.404C276.56 243.545 270.694 236.857 270.694 236.857C257.986 224.134 265.155 207.984 280.959 203.743C293.505 200.318 309.798 205.048 315.664 230.006Z" fill="white"></path> <path d="M305.072 219.075C302.465 211.898 294.319 207.983 286.661 210.593C286.661 210.593 286.661 210.593 286.498 210.593C287.638 211.408 288.453 212.55 288.942 214.018C290.408 217.933 288.127 222.337 284.054 223.806C281.447 224.621 278.677 224.132 276.722 222.664C276.559 224.621 276.722 226.416 277.374 228.373C279.981 235.55 288.127 239.465 295.785 236.855C303.443 234.245 307.679 226.252 305.072 219.075Z" fill="#6D4237"></path> <path d="M372.015 222.996C372.015 222.996 382.606 231.641 399.388 228.705C413.237 226.258 417.31 218.265 417.31 218.265C426.435 202.768 415.518 188.903 399.062 188.74C386.027 188.576 371.363 197.222 372.015 222.996Z" fill="white"></path> <path d="M408.196 206.03C405.589 198.853 397.443 194.938 389.785 197.548C389.785 197.548 389.785 197.548 389.622 197.548C390.762 198.363 391.577 199.505 392.066 200.973C393.532 204.888 391.251 209.292 387.178 210.761C384.571 211.576 381.801 211.087 379.846 209.619C379.683 211.576 379.846 213.371 380.498 215.328C383.105 222.506 391.251 226.42 398.909 223.81C406.73 221.201 410.803 213.207 408.196 206.03Z" fill="#6D4237"></path> <path d="M345.606 231.959C342.51 241.583 345.28 245.661 348.376 247.619C353.427 250.718 358.966 248.434 361.41 252.023C363.529 255.286 363.692 259.038 351.309 269.314C374.119 261.811 369.557 248.434 364.995 245.988C361.248 244.03 359.129 244.519 352.938 243.704C349.028 243.051 346.095 239.3 345.606 231.959Z" fill="#D59E81"></path> <path d="M307.162 282.371C313.191 284.492 319.219 285.96 325.085 286.938L353.109 292.485L380.156 281.555C390.584 277.967 396.938 274.378 396.938 274.378C396.938 274.378 391.724 291.669 377.06 302.925C371.032 307.492 353.924 303.903 353.924 303.903C353.924 303.903 337.305 310.755 331.113 307.655C314.494 299.336 307.162 282.371 307.162 282.371Z" fill="#262020"></path> <path d="M354.418 301.456C341.221 302.924 330.956 307.655 330.956 307.655C337.148 310.917 344.317 313.038 354.093 312.059C363.706 311.08 371.038 307.492 377.066 302.924C377.229 302.924 367.779 299.988 354.418 301.456Z" fill="#CF6363"></path> <path d="M380.327 281.551C367.13 286.118 347.252 290.359 325.256 286.934C330.47 291.338 339.594 296.395 352.792 295.253C366.641 294.111 375.765 286.934 380.327 281.551Z" fill="white"></path> <path d="M336.957 112.72C332.557 145.997 298.993 162.636 298.993 162.636C365.47 158.721 378.179 113.699 378.179 113.699C380.949 134.742 362.7 149.749 362.7 149.749C395.938 142.898 408.484 114.515 408.484 114.515C414.024 154.317 452.639 158.069 452.639 158.069L436.509 86.2942L328.158 64.1094C328.158 64.1094 239.849 71.7762 223.392 155.132C222.415 159.863 227.629 169.161 227.955 178.459C299.156 164.594 336.957 112.72 336.957 112.72Z" fill="#FD873C"></path> <path d="M453 428C453 428 426.062 406.015 432.905 376.326C434.046 371.596 434.046 357.73 434.046 357.73C449.362 343.702 502.499 314 502.499 314C510.499 292 550.999 221.5 550.999 221.5C550.999 221.5 566.999 228 572.999 233C578.999 238 583.499 242 586.999 260C582.244 286.078 563.105 343.524 554.999 351C540.499 373.5 490.312 412.666 453 428Z" fill="#2D922B"></path> <path d="M299.5 412C299.5 434.5 292.5 448.5 292.5 448.5C252.581 443.117 171.5 400.5 171.5 400.5L112.001 303C111.818 290.461 126.5 276.5 145.001 269L215 348.5C215 348.5 271.623 366.54 290.035 376.164C290.035 376.164 299.5 389.5 299.5 412Z" fill="#2D922B"></path> <path d="M458 440L438 353L406.04 356.428C406.04 356.428 406.529 388.889 365.47 394.109C324.574 399.329 316.753 367.846 316.753 367.846L289.869 376.166L289.055 462.458C289.218 470.777 289.869 514.821 289.869 528.034C289.869 528.034 288.892 589.042 289.706 610.248C296.224 611.553 345.755 620.199 392.843 614.489C440.256 608.78 485.226 587.737 491.417 584.801C491.58 584.964 459.792 447.667 458 440Z" fill="#57AE42"></path> <path d="M376.866 543.204C409.441 543.204 435.848 516.766 435.848 484.153C435.848 451.54 409.441 425.103 376.866 425.103C344.292 425.103 317.885 451.54 317.885 484.153C317.885 516.766 344.292 543.204 376.866 543.204Z" fill="#2D922B"></path> <path fill-rule="evenodd" clip-rule="evenodd" d="M333.843 487.248L348.833 493.936L340.36 506.17L352.091 512.532L346.226 522.156L357.468 527.866L345.737 474.851L333.843 487.248Z" fill="#0D1013"></path> <path fill-rule="evenodd" clip-rule="evenodd" d="M403.588 502.42C400.493 490.675 388.599 484.15 383.222 481.866C371.165 476.809 356.827 474.526 349.658 473.71C346.725 473.384 344.933 473.221 344.933 473.221C349.006 492.143 353.731 514.654 358.619 540.265C366.766 542.875 375.401 543.853 384.525 542.711C391.206 541.896 397.397 539.938 403.1 537.165C402.611 531.13 402.448 524.931 403.263 515.959C403.914 508.782 404.729 506.661 403.588 502.42Z" fill="#FF5767"></path> <path fill-rule="evenodd" clip-rule="evenodd" d="M403.902 508.294C403.739 505.032 403.413 502.585 403.413 502.422C403.088 499.322 394.941 491.166 383.047 481.868H382.884C364.635 483.663 361.866 498.67 371.641 500.301C371.641 500.301 376.041 523.791 379.299 543.203C380.929 543.203 382.558 543.04 384.187 542.713C391.519 541.735 398.362 539.451 404.554 536.188C404.228 521.833 403.902 510.578 403.902 510.578C404.065 510.415 404.065 509.436 403.902 508.294Z" fill="#FFC500"></path> <path fill-rule="evenodd" clip-rule="evenodd" d="M409.978 458.22C406.231 457.73 402.483 461.482 401.669 466.376C400.854 471.27 403.298 475.674 407.045 476.163C410.793 476.653 414.54 472.901 415.355 468.007C416.17 462.95 413.726 458.709 409.978 458.22Z" fill="#FF5767"></path> <path fill-rule="evenodd" clip-rule="evenodd" d="M423.137 464.093C420.205 462.625 415.642 464.582 413.198 468.66C410.754 472.575 411.08 477.143 414.176 478.611C417.109 480.079 421.671 478.122 424.115 474.044C426.559 470.129 426.07 465.561 423.137 464.093Z" fill="#FF5767"></path> <path fill-rule="evenodd" clip-rule="evenodd" d="M343.119 445.988C339.861 446.803 337.743 450.066 336.928 452.839C336.602 453.981 336.765 455.612 337.58 456.101C338.394 456.591 340.187 456.591 341.001 455.612C341.653 454.796 344.423 451.208 345.726 450.555C347.03 449.903 348.333 448.272 347.681 446.967C347.03 445.825 345.237 445.498 343.119 445.988Z" fill="#0D1013"></path> <path fill-rule="evenodd" clip-rule="evenodd" d="M378.15 439.624C375.869 439.787 374.402 440.766 374.239 442.234C374.239 443.702 376.032 444.844 377.335 445.007C378.801 445.17 382.549 447.454 383.526 448.106C384.504 448.596 386.133 448.27 386.785 447.291C387.437 446.312 386.948 444.844 386.296 443.865C384.667 441.582 381.408 439.298 378.15 439.624Z" fill="#0D1013"></path> <path fill-rule="evenodd" clip-rule="evenodd" d="M384.689 508.622L374.75 505.686L363.834 500.955L364.649 511.558L374.588 507.643L379.15 516.126L387.948 510.253L394.465 517.431L401.634 509.274H398.213L384.689 508.622Z" fill="white"></path> <path fill-rule="evenodd" clip-rule="evenodd" d="M422.336 505.363C422.336 505.363 422.824 493.618 419.403 477.469C415.818 461.32 400.34 463.114 376.226 467.518C367.101 469.15 345.105 473.065 345.105 473.065C348.364 484.973 355.533 493.455 358.792 496.718C376.877 514.661 402.947 509.278 404.087 509.115C410.279 507.973 422.336 505.363 422.336 505.363Z" fill="#FF5767"></path> <path d="M356.143 479.164C363.559 478.276 368.851 471.538 367.965 464.114C367.078 456.689 360.348 451.39 352.932 452.278C345.517 453.165 340.224 459.903 341.11 467.328C341.997 474.752 348.727 480.051 356.143 479.164Z" fill="#6F568E"></path> <path d="M376.198 475.545C383.613 474.658 388.907 467.921 388.021 460.496C387.135 453.072 380.406 447.772 372.99 448.659C365.574 449.546 360.281 456.283 361.166 463.708C362.052 471.132 368.782 476.432 376.198 475.545Z" fill="#6F568E"></path> <path d="M355.587 474.291C360.321 473.72 363.698 469.415 363.129 464.675C362.559 459.935 358.259 456.554 353.524 457.124C348.79 457.694 345.413 461.999 345.982 466.74C346.552 471.48 350.852 474.861 355.587 474.291Z" fill="white"></path> <path fill-rule="evenodd" clip-rule="evenodd" d="M354.064 461.64C351.782 461.966 350.153 463.924 350.479 466.208C350.805 468.491 352.76 470.123 355.041 469.796C357.322 469.47 358.952 467.513 358.626 465.229C358.463 462.945 356.345 461.314 354.064 461.64Z" fill="#0D1013"></path> <path d="M375.6 470.72C380.336 470.157 383.719 465.856 383.156 461.115C382.594 456.374 378.298 452.987 373.562 453.55C368.826 454.114 365.444 458.414 366.006 463.155C366.569 467.897 370.864 471.284 375.6 470.72Z" fill="white"></path> <path fill-rule="evenodd" clip-rule="evenodd" d="M374.097 458.052C371.816 458.379 370.186 460.336 370.512 462.62C370.838 464.904 372.793 466.535 375.074 466.208C377.355 465.882 378.985 463.925 378.659 461.641C378.333 459.357 376.378 457.726 374.097 458.052Z" fill="#0D1013"></path> <path fill-rule="evenodd" clip-rule="evenodd" d="M409.596 462.619C408.293 462.13 406.663 463.598 406.012 465.718C405.36 467.839 406.012 469.959 407.315 470.449C408.618 470.938 410.248 469.47 410.9 467.349C411.551 465.229 410.9 463.108 409.596 462.619Z" fill="#0D1013"></path> <path fill-rule="evenodd" clip-rule="evenodd" d="M421.351 467.84C420.21 467.187 418.418 467.84 417.277 469.471C416.137 471.102 416.137 472.897 417.114 473.549C418.255 474.202 420.047 473.549 421.188 471.918C422.328 470.287 422.328 468.492 421.351 467.84Z" fill="#0D1013"></path> </g> <defs> <clipPath id="clip0"> <rect width="731" height="699" fill="white"></rect> </clipPath> </defs> </svg> 