<?xml version="1.0" encoding="UTF-8"?> <svg xmlns="http://www.w3.org/2000/svg" width="1440" height="880" viewBox="0 0 1440 880" fill="none"> <rect width="1440" height="880" fill="#F3FDFF"></rect> <path d="M328.075 218.448C325.751 218.358 323.436 218.771 321.288 219.661C315.212 209.362 301.925 205.931 291.611 211.999C287.395 214.479 284.143 218.31 282.385 222.869C275.826 218.085 266.624 219.516 261.832 226.065C257.041 232.615 258.474 241.803 265.033 246.588C268.449 249.08 272.774 249.982 276.903 249.065C282.855 247.828 289.041 248.415 294.653 250.749C299.42 252.632 304.7 252.774 309.562 251.15C314.275 249.558 319.327 249.25 324.199 250.258C332.945 251.744 341.241 245.869 342.73 237.136C344.218 228.403 338.334 220.118 329.589 218.632C329.087 218.547 328.582 218.486 328.075 218.448Z" fill="white"></path> <path d="M167.075 504.448C164.751 504.358 162.436 504.771 160.288 505.661C154.212 495.362 140.925 491.931 130.611 497.999C126.395 500.479 123.143 504.31 121.385 508.869C114.826 504.085 105.624 505.516 100.832 512.065C96.0409 518.615 97.4738 527.803 104.033 532.588C107.449 535.08 111.774 535.982 115.903 535.065C121.855 533.828 128.041 534.415 133.653 536.749C138.42 538.632 143.7 538.774 148.562 537.15C153.275 535.558 158.327 535.25 163.199 536.258C171.945 537.744 180.241 531.869 181.73 523.136C183.218 514.403 177.334 506.118 168.589 504.632C168.087 504.547 167.582 504.486 167.075 504.448Z" fill="white"></path> <path d="M1402.63 388.917C1399.91 388.812 1397.21 389.291 1394.7 390.319C1387.61 378.419 1372.1 374.454 1360.06 381.465C1355.14 384.33 1351.35 388.757 1349.3 394.026C1341.64 388.497 1330.9 390.15 1325.31 397.718C1319.71 405.286 1321.39 415.903 1329.04 421.431C1333.03 424.311 1338.08 425.353 1342.9 424.293C1349.84 422.864 1357.07 423.543 1363.62 426.239C1369.18 428.416 1375.34 428.58 1381.02 426.703C1386.52 424.863 1392.42 424.508 1398.1 425.672C1408.31 427.389 1417.99 420.6 1419.73 410.51C1421.47 400.419 1414.6 390.847 1404.39 389.13C1403.81 389.031 1403.22 388.961 1402.63 388.917Z" fill="white"></path> <path d="M212.78 79.8991C206.901 79.6691 201.041 80.7159 195.607 82.9673C180.233 56.9162 146.613 48.2384 120.514 63.5849C109.847 69.8577 101.62 79.5487 97.1707 91.0816C80.574 78.9793 57.2911 82.5984 45.167 99.1652C33.0428 115.732 36.6685 138.973 53.2652 151.075C61.9085 157.378 72.8522 159.66 83.3007 157.34C98.3597 154.212 114.014 155.697 128.213 161.6C140.275 166.364 153.635 166.723 165.937 162.614C177.862 158.588 190.647 157.809 202.974 160.357C225.103 164.116 246.096 149.256 249.861 127.167C253.627 105.077 238.74 84.123 216.61 80.3642C215.342 80.1487 214.063 79.9935 212.78 79.8991Z" fill="white"></path> <path d="M1305.54 725.145C1300.01 724.922 1294.49 725.936 1289.38 728.116C1274.9 702.887 1243.25 694.483 1218.68 709.346C1208.64 715.42 1200.89 724.805 1196.7 735.974C1181.08 724.254 1159.16 727.759 1147.75 743.803C1136.33 759.847 1139.75 782.354 1155.37 794.075C1163.51 800.178 1173.81 802.389 1183.65 800.142C1197.82 797.113 1212.56 798.551 1225.93 804.267C1237.28 808.881 1249.86 809.229 1261.44 805.249C1272.67 801.351 1284.71 800.596 1296.31 803.064C1317.14 806.704 1336.91 792.313 1340.45 770.921C1344 749.528 1329.98 729.235 1309.15 725.595C1307.95 725.387 1306.75 725.236 1305.54 725.145Z" fill="white"></path> </svg> 